<svg id="svg" version="1.1" xmlns="http://www.w3.org/2000/svg" xmlns:xlink="http://www.w3.org/1999/xlink" width="400" height="562.9629629629629" viewBox="0, 0, 400,562.9629629629629"><g id="svgg"><path id="path0" d="M273.455 137.257 C 273.045 137.495,272.398 137.985,272.018 138.345 C 271.637 138.705,270.585 139.595,269.681 140.322 C 265.987 143.292,265.781 148.442,269.269 150.643 C 272.456 152.655,273.934 153.021,274.860 152.028 C 275.309 151.545,276.100 150.990,276.617 150.793 C 277.135 150.597,277.882 149.933,278.277 149.318 C 278.672 148.703,279.402 147.872,279.898 147.471 C 281.396 146.261,281.216 140.683,279.623 138.933 C 277.698 136.818,275.322 136.172,273.455 137.257 M258.445 152.033 C 257.919 152.243,256.095 153.672,254.392 155.208 C 252.688 156.743,251.099 158.000,250.861 158.000 C 250.623 158.000,250.212 158.405,249.947 158.900 C 249.473 159.785,245.704 163.645,244.696 164.277 C 244.413 164.455,243.866 165.095,243.481 165.700 C 243.096 166.305,242.520 166.800,242.201 166.800 C 241.882 166.800,241.343 167.337,241.004 167.993 C 240.664 168.650,239.862 169.458,239.222 169.789 C 238.581 170.120,237.941 170.755,237.800 171.200 C 237.659 171.645,237.039 172.270,236.422 172.588 C 235.806 172.907,235.206 173.534,235.089 173.981 C 234.972 174.428,234.329 175.108,233.659 175.492 C 232.989 175.876,232.264 176.581,232.047 177.058 C 231.829 177.534,231.139 178.227,230.513 178.597 C 229.887 178.967,229.074 179.794,228.706 180.435 C 228.338 181.076,227.763 181.600,227.429 181.600 C 227.094 181.600,226.543 182.137,226.204 182.793 C 225.864 183.450,225.085 184.246,224.471 184.563 C 223.858 184.880,223.152 185.588,222.902 186.135 C 222.653 186.683,222.076 187.249,221.620 187.394 C 221.164 187.538,220.515 188.192,220.176 188.846 C 219.838 189.500,219.120 190.236,218.581 190.482 C 218.041 190.727,217.600 191.076,217.600 191.257 C 217.600 191.437,216.437 192.714,215.016 194.093 C 213.595 195.472,212.229 196.809,211.981 197.065 C 211.732 197.320,211.050 197.999,210.465 198.574 C 208.662 200.343,208.327 200.673,207.500 201.500 C 207.060 201.940,206.407 202.597,206.050 202.959 C 204.824 204.202,203.509 205.510,202.795 206.195 C 202.402 206.572,201.927 207.039,201.740 207.233 C 201.553 207.428,200.185 208.755,198.700 210.182 C 197.215 211.609,196.000 212.966,196.000 213.197 C 196.000 213.428,195.557 213.819,195.016 214.066 C 194.262 214.409,193.830 215.180,193.172 217.357 C 192.700 218.921,191.904 220.830,191.402 221.600 C 190.164 223.504,189.769 226.282,190.606 227.206 C 191.827 228.556,197.410 227.701,200.356 225.715 C 201.102 225.212,202.002 224.799,202.356 224.797 C 203.111 224.793,207.600 220.782,207.600 220.111 C 207.600 219.860,207.915 219.544,208.300 219.410 C 208.685 219.276,209.900 218.183,211.000 216.982 C 212.100 215.781,215.115 212.635,217.700 209.992 C 220.285 207.349,222.400 205.010,222.400 204.793 C 222.400 204.577,222.639 204.400,222.930 204.400 C 223.574 204.400,225.200 202.734,225.200 202.074 C 225.200 201.813,225.376 201.600,225.591 201.600 C 226.117 201.600,240.000 187.741,240.000 187.215 C 240.000 186.987,240.176 186.800,240.391 186.800 C 240.852 186.800,254.799 172.976,254.803 172.515 C 254.804 172.342,255.361 171.883,256.041 171.497 C 256.721 171.110,257.370 170.435,257.485 169.997 C 257.600 169.558,257.855 169.200,258.052 169.200 C 258.882 169.200,266.221 161.339,266.720 159.917 C 268.416 155.077,263.216 150.124,258.445 152.033 M151.200 160.973 C 150.430 161.257,148.945 161.878,147.900 162.354 C 146.855 162.831,145.489 163.322,144.864 163.447 C 143.650 163.690,139.600 167.098,139.600 167.876 C 139.600 168.132,139.141 168.703,138.580 169.145 C 137.760 169.789,137.329 170.877,136.389 174.674 L 135.218 179.400 135.209 222.118 C 135.201 259.211,135.281 265.189,135.817 267.518 C 136.956 272.467,137.698 274.593,138.477 275.139 C 138.902 275.437,139.418 276.120,139.622 276.657 C 139.826 277.194,140.535 277.941,141.197 278.317 C 141.860 278.692,142.502 279.311,142.625 279.691 C 142.751 280.081,143.578 280.581,144.524 280.839 C 148.281 281.862,150.000 282.483,150.000 282.816 C 150.000 283.948,153.871 284.038,197.200 283.920 L 241.400 283.800 244.000 282.519 C 245.430 281.814,247.082 281.139,247.672 281.018 C 249.256 280.694,253.816 276.247,254.597 274.265 C 254.958 273.349,255.612 272.321,256.051 271.980 C 257.494 270.858,257.581 268.709,257.590 233.923 L 257.600 199.645 256.399 198.936 C 255.739 198.546,255.097 197.906,254.972 197.513 C 254.235 195.188,250.806 195.967,249.580 198.738 C 248.828 200.439,248.800 201.648,248.800 232.796 L 248.800 265.089 247.178 268.245 C 245.160 272.171,245.519 271.852,241.563 273.237 L 238.238 274.400 197.069 274.400 C 148.267 274.400,150.546 274.581,146.875 270.411 L 144.800 268.054 144.800 222.196 L 144.800 176.338 146.096 175.069 C 146.809 174.371,147.574 173.451,147.796 173.024 C 148.018 172.597,149.280 171.791,150.600 171.233 L 153.000 170.218 182.600 170.009 C 206.230 169.841,212.482 169.689,213.600 169.255 C 217.516 167.731,217.426 164.158,213.402 161.427 L 211.888 160.400 182.244 160.428 C 159.077 160.450,152.294 160.569,151.200 160.973 " stroke="none" fill="#e4e4e4" fill-rule="evenodd"></path><path id="path1" d="M271.800 136.145 C 266.807 138.488,263.310 144.907,265.242 148.181 C 266.185 149.779,266.005 151.047,264.897 150.606 C 261.095 149.093,257.202 149.871,254.376 152.708 C 251.888 155.206,250.641 156.292,249.727 156.756 C 249.247 157.000,248.739 157.561,248.599 158.004 C 248.458 158.447,247.819 159.080,247.178 159.411 C 246.538 159.742,245.742 160.538,245.411 161.178 C 245.080 161.819,244.445 162.459,244.000 162.600 C 243.555 162.741,242.925 163.371,242.600 164.000 C 242.275 164.629,241.645 165.259,241.200 165.400 C 240.755 165.541,240.124 166.173,239.798 166.805 C 239.471 167.436,238.663 168.272,238.002 168.663 C 237.340 169.053,236.698 169.690,236.575 170.078 C 236.452 170.466,235.838 171.087,235.210 171.458 C 234.582 171.829,233.875 172.556,233.639 173.074 C 233.403 173.592,232.766 174.185,232.224 174.391 C 231.682 174.597,230.962 175.301,230.624 175.954 C 230.285 176.608,229.645 177.259,229.200 177.400 C 228.755 177.541,228.125 178.171,227.800 178.800 C 227.475 179.429,226.845 180.059,226.400 180.200 C 225.955 180.341,225.315 180.992,224.976 181.646 C 224.638 182.300,223.950 183.022,223.447 183.251 C 222.944 183.481,222.244 184.156,221.891 184.753 C 221.539 185.350,220.809 186.074,220.269 186.363 C 219.730 186.652,219.091 187.322,218.849 187.852 C 218.608 188.382,217.966 188.985,217.424 189.191 C 216.882 189.397,216.162 190.101,215.824 190.754 C 215.485 191.408,214.845 192.059,214.400 192.200 C 213.955 192.341,213.337 192.949,213.026 193.550 C 212.715 194.152,211.993 194.857,211.422 195.117 C 210.851 195.377,210.211 196.045,210.000 196.600 C 209.789 197.155,209.192 197.803,208.674 198.039 C 208.156 198.275,207.444 198.956,207.091 199.553 C 206.739 200.150,206.009 200.874,205.469 201.163 C 204.930 201.452,204.296 202.109,204.062 202.625 C 203.827 203.140,203.100 203.838,202.446 204.176 C 201.792 204.515,201.143 205.148,201.005 205.585 C 200.866 206.022,200.274 206.609,199.688 206.889 C 199.103 207.170,198.405 207.839,198.137 208.375 C 197.870 208.912,197.192 209.592,196.631 209.886 C 196.069 210.180,195.340 210.943,195.009 211.582 C 194.679 212.221,194.059 212.854,193.631 212.990 C 193.110 213.155,192.571 214.084,192.002 215.793 C 191.534 217.199,190.976 218.408,190.762 218.479 C 190.122 218.693,189.224 221.805,188.949 224.761 C 188.672 227.737,189.673 229.639,191.482 229.575 C 192.065 229.554,192.035 229.483,191.321 229.195 C 188.840 228.196,188.793 223.446,191.219 218.900 C 191.869 217.683,192.400 216.350,192.400 215.939 C 192.400 215.003,194.984 212.152,201.300 206.118 C 201.905 205.540,202.400 204.917,202.400 204.733 C 202.400 204.550,202.668 204.400,202.996 204.400 C 203.324 204.400,203.999 203.779,204.496 203.019 C 204.993 202.260,205.805 201.454,206.300 201.228 C 206.795 201.002,207.200 200.646,207.200 200.437 C 207.200 200.228,207.459 199.819,207.776 199.529 C 210.106 197.391,220.000 187.409,220.000 187.196 C 220.000 187.049,220.434 186.730,220.965 186.489 C 221.496 186.247,222.037 185.723,222.167 185.324 C 222.297 184.926,223.033 184.193,223.802 183.696 C 224.571 183.199,225.200 182.539,225.200 182.230 C 225.200 181.920,225.379 181.607,225.597 181.533 C 226.049 181.382,237.009 170.638,237.487 169.878 C 237.659 169.604,238.295 169.066,238.900 168.681 C 239.505 168.296,240.000 167.716,240.000 167.391 C 240.000 167.066,240.135 166.799,240.300 166.798 C 240.542 166.797,248.820 158.965,254.600 153.269 C 258.508 149.419,265.127 149.549,266.847 153.510 C 267.202 154.330,267.787 155.681,268.147 156.514 C 268.888 158.231,268.982 159.200,268.408 159.200 C 268.192 159.200,267.893 159.695,267.744 160.300 C 267.374 161.803,266.470 163.124,265.628 163.391 C 265.243 163.513,264.683 164.072,264.383 164.632 C 264.083 165.192,263.348 165.940,262.750 166.293 C 262.152 166.646,261.430 167.370,261.145 167.902 C 260.861 168.433,260.140 169.121,259.542 169.430 C 258.945 169.739,258.341 170.355,258.200 170.800 C 258.059 171.245,257.455 171.861,256.858 172.170 C 256.260 172.479,255.533 173.177,255.242 173.722 C 254.950 174.266,254.266 174.950,253.722 175.242 C 253.177 175.533,252.479 176.260,252.170 176.858 C 251.861 177.455,251.286 178.046,250.891 178.171 C 250.496 178.296,249.876 178.903,249.512 179.518 C 249.148 180.134,248.434 180.861,247.925 181.135 C 247.416 181.408,246.593 182.255,246.096 183.016 C 245.599 183.777,244.929 184.400,244.607 184.400 C 244.284 184.400,243.748 184.927,243.415 185.572 C 243.081 186.216,242.451 186.857,242.013 186.996 C 241.575 187.135,240.912 187.764,240.541 188.393 C 240.169 189.022,239.430 189.770,238.898 190.055 C 238.367 190.339,237.679 191.060,237.370 191.658 C 237.061 192.255,236.447 192.858,236.004 192.999 C 235.562 193.139,235.200 193.399,235.200 193.577 C 235.200 193.755,234.025 195.047,232.588 196.450 C 231.151 197.852,229.666 199.315,229.288 199.700 C 228.910 200.085,228.278 200.715,227.884 201.100 C 227.491 201.485,226.771 202.223,226.284 202.740 C 225.798 203.258,225.058 203.978,224.640 204.340 C 224.222 204.703,223.569 205.338,223.190 205.750 C 222.441 206.564,221.718 207.296,220.550 208.424 C 220.138 208.822,218.450 210.611,216.800 212.398 C 210.178 219.574,204.190 225.251,202.415 226.039 C 201.433 226.474,200.353 227.078,200.015 227.380 C 199.458 227.877,196.534 228.566,193.400 228.938 C 192.610 229.031,192.831 229.101,194.045 229.140 C 196.746 229.228,200.038 228.504,200.985 227.614 C 201.439 227.187,202.476 226.560,203.289 226.221 C 204.970 225.518,217.600 213.051,217.600 212.094 C 217.600 211.893,218.054 211.522,218.608 211.269 C 219.162 211.017,219.789 210.355,220.000 209.800 C 220.211 209.245,220.818 208.592,221.348 208.351 C 221.878 208.109,222.551 207.466,222.842 206.922 C 223.133 206.377,223.870 205.674,224.479 205.359 C 225.088 205.044,225.844 204.288,226.159 203.679 C 226.474 203.070,227.177 202.333,227.722 202.042 C 228.266 201.751,228.909 201.078,229.151 200.548 C 229.392 200.018,230.045 199.411,230.600 199.200 C 231.155 198.989,231.807 198.382,232.049 197.852 C 232.291 197.322,232.910 196.696,233.425 196.461 C 233.940 196.227,234.638 195.500,234.976 194.846 C 235.315 194.192,235.955 193.541,236.400 193.400 C 236.845 193.259,237.475 192.629,237.800 192.000 C 238.125 191.371,238.744 190.745,239.176 190.608 C 239.607 190.471,240.323 189.772,240.766 189.054 C 241.210 188.337,242.026 187.507,242.580 187.211 C 243.134 186.914,243.692 186.339,243.822 185.932 C 243.951 185.524,244.581 184.920,245.222 184.589 C 245.862 184.258,246.664 183.450,247.004 182.793 C 247.343 182.137,247.892 181.600,248.224 181.600 C 248.556 181.600,249.194 180.978,249.643 180.218 C 250.091 179.457,250.807 178.725,251.233 178.589 C 251.660 178.454,252.275 177.829,252.600 177.200 C 252.925 176.571,253.544 175.945,253.976 175.808 C 254.407 175.671,255.123 174.972,255.566 174.254 C 256.010 173.537,256.826 172.707,257.380 172.411 C 257.934 172.114,258.489 171.550,258.614 171.156 C 258.739 170.762,259.431 170.075,260.152 169.630 C 260.873 169.184,261.670 168.365,261.923 167.810 C 262.176 167.254,262.659 166.800,262.997 166.800 C 263.335 166.800,263.951 166.242,264.366 165.560 C 264.781 164.878,265.661 163.991,266.322 163.589 C 267.065 163.137,267.627 162.389,267.794 161.629 C 267.942 160.953,268.209 160.400,268.386 160.400 C 269.881 160.400,269.939 158.448,268.527 155.618 C 267.543 153.645,267.224 152.616,267.507 152.333 C 268.154 151.686,269.495 152.327,269.768 153.414 C 270.175 155.037,274.634 154.887,276.137 153.200 C 276.725 152.540,277.471 152.000,277.794 152.000 C 278.117 152.000,278.700 151.505,279.089 150.900 C 279.478 150.295,280.382 149.239,281.098 148.553 C 283.584 146.171,282.956 138.442,280.125 136.588 C 278.649 135.620,273.502 135.347,271.800 136.145 M278.786 136.719 C 281.189 137.900,282.000 139.600,282.000 143.458 L 282.000 146.798 280.400 148.497 C 279.520 149.431,278.800 150.317,278.800 150.465 C 278.800 150.613,278.125 151.146,277.300 151.649 C 276.475 152.152,275.550 152.907,275.245 153.328 C 274.529 154.313,271.358 154.060,270.397 152.940 C 269.647 152.065,268.216 151.202,267.505 151.196 C 266.788 151.190,265.452 147.318,265.477 145.315 C 265.497 143.696,267.588 139.600,268.394 139.600 C 268.565 139.600,269.276 139.015,269.973 138.300 C 272.181 136.037,276.002 135.352,278.786 136.719 M150.200 159.394 C 149.980 159.471,149.130 159.646,148.312 159.783 C 147.493 159.920,146.323 160.447,145.712 160.955 C 145.100 161.463,144.100 162.000,143.490 162.149 C 142.489 162.394,140.035 164.632,137.141 167.938 C 136.558 168.604,135.773 170.105,135.395 171.274 C 135.018 172.444,134.415 173.850,134.055 174.400 C 133.460 175.309,133.390 179.611,133.293 221.688 L 133.187 267.977 134.837 271.888 C 135.776 274.113,136.900 276.116,137.444 276.533 C 137.970 276.937,138.400 277.509,138.400 277.806 C 138.400 278.103,138.985 278.758,139.700 279.262 C 140.415 279.766,141.317 280.574,141.705 281.059 C 142.093 281.543,142.939 282.055,143.586 282.197 C 144.233 282.339,145.203 282.802,145.742 283.226 C 148.303 285.240,148.038 285.231,197.854 285.111 C 246.813 284.994,246.800 284.994,246.800 283.284 C 246.800 283.121,247.741 282.654,248.891 282.245 C 250.092 281.819,251.508 280.928,252.219 280.151 C 252.900 279.408,253.674 278.800,253.940 278.800 C 254.206 278.800,254.891 277.720,255.464 276.400 C 256.036 275.080,256.656 274.000,256.842 274.000 C 258.884 274.000,259.200 268.522,259.198 233.210 C 259.195 197.963,259.312 199.499,256.402 196.480 C 253.485 193.453,250.140 193.822,248.242 197.379 C 247.779 198.247,247.175 199.205,246.900 199.508 C 246.509 199.938,246.400 207.079,246.400 232.366 C 246.400 268.600,246.456 267.843,243.601 270.273 C 241.177 272.336,241.529 272.320,197.627 272.362 C 152.181 272.404,149.993 272.314,149.188 270.371 C 148.930 269.748,148.296 268.962,147.779 268.623 C 146.022 267.472,146.005 267.006,146.002 222.197 C 146.000 177.524,145.992 177.718,147.848 175.734 C 148.482 175.057,149.270 174.120,149.600 173.652 C 150.635 172.185,154.231 172.016,184.634 172.008 L 213.469 172.000 215.356 170.530 C 216.934 169.300,219.200 165.864,219.200 164.700 C 219.200 164.578,218.136 163.335,216.836 161.939 L 214.472 159.400 182.536 159.327 C 164.971 159.286,150.420 159.317,150.200 159.394 M213.240 160.066 C 215.840 160.956,218.110 163.947,217.744 166.000 C 217.360 168.155,216.985 168.630,214.450 170.170 L 212.095 171.600 183.380 171.600 C 150.983 171.600,150.269 171.648,148.533 173.924 C 147.925 174.720,147.120 175.680,146.743 176.057 C 145.593 177.207,145.557 178.794,145.681 223.935 C 145.798 267.108,145.810 267.679,146.600 268.337 C 147.040 268.703,147.883 269.650,148.474 270.441 C 150.264 272.837,149.516 272.800,196.594 272.800 C 247.254 272.800,243.474 273.197,246.155 267.600 L 247.400 265.000 247.509 232.291 L 247.618 199.583 248.803 197.656 C 249.719 196.168,250.342 195.624,251.541 195.265 C 253.749 194.603,253.671 194.573,256.148 197.070 L 258.400 199.340 258.390 233.970 C 258.380 269.497,258.302 271.400,256.795 273.005 C 256.379 273.448,255.681 274.619,255.244 275.608 C 254.293 277.757,250.838 280.881,248.343 281.847 C 247.384 282.218,246.240 282.832,245.800 283.211 C 245.336 283.611,243.690 284.090,241.884 284.350 C 237.567 284.973,153.692 284.983,150.791 284.361 C 146.124 283.360,140.852 280.203,138.513 277.011 C 138.026 276.345,137.346 275.419,137.002 274.954 C 136.659 274.488,135.798 272.508,135.089 270.554 L 133.800 267.000 133.800 222.400 L 133.800 177.800 135.111 173.859 C 136.828 168.702,141.056 163.461,144.400 162.346 C 145.170 162.089,146.217 161.608,146.726 161.276 C 149.063 159.756,150.925 159.669,181.840 159.634 C 203.724 159.609,212.250 159.726,213.240 160.066 " stroke="none" fill="#5c7464" fill-rule="evenodd"></path><path id="path2" d="M272.521 136.530 C 271.817 136.789,270.671 137.585,269.973 138.300 C 269.276 139.015,268.565 139.600,268.394 139.600 C 267.588 139.600,265.497 143.696,265.477 145.315 C 265.452 147.318,266.788 151.190,267.505 151.196 C 268.216 151.202,269.647 152.065,270.397 152.940 C 271.358 154.060,274.529 154.313,275.245 153.328 C 275.550 152.907,276.475 152.152,277.300 151.649 C 278.125 151.146,278.800 150.613,278.800 150.465 C 278.800 150.317,279.520 149.431,280.400 148.497 L 282.000 146.798 282.000 143.458 C 282.000 137.449,277.994 134.522,272.521 136.530 M277.661 137.233 C 280.788 138.906,282.244 145.575,279.898 147.471 C 279.402 147.872,278.672 148.703,278.277 149.318 C 277.882 149.933,277.135 150.597,276.617 150.793 C 276.100 150.990,275.309 151.545,274.860 152.028 C 273.934 153.021,272.456 152.655,269.269 150.643 C 265.781 148.442,265.987 143.292,269.681 140.322 C 270.585 139.595,271.637 138.705,272.018 138.345 C 273.665 136.786,275.976 136.331,277.661 137.233 M257.394 151.243 C 256.517 151.707,255.260 152.619,254.600 153.269 C 248.820 158.965,240.542 166.797,240.300 166.798 C 240.135 166.799,240.000 167.066,240.000 167.391 C 240.000 167.716,239.505 168.296,238.900 168.681 C 238.295 169.066,237.659 169.604,237.487 169.878 C 237.009 170.638,226.049 181.382,225.597 181.533 C 225.379 181.607,225.200 181.920,225.200 182.230 C 225.200 182.539,224.579 183.199,223.819 183.696 C 223.060 184.193,222.254 185.005,222.028 185.500 C 221.802 185.995,221.446 186.400,221.237 186.400 C 221.028 186.400,220.619 186.659,220.329 186.976 C 217.998 189.516,208.199 199.200,207.958 199.200 C 207.791 199.200,207.536 199.571,207.392 200.024 C 207.248 200.478,206.741 201.027,206.265 201.244 C 205.789 201.461,204.993 202.260,204.496 203.019 C 203.999 203.779,203.324 204.400,202.996 204.400 C 202.668 204.400,202.400 204.550,202.400 204.733 C 202.400 204.917,201.905 205.540,201.300 206.118 C 194.984 212.152,192.400 215.003,192.400 215.939 C 192.400 216.350,191.869 217.683,191.219 218.900 C 188.140 224.671,188.854 229.097,192.832 228.884 C 195.916 228.720,199.296 228.009,200.015 227.374 C 200.353 227.075,201.433 226.474,202.415 226.039 C 204.190 225.251,210.178 219.574,216.800 212.398 C 218.450 210.611,220.138 208.822,220.550 208.424 C 220.963 208.026,221.593 207.400,221.950 207.034 C 222.308 206.668,223.023 205.971,223.540 205.484 C 224.058 204.998,224.778 204.258,225.140 203.840 C 225.503 203.422,226.115 202.792,226.500 202.440 C 227.189 201.810,227.930 201.081,229.288 199.700 C 229.666 199.315,231.151 197.852,232.588 196.450 C 234.025 195.047,235.200 193.755,235.200 193.577 C 235.200 193.399,235.562 193.139,236.004 192.999 C 236.447 192.858,237.061 192.255,237.370 191.658 C 237.679 191.060,238.367 190.339,238.898 190.055 C 239.430 189.770,240.169 189.022,240.541 188.393 C 240.912 187.764,241.575 187.135,242.013 186.996 C 242.451 186.857,243.081 186.216,243.415 185.572 C 243.748 184.927,244.284 184.400,244.607 184.400 C 244.929 184.400,245.597 183.784,246.090 183.031 C 246.584 182.278,247.449 181.389,248.013 181.056 C 248.576 180.723,249.283 179.992,249.583 179.432 C 249.883 178.872,250.461 178.308,250.868 178.178 C 251.276 178.049,251.861 177.455,252.170 176.858 C 252.479 176.260,253.177 175.533,253.722 175.242 C 254.266 174.950,254.950 174.266,255.242 173.722 C 255.533 173.177,256.260 172.479,256.858 172.170 C 257.455 171.861,258.059 171.245,258.200 170.800 C 258.341 170.355,258.945 169.739,259.542 169.430 C 260.140 169.121,260.867 168.423,261.158 167.878 C 261.450 167.334,262.130 166.652,262.669 166.363 C 263.209 166.074,263.948 165.334,264.312 164.718 C 264.676 164.103,265.278 163.502,265.651 163.384 C 266.472 163.123,267.377 161.790,267.744 160.300 C 267.893 159.695,268.192 159.200,268.408 159.200 C 268.982 159.200,268.888 158.231,268.147 156.514 C 267.787 155.681,267.202 154.330,266.847 153.510 C 265.630 150.707,260.660 149.515,257.394 151.243 M263.353 152.155 C 265.966 153.246,267.676 157.189,266.720 159.917 C 266.221 161.339,258.882 169.200,258.052 169.200 C 257.855 169.200,257.600 169.558,257.485 169.997 C 257.370 170.435,256.721 171.110,256.041 171.497 C 255.361 171.883,254.804 172.342,254.803 172.515 C 254.799 172.976,240.852 186.800,240.391 186.800 C 240.176 186.800,240.000 186.987,240.000 187.215 C 240.000 187.741,226.117 201.600,225.591 201.600 C 225.376 201.600,225.200 201.813,225.200 202.074 C 225.200 202.734,223.574 204.400,222.930 204.400 C 222.639 204.400,222.400 204.577,222.400 204.793 C 222.400 205.010,220.285 207.349,217.700 209.992 C 215.115 212.635,212.100 215.781,211.000 216.982 C 209.900 218.183,208.685 219.276,208.300 219.410 C 207.915 219.544,207.600 219.860,207.600 220.111 C 207.600 220.782,203.111 224.793,202.356 224.797 C 202.002 224.799,201.102 225.212,200.356 225.715 C 197.410 227.701,191.827 228.556,190.606 227.206 C 189.769 226.282,190.164 223.504,191.402 221.600 C 191.904 220.830,192.700 218.921,193.172 217.357 C 193.830 215.180,194.262 214.409,195.016 214.066 C 195.557 213.819,196.000 213.428,196.000 213.197 C 196.000 212.966,197.215 211.609,198.700 210.182 C 200.185 208.755,201.553 207.428,201.740 207.233 C 201.927 207.039,202.402 206.572,202.795 206.195 C 203.509 205.510,204.824 204.202,206.050 202.959 C 206.407 202.597,207.060 201.940,207.500 201.500 C 208.327 200.673,208.662 200.343,210.465 198.574 C 211.050 197.999,211.732 197.320,211.981 197.065 C 212.229 196.809,213.595 195.472,215.016 194.093 C 216.437 192.714,217.600 191.437,217.600 191.257 C 217.600 191.076,218.041 190.727,218.581 190.482 C 219.120 190.236,219.838 189.500,220.176 188.846 C 220.515 188.192,221.164 187.538,221.620 187.394 C 222.076 187.249,222.653 186.683,222.902 186.135 C 223.152 185.588,223.858 184.880,224.471 184.563 C 225.085 184.246,225.864 183.450,226.204 182.793 C 226.543 182.137,227.094 181.600,227.429 181.600 C 227.763 181.600,228.338 181.076,228.706 180.435 C 229.074 179.794,229.887 178.967,230.513 178.597 C 231.139 178.227,231.829 177.534,232.047 177.058 C 232.264 176.581,232.989 175.876,233.659 175.492 C 234.329 175.108,234.972 174.428,235.089 173.981 C 235.206 173.534,235.806 172.907,236.422 172.588 C 237.039 172.270,237.659 171.645,237.800 171.200 C 237.941 170.755,238.581 170.120,239.222 169.789 C 239.862 169.458,240.664 168.650,241.004 167.993 C 241.343 167.337,241.882 166.800,242.201 166.800 C 242.520 166.800,243.096 166.305,243.481 165.700 C 243.866 165.095,244.413 164.455,244.696 164.277 C 245.704 163.645,249.473 159.785,249.947 158.900 C 250.212 158.405,250.623 158.000,250.861 158.000 C 251.099 158.000,252.688 156.743,254.392 155.208 C 258.518 151.488,260.302 150.880,263.353 152.155 M149.726 160.171 C 148.586 160.447,147.236 160.945,146.726 161.276 C 146.217 161.608,145.170 162.089,144.400 162.346 C 141.056 163.461,136.828 168.702,135.111 173.859 L 133.800 177.800 133.800 222.400 L 133.800 267.000 135.089 270.554 C 135.798 272.508,136.659 274.488,137.002 274.954 C 137.346 275.419,138.026 276.345,138.513 277.011 C 140.852 280.203,146.124 283.360,150.791 284.361 C 153.692 284.983,237.567 284.973,241.884 284.350 C 243.690 284.090,245.336 283.611,245.800 283.211 C 246.240 282.832,247.384 282.218,248.343 281.847 C 250.838 280.881,254.293 277.757,255.244 275.608 C 255.681 274.619,256.379 273.448,256.795 273.005 C 258.302 271.400,258.380 269.497,258.390 233.970 L 258.400 199.340 256.148 197.070 C 253.671 194.573,253.749 194.603,251.541 195.265 C 250.342 195.624,249.719 196.168,248.803 197.656 L 247.618 199.583 247.509 232.291 L 247.400 265.000 246.155 267.600 C 243.474 273.197,247.254 272.800,196.594 272.800 C 149.516 272.800,150.264 272.837,148.474 270.441 C 147.883 269.650,147.040 268.703,146.600 268.337 C 145.810 267.679,145.798 267.108,145.681 223.935 C 145.557 178.794,145.593 177.207,146.743 176.057 C 147.120 175.680,147.925 174.720,148.533 173.924 C 150.269 171.648,150.983 171.600,183.380 171.600 L 212.095 171.600 214.450 170.170 C 219.288 167.231,218.652 161.919,213.240 160.066 C 211.227 159.376,152.604 159.473,149.726 160.171 M213.402 161.427 C 217.426 164.158,217.516 167.731,213.600 169.255 C 212.482 169.689,206.230 169.841,182.600 170.009 L 153.000 170.218 150.600 171.233 C 149.280 171.791,148.018 172.597,147.796 173.024 C 147.574 173.451,146.809 174.371,146.096 175.069 L 144.800 176.338 144.800 222.196 L 144.800 268.054 146.875 270.411 C 150.546 274.581,148.267 274.400,197.069 274.400 L 238.238 274.400 241.563 273.237 C 245.519 271.852,245.160 272.171,247.178 268.245 L 248.800 265.089 248.800 232.796 C 248.800 201.648,248.828 200.439,249.580 198.738 C 250.806 195.967,254.235 195.188,254.972 197.513 C 255.097 197.906,255.739 198.546,256.399 198.936 L 257.600 199.645 257.590 233.923 C 257.581 268.709,257.494 270.858,256.051 271.980 C 255.612 272.321,254.958 273.349,254.597 274.265 C 253.816 276.247,249.256 280.694,247.672 281.018 C 247.082 281.139,245.430 281.814,244.000 282.519 L 241.400 283.800 197.200 283.920 C 153.871 284.038,150.000 283.948,150.000 282.816 C 150.000 282.483,148.281 281.862,144.524 280.839 C 143.578 280.581,142.751 280.081,142.625 279.691 C 142.502 279.311,141.860 278.692,141.197 278.317 C 140.535 277.941,139.826 277.194,139.622 276.657 C 139.418 276.120,138.902 275.437,138.477 275.139 C 137.698 274.593,136.956 272.467,135.817 267.518 C 135.281 265.189,135.201 259.211,135.209 222.118 L 135.218 179.400 136.389 174.674 C 137.329 170.877,137.760 169.789,138.580 169.145 C 139.141 168.703,139.600 168.132,139.600 167.876 C 139.600 167.098,143.650 163.690,144.864 163.447 C 145.489 163.322,146.855 162.831,147.900 162.354 C 152.229 160.382,150.882 160.458,182.244 160.428 L 211.888 160.400 213.402 161.427 " stroke="none" fill="#949c94" fill-rule="evenodd"></path><path id="path3" d="M165.546 69.866 C 165.186 69.962,164.791 70.544,164.668 71.159 L 164.445 72.276 158.963 72.551 C 152.724 72.864,152.800 72.841,152.800 74.424 L 152.800 75.600 149.033 75.600 C 144.456 75.600,144.000 75.749,144.000 77.243 C 144.000 78.430,143.500 78.661,141.400 78.444 C 139.101 78.206,138.000 78.781,138.000 80.218 L 138.000 81.600 135.000 81.600 L 132.000 81.600 132.000 83.000 L 132.000 84.400 129.633 84.400 C 126.540 84.400,126.000 84.640,126.000 86.014 C 126.000 87.091,125.896 87.154,123.700 87.400 C 120.544 87.754,120.416 87.818,120.142 89.191 C 119.930 90.250,119.732 90.400,118.550 90.400 C 117.274 90.400,117.200 90.477,117.200 91.800 C 117.200 92.643,117.001 93.208,116.700 93.219 C 112.130 93.394,111.218 93.773,111.206 95.500 C 111.201 96.261,110.983 96.400,109.800 96.400 C 108.617 96.400,108.399 96.539,108.394 97.300 C 108.384 98.679,107.738 99.400,106.513 99.400 C 105.516 99.400,105.387 99.556,105.276 100.900 C 105.158 102.319,105.077 102.400,103.776 102.400 C 102.470 102.400,102.400 102.471,102.400 103.800 C 102.400 105.157,102.353 105.200,100.861 105.200 C 99.414 105.200,99.320 105.274,99.286 106.441 C 99.243 107.961,99.023 108.200,97.664 108.200 C 96.726 108.200,96.585 108.375,96.477 109.677 C 96.362 111.065,96.265 111.162,94.877 111.277 C 93.488 111.393,93.404 111.478,93.459 112.700 C 93.519 114.023,93.476 114.053,91.400 114.159 C 90.773 114.191,90.573 114.525,90.476 115.700 C 90.358 117.119,90.277 117.200,88.976 117.200 C 87.675 117.200,87.600 117.275,87.600 118.576 C 87.600 119.877,87.519 119.958,86.100 120.076 C 84.676 120.194,84.600 120.271,84.600 121.600 C 84.600 122.895,84.495 123.015,83.200 123.200 L 81.800 123.400 81.600 126.200 L 81.400 129.000 80.239 128.875 C 78.924 128.734,78.415 129.296,78.406 130.900 C 78.401 131.779,78.215 132.000,77.480 132.000 C 76.048 132.000,75.600 132.772,75.600 135.237 C 75.600 137.602,75.307 138.000,73.567 138.000 C 72.903 138.000,72.796 138.309,72.772 140.300 C 72.736 143.270,72.467 143.800,71.000 143.800 C 69.700 143.800,69.794 143.516,69.654 147.875 C 69.603 149.459,69.530 149.556,68.300 149.675 L 67.000 149.800 66.800 154.200 L 66.600 158.600 65.200 158.600 C 63.840 158.600,63.799 158.645,63.763 160.200 C 63.742 161.080,63.697 162.995,63.663 164.455 L 63.600 167.111 62.200 167.374 L 60.800 167.636 60.800 173.418 L 60.800 179.200 59.456 179.200 C 57.589 179.200,57.599 179.029,57.650 208.200 C 57.702 237.948,57.715 238.153,59.489 238.325 L 60.778 238.449 60.889 244.110 L 61.000 249.771 62.300 250.143 C 63.710 250.547,63.852 251.083,63.638 255.201 C 63.497 257.912,64.120 259.200,65.573 259.200 L 66.765 259.200 66.882 262.100 L 67.000 265.000 68.300 265.125 C 69.577 265.248,69.601 265.287,69.643 267.325 C 69.719 271.045,69.698 270.990,71.051 271.122 C 72.383 271.251,72.785 272.258,72.796 275.500 C 72.800 276.715,72.890 276.800,74.182 276.800 L 75.565 276.800 75.682 279.700 L 75.800 282.600 77.200 282.800 C 78.437 282.977,78.603 283.140,78.625 284.200 C 78.712 288.367,78.704 288.346,80.200 288.626 C 81.473 288.865,81.600 289.012,81.600 290.245 C 81.600 291.527,81.675 291.600,83.000 291.600 C 84.050 291.600,84.411 291.775,84.443 292.300 C 84.583 294.619,84.569 294.597,86.082 294.723 L 87.565 294.846 87.682 297.523 L 87.800 300.200 89.100 300.325 C 90.165 300.428,90.400 300.622,90.400 301.397 C 90.400 302.608,91.392 303.600,92.603 303.600 C 93.378 303.600,93.572 303.835,93.675 304.900 C 93.784 306.038,93.960 306.215,95.076 306.324 C 96.182 306.431,96.369 306.615,96.476 307.701 C 96.578 308.736,96.825 309.012,97.891 309.286 C 98.894 309.544,99.256 309.906,99.514 310.909 C 99.788 311.975,100.064 312.222,101.099 312.324 C 102.185 312.431,102.369 312.618,102.476 313.724 C 102.598 314.979,102.645 315.006,105.300 315.363 C 107.473 315.655,108.000 315.863,108.000 316.430 C 108.000 317.895,108.472 318.400,109.843 318.400 C 111.127 318.400,111.200 318.475,111.200 319.800 C 111.200 321.133,111.267 321.200,112.600 321.200 C 113.748 321.200,114.000 321.349,114.000 322.026 C 114.000 323.938,114.665 324.400,117.414 324.400 L 120.000 324.400 120.000 325.800 C 120.000 327.163,120.042 327.200,121.575 327.200 C 123.059 327.200,123.157 327.275,123.275 328.500 C 123.398 329.780,123.439 329.805,126.033 330.155 C 128.517 330.489,128.686 330.579,129.033 331.755 C 129.391 332.970,129.464 333.003,132.076 333.118 L 134.752 333.235 134.876 334.518 L 135.000 335.800 137.900 335.918 C 140.586 336.026,140.800 336.100,140.806 336.918 C 140.819 338.752,141.336 338.992,145.585 339.137 C 149.154 339.260,149.600 339.356,149.600 340.005 C 149.600 341.956,149.738 342.000,155.843 342.000 L 161.600 342.000 161.600 343.357 C 161.600 345.169,161.733 345.200,169.607 345.200 L 176.349 345.200 176.475 346.500 L 176.600 347.800 196.554 347.904 C 217.657 348.014,217.600 348.018,217.600 346.151 L 217.600 345.200 224.100 345.195 C 232.112 345.188,232.400 345.124,232.400 343.366 L 232.400 342.026 236.900 341.913 L 241.400 341.800 241.524 340.513 L 241.649 339.227 245.924 339.113 L 250.200 339.000 250.324 337.500 L 250.448 336.000 253.424 336.000 L 256.400 336.000 256.400 334.618 L 256.400 333.235 259.300 333.118 L 262.200 333.000 262.324 331.718 L 262.448 330.435 265.124 330.318 L 267.800 330.200 267.923 328.717 L 268.046 327.234 270.923 327.117 L 273.800 327.000 273.924 325.723 C 274.036 324.566,274.187 324.434,275.524 324.323 C 276.912 324.207,277.007 324.111,277.123 322.718 L 277.246 321.235 279.923 321.118 L 282.600 321.000 282.725 319.700 C 282.839 318.519,282.972 318.400,284.183 318.400 C 285.536 318.400,286.000 317.888,286.000 316.393 C 286.000 315.848,286.346 315.617,287.300 315.525 C 288.483 315.411,288.611 315.267,288.723 313.923 C 288.838 312.535,288.935 312.438,290.323 312.323 C 291.661 312.212,291.812 312.080,291.924 310.924 C 292.031 309.812,292.212 309.631,293.324 309.524 C 294.484 309.411,294.611 309.263,294.724 307.900 C 294.842 306.481,294.923 306.400,296.224 306.400 C 297.525 306.400,297.600 306.325,297.600 305.024 C 297.600 303.723,297.681 303.642,299.100 303.524 C 300.463 303.411,300.611 303.284,300.724 302.124 C 300.831 301.012,301.012 300.831,302.124 300.724 C 303.284 300.611,303.411 300.463,303.524 299.100 C 303.641 297.692,303.730 297.600,304.981 297.600 C 306.341 297.600,306.800 297.089,306.800 295.575 C 306.800 295.078,307.181 294.722,307.900 294.546 C 309.387 294.182,309.587 293.777,309.594 291.100 L 309.600 288.800 311.000 288.800 C 312.333 288.800,312.400 288.733,312.400 287.400 C 312.400 286.184,312.528 286.000,313.371 286.000 C 314.985 286.000,315.600 285.005,315.600 282.397 L 315.600 280.051 316.900 279.925 L 318.200 279.800 318.317 276.923 L 318.434 274.046 319.917 273.923 L 321.400 273.800 321.518 270.900 L 321.635 268.000 323.018 268.000 L 324.400 268.000 324.400 265.024 L 324.400 262.048 325.900 261.924 L 327.400 261.800 327.513 257.524 L 327.627 253.249 328.913 253.124 L 330.200 253.000 330.313 248.724 L 330.427 244.449 331.713 244.324 L 333.000 244.200 333.109 236.900 L 333.218 229.600 334.395 229.600 C 336.386 229.600,336.400 229.451,336.400 208.506 C 336.400 187.518,336.449 188.000,334.320 188.000 L 333.200 188.000 333.200 179.680 C 333.200 170.888,333.102 170.400,331.334 170.400 C 330.455 170.400,330.424 170.268,330.314 166.100 L 330.200 161.800 328.900 161.675 L 327.600 161.549 327.577 158.875 C 327.536 154.121,327.194 153.020,325.712 152.876 L 324.434 152.752 324.317 149.876 L 324.200 147.000 322.900 146.875 L 321.600 146.749 321.600 144.407 C 321.600 141.234,321.380 140.800,319.775 140.800 L 318.435 140.800 318.318 137.900 L 318.200 135.000 316.900 134.875 C 315.710 134.760,315.600 134.633,315.600 133.375 C 315.600 132.038,315.556 132.000,314.000 132.000 L 312.400 132.000 312.400 129.000 L 312.400 126.000 311.000 126.000 C 309.675 126.000,309.600 125.927,309.600 124.643 C 309.600 123.262,309.096 122.800,307.593 122.800 C 307.048 122.800,306.817 122.454,306.725 121.500 C 306.611 120.316,306.467 120.189,305.118 120.077 L 303.635 119.954 303.518 117.290 C 303.402 114.674,303.377 114.621,302.121 114.262 C 301.079 113.964,300.821 113.666,300.721 112.648 C 300.612 111.520,300.455 111.388,299.100 111.276 C 297.692 111.159,297.600 111.070,297.600 109.819 C 297.600 108.464,297.088 108.000,295.593 108.000 C 295.048 108.000,294.817 107.654,294.725 106.700 C 294.611 105.517,294.467 105.389,293.124 105.277 C 291.787 105.166,291.636 105.034,291.524 103.877 C 291.415 102.759,291.238 102.584,290.100 102.475 C 288.954 102.364,288.800 102.209,288.800 101.165 C 288.800 99.955,287.560 99.087,286.036 99.232 C 283.352 99.487,282.800 99.242,282.800 97.800 C 282.800 96.467,282.733 96.400,281.400 96.400 C 280.075 96.400,280.000 96.327,280.000 95.043 C 280.000 93.609,279.504 93.200,277.767 93.200 C 276.967 93.200,276.800 93.000,276.800 92.043 C 276.800 90.657,276.266 90.400,273.393 90.400 C 271.268 90.400,271.250 90.389,271.125 89.100 C 271.000 87.803,270.993 87.799,268.121 87.447 C 265.279 87.099,265.241 87.079,265.121 85.847 C 265.048 85.091,264.764 84.579,264.400 84.546 C 264.070 84.517,263.406 84.472,262.925 84.446 C 262.243 84.410,262.023 84.114,261.925 83.100 L 261.800 81.800 257.523 81.687 L 253.247 81.573 253.123 80.087 C 252.989 78.470,253.327 78.609,249.145 78.454 C 247.812 78.405,247.667 78.281,247.426 77.000 L 247.164 75.600 242.782 75.600 L 238.400 75.600 238.400 74.258 L 238.400 72.916 235.700 72.661 C 234.215 72.520,231.642 72.404,229.983 72.403 L 226.965 72.400 226.583 71.100 L 226.200 69.800 196.200 69.745 C 179.700 69.715,165.906 69.769,165.546 69.866 M281.462 135.825 C 282.017 136.175,282.427 136.978,282.613 138.078 C 282.772 139.018,283.329 140.347,283.851 141.031 C 285.064 142.622,285.070 144.129,283.866 145.076 C 283.283 145.535,282.833 146.431,282.668 147.463 C 282.402 149.126,281.601 150.141,277.842 153.576 C 276.436 154.862,276.010 155.019,273.442 155.200 L 270.600 155.400 270.728 157.247 C 270.955 160.534,270.821 160.685,243.310 188.200 C 228.792 202.720,216.789 214.996,216.636 215.480 C 216.484 215.963,216.008 216.470,215.580 216.606 C 215.151 216.743,214.800 217.017,214.800 217.216 C 214.800 217.415,213.180 219.198,211.200 221.178 C 209.220 223.158,207.600 224.945,207.600 225.149 C 207.600 225.353,206.682 225.850,205.561 226.253 C 204.391 226.674,203.199 227.439,202.765 228.049 C 202.085 229.004,201.710 229.127,199.076 229.260 C 196.584 229.386,195.948 229.573,194.841 230.504 C 192.420 232.542,188.400 231.192,188.400 228.342 C 188.400 228.022,188.184 227.544,187.920 227.280 C 187.547 226.907,187.547 226.693,187.920 226.320 C 188.184 226.056,188.400 224.805,188.400 223.540 C 188.400 219.895,189.081 217.438,190.423 216.242 C 191.113 215.628,191.600 214.793,191.600 214.225 C 191.600 213.097,192.559 212.000,193.546 212.000 C 193.978 212.000,194.377 211.515,194.617 210.700 C 194.910 209.707,195.254 209.371,196.073 209.276 C 196.900 209.180,197.208 208.874,197.413 207.941 C 197.599 207.094,198.018 206.613,198.810 206.336 C 199.516 206.090,200.096 205.499,200.352 204.765 C 200.645 203.926,201.101 203.520,201.940 203.352 C 202.842 203.172,203.172 202.842,203.352 201.940 C 203.520 201.101,203.926 200.645,204.765 200.352 C 205.516 200.091,206.091 199.516,206.352 198.765 C 206.641 197.936,207.102 197.520,207.909 197.358 C 208.761 197.188,209.150 196.806,209.427 195.865 C 209.706 194.918,210.063 194.569,210.848 194.478 C 211.636 194.387,211.987 194.042,212.260 193.090 C 212.530 192.149,212.949 191.730,213.890 191.460 C 214.842 191.187,215.187 190.836,215.278 190.048 C 215.369 189.263,215.718 188.906,216.665 188.627 C 217.606 188.350,217.988 187.961,218.158 187.109 C 218.320 186.302,218.736 185.841,219.565 185.552 C 220.316 185.291,220.891 184.716,221.152 183.965 C 221.445 183.126,221.901 182.720,222.740 182.552 C 223.642 182.372,223.972 182.042,224.152 181.140 C 224.320 180.301,224.726 179.845,225.565 179.552 C 226.299 179.296,226.890 178.716,227.136 178.010 C 227.413 177.218,227.894 176.799,228.741 176.613 C 229.674 176.408,229.980 176.100,230.076 175.273 C 230.170 174.461,230.508 174.109,231.465 173.827 C 232.406 173.550,232.788 173.161,232.958 172.309 C 233.120 171.502,233.536 171.041,234.365 170.752 C 235.116 170.491,235.691 169.916,235.952 169.165 C 236.245 168.326,236.701 167.920,237.540 167.752 C 238.442 167.572,238.772 167.242,238.952 166.340 C 239.120 165.501,239.526 165.045,240.365 164.752 C 241.099 164.496,241.690 163.916,241.936 163.210 C 242.210 162.424,242.694 161.999,243.520 161.818 C 244.429 161.618,244.764 161.278,244.946 160.370 C 245.129 159.455,245.454 159.129,246.369 158.946 C 247.277 158.765,247.584 158.462,247.678 157.656 C 247.765 156.908,248.198 156.416,249.170 155.958 C 249.924 155.604,250.681 154.934,250.853 154.470 C 251.024 154.005,251.778 153.369,252.528 153.056 C 253.414 152.686,253.982 152.125,254.150 151.457 C 254.345 150.679,254.797 150.324,256.004 149.999 C 256.902 149.757,257.600 149.324,257.600 149.008 C 257.600 148.190,258.349 147.840,260.600 147.607 L 262.600 147.400 262.707 145.800 C 262.886 143.114,263.165 142.438,264.352 141.825 C 265.080 141.448,265.578 140.808,265.729 140.054 C 265.911 139.145,266.291 138.766,267.383 138.406 C 268.308 138.100,268.800 137.688,268.800 137.218 C 268.800 135.036,278.518 133.967,281.462 135.825 M215.785 159.149 C 216.680 159.341,217.061 159.716,217.337 160.680 C 217.578 161.520,217.991 161.999,218.542 162.079 C 219.779 162.258,220.462 163.884,220.188 166.000 C 219.837 168.707,219.655 169.099,218.636 169.355 C 218.112 169.487,217.491 170.097,217.224 170.743 C 216.261 173.066,217.350 172.990,183.286 173.114 L 151.972 173.228 150.386 174.862 C 149.514 175.761,148.800 176.690,148.800 176.926 C 148.800 177.163,148.305 177.873,147.700 178.504 L 146.600 179.653 146.600 222.390 L 146.600 265.128 147.700 265.993 C 148.305 266.469,148.800 267.125,148.800 267.452 C 148.800 267.779,149.611 268.846,150.602 269.823 L 152.405 271.600 195.752 271.600 C 242.660 271.600,241.488 271.642,242.080 269.942 C 242.388 269.058,242.728 268.800,243.583 268.800 C 245.191 268.800,245.193 268.768,245.197 231.481 L 245.200 198.363 246.337 197.710 C 246.970 197.347,247.636 196.512,247.837 195.829 C 248.116 194.886,248.464 194.570,249.332 194.470 C 249.975 194.397,250.940 193.808,251.564 193.110 C 252.804 191.722,254.541 191.753,254.991 193.172 C 255.125 193.595,255.846 194.302,256.593 194.743 C 257.340 195.183,258.253 196.141,258.622 196.872 C 258.991 197.602,259.678 198.619,260.147 199.132 L 261.000 200.064 261.112 232.732 C 261.229 266.666,261.138 268.800,259.567 268.800 C 259.365 268.800,259.200 269.440,259.200 270.223 C 259.200 272.775,258.364 275.202,257.186 276.073 C 256.579 276.522,255.976 277.418,255.847 278.064 C 255.684 278.879,255.273 279.356,254.501 279.625 C 253.870 279.845,253.162 280.528,252.861 281.206 C 252.490 282.046,252.052 282.400,251.387 282.400 C 250.867 282.400,249.937 282.874,249.321 283.453 C 246.917 285.711,249.673 285.600,196.239 285.600 C 144.704 285.600,145.154 285.616,144.331 283.808 C 144.027 283.140,143.549 282.800,142.916 282.800 C 141.560 282.800,139.796 281.799,138.874 280.506 C 138.441 279.898,137.436 278.712,136.643 277.872 C 135.679 276.850,135.200 275.964,135.200 275.200 C 135.200 274.122,134.330 272.800,133.620 272.800 C 132.451 272.800,132.390 269.982,132.494 221.462 L 132.600 172.324 133.629 171.462 C 134.195 170.988,134.873 169.847,135.137 168.926 C 135.430 167.902,136.234 166.666,137.207 165.745 C 138.082 164.916,138.897 163.926,139.018 163.545 C 139.139 163.164,140.084 162.543,141.119 162.166 C 142.153 161.789,143.450 160.977,144.000 160.360 C 144.640 159.643,145.505 159.183,146.400 159.084 C 148.788 158.818,214.530 158.880,215.785 159.149 M170.900 377.873 C 170.625 377.979,170.400 378.670,170.400 379.408 C 170.400 380.629,170.283 380.761,169.100 380.875 L 167.800 381.000 167.686 385.300 L 167.573 389.600 164.586 389.600 L 161.600 389.600 161.600 392.711 L 161.600 395.821 160.000 395.669 C 158.429 395.519,158.400 395.488,158.400 393.933 C 158.400 392.665,158.261 392.364,157.700 392.421 C 155.872 392.607,155.600 392.423,155.600 391.000 L 155.600 389.600 140.796 389.600 L 125.992 389.600 126.096 407.300 L 126.200 425.000 131.800 425.000 L 137.400 425.000 137.506 413.100 L 137.612 401.200 139.206 401.200 C 140.761 401.200,140.800 401.166,140.800 399.800 L 140.800 398.400 143.800 398.400 L 146.800 398.400 146.800 399.800 C 146.800 401.133,146.867 401.200,148.200 401.200 L 149.600 401.200 149.646 412.500 C 149.672 418.715,149.717 424.070,149.746 424.400 C 149.791 424.903,150.735 425.000,155.600 425.000 L 161.400 425.000 161.504 411.600 L 161.609 398.200 164.599 398.331 L 167.589 398.463 167.695 411.731 L 167.800 425.000 173.500 425.111 L 179.200 425.222 179.200 411.811 L 179.200 398.400 183.600 398.400 L 188.000 398.400 188.000 394.000 L 188.000 389.600 183.600 389.600 L 179.200 389.600 179.200 388.000 L 179.200 386.400 184.967 386.400 C 189.206 386.400,190.787 386.268,190.935 385.900 C 191.096 385.500,191.143 385.500,191.168 385.900 C 191.187 386.199,191.764 386.400,192.600 386.400 C 193.912 386.400,194.000 386.481,194.003 387.700 C 194.004 388.415,194.049 397.100,194.103 407.000 L 194.200 425.000 199.545 425.112 C 206.272 425.253,206.000 425.467,206.000 420.031 L 206.000 415.761 207.400 415.924 C 208.494 416.052,208.810 416.275,208.846 416.944 C 208.872 417.415,208.917 418.070,208.946 418.400 C 208.981 418.792,209.520 419.043,210.500 419.124 C 211.919 419.242,212.000 419.323,212.000 420.624 C 212.000 421.930,212.071 422.000,213.400 422.000 C 214.572 422.000,214.808 422.147,214.846 422.900 C 214.872 423.395,214.917 424.070,214.946 424.400 C 214.988 424.869,214.345 425.044,212.000 425.200 L 209.000 425.400 209.000 429.600 L 209.000 433.800 210.500 433.924 C 211.919 434.042,212.000 434.123,212.000 435.424 L 212.000 436.800 225.200 436.800 L 238.400 436.800 238.400 435.424 C 238.400 434.123,238.481 434.042,239.900 433.924 C 241.319 433.807,241.407 433.719,241.524 432.300 C 241.642 430.881,241.723 430.800,243.024 430.800 L 244.400 430.800 244.400 410.200 L 244.400 389.600 229.661 389.600 L 214.922 389.600 214.886 390.841 C 214.841 392.425,214.996 392.332,212.020 392.580 C 208.933 392.837,208.959 392.796,208.819 397.656 C 208.806 398.102,208.355 398.364,207.412 398.474 L 206.025 398.636 205.912 394.221 L 205.800 389.806 204.600 389.551 C 203.446 389.304,203.440 389.293,204.450 389.247 C 205.765 389.188,206.000 388.208,206.000 382.779 C 206.000 377.488,206.199 377.638,199.190 377.648 C 196.114 377.653,193.027 377.820,192.330 378.020 C 191.554 378.243,190.887 378.238,190.610 378.008 C 190.155 377.630,171.848 377.504,170.900 377.873 M54.800 382.195 L 54.800 383.600 52.633 383.600 C 49.972 383.600,49.200 383.872,49.200 384.810 C 49.200 386.205,48.721 386.800,47.600 386.800 C 46.259 386.800,46.000 387.356,46.000 390.233 C 46.000 392.212,45.922 392.401,45.100 392.406 C 43.092 392.420,43.037 392.632,42.885 400.877 C 42.697 411.113,42.968 412.957,44.686 413.124 L 45.965 413.248 46.082 415.910 C 46.198 418.537,46.217 418.578,47.504 418.945 C 48.491 419.228,48.885 419.619,49.128 420.559 C 49.442 421.775,49.503 421.802,52.124 421.918 L 54.800 422.037 54.800 423.375 C 54.800 425.234,54.551 425.200,68.353 425.200 C 81.558 425.200,81.600 425.193,81.600 423.120 C 81.600 422.107,81.733 422.000,83.000 422.000 C 84.333 422.000,84.400 421.933,84.400 420.600 C 84.400 419.333,84.507 419.200,85.520 419.200 C 86.136 419.200,86.856 418.984,87.120 418.720 C 87.493 418.347,87.600 418.347,87.600 418.720 C 87.600 419.002,88.178 419.200,89.000 419.200 C 90.333 419.200,90.400 419.267,90.400 420.600 C 90.400 421.958,90.446 422.000,91.945 422.000 C 93.377 422.000,93.475 422.073,93.297 423.002 C 92.889 425.138,93.223 425.204,104.149 425.153 C 116.042 425.097,116.518 425.031,116.800 423.397 C 116.974 422.388,117.226 422.169,118.403 422.000 C 119.623 421.825,119.815 421.642,119.921 420.552 C 120.021 419.534,120.279 419.236,121.321 418.937 L 122.600 418.570 122.600 407.185 L 122.600 395.800 121.300 395.675 C 120.119 395.561,120.000 395.428,120.000 394.217 C 120.000 392.811,119.495 392.400,117.767 392.400 C 116.961 392.400,116.800 392.202,116.800 391.208 C 116.800 389.569,116.706 389.558,104.200 389.688 L 93.400 389.800 93.275 391.100 C 93.151 392.380,92.655 392.658,90.900 392.430 C 90.572 392.387,90.400 392.920,90.400 393.982 C 90.400 395.564,90.369 395.600,89.000 395.600 C 87.667 395.600,87.600 395.667,87.600 397.000 C 87.600 398.276,87.498 398.400,86.449 398.400 C 84.934 398.400,84.308 399.228,84.420 401.084 C 84.470 401.918,84.487 404.400,84.457 406.600 L 84.402 410.600 81.651 410.469 L 78.901 410.338 78.632 411.769 L 78.364 413.200 75.582 413.200 L 72.800 413.200 72.800 414.600 L 72.800 416.000 68.200 416.000 L 63.600 416.000 63.600 414.600 L 63.600 413.200 60.618 413.200 L 57.635 413.200 57.518 410.300 L 57.400 407.400 56.100 407.275 L 54.800 407.149 54.800 402.775 L 54.800 398.400 56.200 398.400 L 57.600 398.400 57.600 395.400 L 57.600 392.400 60.600 392.400 L 63.600 392.400 63.600 391.000 L 63.600 389.600 68.200 389.600 L 72.800 389.600 72.800 391.000 L 72.800 392.400 75.555 392.400 L 78.311 392.400 78.565 393.756 C 79.076 396.476,84.400 396.321,84.400 393.586 C 84.400 392.504,84.519 392.400,85.757 392.400 C 87.310 392.400,87.603 391.933,87.594 389.467 C 87.586 387.373,87.318 386.970,85.700 386.618 C 84.542 386.367,84.400 386.187,84.400 384.968 C 84.400 383.676,84.324 383.600,83.025 383.600 C 81.767 383.600,81.640 383.490,81.525 382.300 L 81.400 381.000 68.100 380.895 L 54.800 380.789 54.800 382.195 M250.495 404.289 L 250.600 419.000 252.057 419.122 C 253.417 419.235,253.510 419.328,253.457 420.522 C 253.404 421.719,253.494 421.808,254.877 421.923 C 256.265 422.038,256.362 422.135,256.477 423.523 L 256.600 425.000 271.200 425.000 L 285.800 425.000 285.904 407.289 L 286.008 389.579 280.104 389.689 C 274.526 389.794,274.197 389.844,274.143 390.600 C 274.111 391.040,274.066 396.305,274.043 402.300 L 274.000 413.200 272.600 413.200 C 271.267 413.200,271.200 413.267,271.200 414.600 L 271.200 416.000 268.225 416.000 L 265.251 416.000 265.125 414.700 C 265.015 413.558,264.842 413.385,263.706 413.275 L 262.412 413.150 262.306 401.475 L 262.200 389.800 256.295 389.689 L 250.390 389.579 250.495 404.289 M292.096 407.294 L 292.200 425.000 297.800 425.000 L 303.400 425.000 303.506 413.124 L 303.612 401.248 305.106 401.124 C 306.462 401.011,306.611 400.882,306.724 399.725 L 306.847 398.449 311.224 398.325 L 315.602 398.200 315.601 399.700 L 315.600 401.200 317.900 401.225 C 319.684 401.245,319.998 401.332,319.300 401.612 C 318.644 401.876,318.400 402.303,318.400 403.187 C 318.400 404.307,318.292 404.400,317.000 404.400 C 315.667 404.400,315.600 404.467,315.600 405.800 C 315.600 406.913,315.443 407.200,314.833 407.200 C 312.848 407.200,312.800 407.341,312.800 413.200 C 312.800 419.059,312.848 419.200,314.833 419.200 C 315.443 419.200,315.600 419.487,315.600 420.600 C 315.600 421.965,315.640 422.000,317.190 422.000 C 318.755 422.000,318.776 422.020,318.532 423.240 C 318.363 424.087,318.461 424.593,318.842 424.834 C 319.539 425.275,346.813 425.306,347.506 424.867 C 347.900 424.617,347.988 421.685,347.906 411.573 L 347.800 398.600 346.517 398.476 L 345.234 398.352 345.117 395.476 L 345.000 392.600 343.700 392.659 C 342.547 392.711,342.399 392.598,342.394 391.659 C 342.382 389.543,342.606 389.580,330.173 389.694 L 318.600 389.800 318.602 391.069 C 318.606 393.302,315.790 393.237,315.536 390.999 L 315.400 389.800 303.696 389.694 L 291.992 389.588 292.096 407.294 M351.296 407.300 L 351.400 425.000 357.100 425.111 L 362.800 425.222 362.800 413.211 L 362.800 401.200 364.400 401.200 C 365.962 401.200,366.000 401.167,366.000 399.800 L 366.000 398.400 370.400 398.400 L 374.800 398.400 374.800 394.000 L 374.800 389.600 362.996 389.600 L 351.192 389.600 351.296 407.300 M108.075 399.700 C 108.189 400.887,108.331 401.011,109.700 401.124 L 111.200 401.248 111.200 407.224 L 111.200 413.200 109.843 413.200 C 108.456 413.200,108.000 413.703,108.000 415.233 C 108.000 415.914,107.694 416.000,105.258 416.000 L 102.516 416.000 102.145 414.700 C 101.840 413.630,101.551 413.378,100.511 413.276 C 99.414 413.169,99.231 412.985,99.124 411.876 C 99.015 410.760,98.838 410.584,97.700 410.475 L 96.400 410.349 96.400 407.375 C 96.400 404.709,96.480 404.400,97.167 404.400 C 98.697 404.400,99.200 403.944,99.200 402.557 C 99.200 401.276,99.278 401.200,100.582 401.200 C 101.844 401.200,101.986 401.079,102.226 399.800 L 102.489 398.400 105.219 398.400 L 107.949 398.400 108.075 399.700 M229.647 399.300 C 229.673 399.795,229.668 400.414,229.636 400.675 C 229.601 400.950,230.213 401.203,231.088 401.275 L 232.600 401.400 232.716 406.400 C 232.861 412.699,232.764 413.114,231.099 413.275 C 230.299 413.352,229.779 413.630,229.746 414.000 C 229.717 414.330,229.672 414.915,229.646 415.300 C 229.607 415.900,229.174 416.000,226.625 416.000 L 223.651 416.000 223.525 414.700 C 223.416 413.562,223.240 413.385,222.124 413.276 C 221.012 413.169,220.831 412.988,220.724 411.876 C 220.611 410.716,220.463 410.589,219.100 410.476 L 217.600 410.352 217.600 407.376 C 217.600 404.492,217.630 404.400,218.571 404.400 C 219.805 404.400,220.800 403.417,220.800 402.197 C 220.800 401.422,221.035 401.228,222.100 401.125 C 223.243 401.015,223.415 400.843,223.525 399.700 L 223.651 398.400 226.625 398.400 C 229.429 398.400,229.603 398.452,229.647 399.300 M333.400 399.800 L 333.400 401.200 328.900 401.200 L 324.400 401.200 324.400 399.800 L 324.400 398.400 328.900 398.400 L 333.400 398.400 333.400 399.800 M336.400 411.776 C 336.400 413.077,336.319 413.158,334.900 413.276 C 333.486 413.393,333.403 413.474,333.459 414.700 L 333.518 416.000 330.626 416.000 L 327.734 416.000 327.305 414.600 C 327.053 413.780,327.025 413.108,327.238 412.977 C 327.437 412.854,327.600 412.223,327.600 411.576 L 327.600 410.400 332.000 410.400 L 336.400 410.400 336.400 411.776 M229.800 426.600 L 229.800 428.000 225.300 428.000 C 221.131 428.000,220.800 427.944,220.800 427.233 C 220.800 426.811,220.691 426.181,220.557 425.833 C 220.344 425.278,220.897 425.200,225.057 425.200 L 229.800 425.200 229.800 426.600 M111.200 456.200 L 111.200 457.600 109.100 457.643 C 105.279 457.720,105.411 457.662,105.276 459.300 C 105.158 460.719,105.077 460.800,103.776 460.800 C 102.475 460.800,102.400 460.875,102.400 462.176 C 102.400 463.477,102.319 463.558,100.900 463.676 C 99.221 463.815,99.308 463.506,99.232 469.642 C 99.200 472.270,99.193 472.286,97.900 472.656 L 96.600 473.028 96.484 476.554 C 96.358 480.379,96.670 481.200,98.249 481.200 C 99.238 481.200,99.516 483.162,99.225 488.069 C 99.131 489.638,99.899 490.400,101.574 490.400 C 102.251 490.400,102.400 490.652,102.400 491.800 C 102.400 493.133,102.467 493.200,103.800 493.200 C 105.133 493.200,105.200 493.267,105.200 494.600 L 105.200 496.000 108.200 496.000 L 111.200 496.000 111.200 497.600 L 111.200 499.200 123.000 499.200 L 134.800 499.200 134.800 497.618 L 134.800 496.035 137.700 495.918 L 140.600 495.800 140.600 491.600 C 140.600 487.127,140.712 487.360,138.500 487.246 C 137.747 487.208,137.600 486.972,137.600 485.800 L 137.600 484.400 134.800 484.400 L 132.000 484.400 132.000 485.800 C 132.000 486.972,131.853 487.208,131.100 487.246 C 129.179 487.345,128.999 487.425,128.959 488.200 C 128.839 490.565,129.283 490.400,123.024 490.400 L 117.248 490.400 117.124 488.900 C 117.043 487.920,116.792 487.381,116.400 487.346 C 116.070 487.317,115.395 487.272,114.900 487.246 C 114.147 487.208,114.000 486.972,114.000 485.800 C 114.000 484.467,113.933 484.400,112.600 484.400 L 111.200 484.400 111.200 477.025 L 111.200 469.651 112.500 469.525 C 113.687 469.411,113.811 469.269,113.924 467.900 C 114.045 466.442,114.092 466.400,115.624 466.400 C 117.158 466.400,117.200 466.363,117.200 465.000 L 117.200 463.600 123.000 463.600 C 129.237 463.600,129.042 463.530,128.821 465.700 C 128.764 466.263,129.067 466.400,130.375 466.400 C 131.956 466.400,132.000 466.437,132.000 467.757 C 132.000 469.290,132.470 469.600,134.800 469.600 C 137.130 469.600,137.600 469.290,137.600 467.757 C 137.600 466.440,137.648 466.400,139.200 466.400 L 140.800 466.400 140.800 476.320 C 140.800 486.817,140.866 487.200,142.680 487.200 C 143.589 487.200,143.957 489.316,143.612 492.554 C 143.370 494.818,143.990 496.000,145.418 496.000 C 146.722 496.000,146.800 496.076,146.800 497.357 C 146.800 498.226,147.028 498.802,147.433 498.957 C 148.259 499.274,177.741 499.274,178.567 498.957 C 179.105 498.751,179.205 497.775,179.232 492.457 C 179.249 489.016,179.354 486.425,179.465 486.700 C 179.576 486.975,180.282 487.200,181.033 487.200 L 182.400 487.200 182.400 490.200 L 182.400 493.200 183.800 493.200 C 185.133 493.200,185.200 493.267,185.200 494.600 C 185.200 495.923,185.274 496.000,186.549 496.000 C 187.814 496.000,187.914 496.100,188.155 497.606 L 188.411 499.212 200.106 499.106 L 211.800 499.000 211.924 497.500 C 212.042 496.078,212.121 496.000,213.438 496.000 L 214.827 496.000 214.714 491.700 L 214.600 487.400 209.974 487.282 C 204.412 487.140,203.200 487.481,203.200 489.190 L 203.200 490.400 200.200 490.400 L 197.200 490.400 197.194 489.300 C 197.186 487.839,196.628 487.027,195.840 487.329 C 194.689 487.771,194.000 487.183,194.000 485.757 L 194.000 484.400 205.800 484.400 L 217.600 484.400 217.600 478.374 L 217.600 472.349 216.300 472.474 L 215.000 472.600 214.800 469.813 L 214.600 467.026 213.100 466.673 C 211.809 466.370,211.600 466.165,211.600 465.203 C 211.600 463.612,211.509 463.600,199.410 463.600 C 187.599 463.600,188.000 463.525,188.000 465.737 C 188.000 466.454,187.770 466.607,186.700 466.604 C 185.486 466.600,185.392 466.699,185.276 468.100 C 185.158 469.519,185.077 469.600,183.776 469.600 L 182.400 469.600 182.400 472.600 L 182.400 475.600 181.000 475.600 C 180.192 475.600,179.564 475.811,179.515 476.100 C 179.469 476.375,179.334 473.720,179.215 470.200 L 179.000 463.800 173.300 463.689 L 167.600 463.578 167.600 473.965 L 167.600 484.352 166.100 484.476 C 164.686 484.593,164.603 484.674,164.659 485.900 C 164.709 487.009,164.582 487.200,163.792 487.200 C 162.097 487.200,161.600 487.618,161.600 489.043 L 161.600 490.400 158.616 490.400 L 155.631 490.400 155.516 477.385 C 155.418 466.338,155.309 464.313,154.800 463.991 C 154.016 463.496,142.380 463.498,141.600 463.994 C 141.089 464.318,140.970 463.885,140.800 461.088 C 140.576 457.398,141.040 457.786,136.700 457.657 C 134.806 457.600,134.800 457.596,134.800 456.200 L 134.800 454.800 123.000 454.800 L 111.200 454.800 111.200 456.200 M262.400 459.200 L 262.400 463.600 259.400 463.600 L 256.400 463.600 256.400 466.711 L 256.400 469.821 254.822 469.671 C 253.327 469.528,253.237 469.443,253.122 468.060 C 253.008 466.690,252.920 466.604,251.700 466.659 C 250.446 466.716,250.400 466.663,250.400 465.159 L 250.400 463.600 235.600 463.600 L 220.800 463.600 220.800 481.411 L 220.800 499.222 226.500 499.111 L 232.200 499.000 232.306 487.324 L 232.412 475.648 233.906 475.524 C 235.318 475.407,235.407 475.317,235.524 473.900 L 235.648 472.400 238.624 472.400 L 241.600 472.400 241.600 473.757 C 241.600 475.144,242.103 475.600,243.633 475.600 C 244.369 475.600,244.402 476.042,244.459 486.500 C 244.492 492.495,244.537 497.760,244.559 498.200 C 244.598 498.961,244.880 499.000,250.400 499.000 L 256.200 499.000 256.305 485.700 L 256.411 472.400 259.405 472.400 L 262.400 472.400 262.400 484.200 L 262.400 496.000 263.776 496.000 C 265.077 496.000,265.158 496.081,265.276 497.500 L 265.400 499.000 273.400 499.121 C 283.519 499.274,285.590 499.063,285.627 497.871 L 285.654 497.000 286.081 497.884 C 286.694 499.152,288.032 499.252,302.600 499.118 L 315.400 499.000 315.400 483.015 L 315.400 467.030 313.923 466.681 C 312.646 466.379,312.429 466.159,312.323 465.066 L 312.200 463.800 299.885 463.694 C 286.874 463.582,286.000 463.688,286.000 465.370 C 286.000 466.126,285.729 466.362,284.624 466.569 C 283.444 466.790,283.226 467.010,283.088 468.114 C 283.000 468.821,282.899 468.095,282.864 466.500 L 282.800 463.600 278.400 463.600 L 274.000 463.600 274.000 459.200 L 274.000 454.800 268.200 454.800 L 262.400 454.800 262.400 459.200 M284.601 472.400 C 285.873 472.400,285.959 472.487,286.076 473.900 C 286.188 475.258,286.319 475.412,287.458 475.522 C 288.391 475.613,288.759 475.875,288.886 476.537 C 289.162 477.979,288.818 478.400,287.367 478.400 C 286.071 478.400,286.000 478.473,286.000 479.800 C 286.000 481.085,285.903 481.200,284.814 481.200 C 283.144 481.200,282.800 482.118,282.800 486.574 L 282.800 490.400 278.400 490.400 L 274.000 490.400 274.000 481.400 L 274.000 472.400 278.400 472.400 L 282.800 472.400 282.864 471.100 L 282.928 469.800 283.089 471.100 C 283.236 472.278,283.377 472.400,284.601 472.400 M202.800 473.226 C 202.800 473.681,202.986 474.401,203.214 474.826 C 203.613 475.572,203.458 475.598,198.914 475.553 C 196.321 475.527,194.738 475.390,195.395 475.250 C 196.165 475.085,196.636 474.710,196.719 474.197 C 196.997 472.466,197.118 472.400,199.987 472.400 C 202.563 472.400,202.800 472.470,202.800 473.226 M303.712 473.475 C 304.098 475.491,303.859 475.600,299.047 475.600 L 294.579 475.600 294.731 474.000 L 294.884 472.400 299.195 472.400 L 303.507 472.400 303.712 473.475 M303.659 485.900 C 303.793 487.308,303.730 487.405,302.631 487.489 C 301.329 487.589,300.815 488.155,300.806 489.500 C 300.800 490.353,300.643 490.400,297.800 490.400 L 294.800 490.400 294.800 488.800 C 294.800 487.238,294.833 487.200,296.200 487.200 C 297.533 487.200,297.600 487.133,297.600 485.800 L 297.600 484.400 300.558 484.400 L 303.516 484.400 303.659 485.900 " stroke="none" fill="#143c34" fill-rule="evenodd"></path><path id="path4" d="M274.105 135.487 C 274.714 135.579,275.614 135.577,276.105 135.482 C 276.597 135.387,276.100 135.311,275.000 135.314 C 273.900 135.317,273.497 135.395,274.105 135.487 M271.210 135.895 C 270.579 136.143,266.000 140.641,266.000 141.012 C 266.000 141.135,267.033 140.210,268.295 138.958 C 269.557 137.706,271.132 136.445,271.795 136.157 C 272.951 135.653,272.426 135.417,271.210 135.895 M278.600 135.893 C 279.847 136.205,281.526 137.537,281.813 138.441 C 281.956 138.891,282.153 139.180,282.251 139.082 C 283.039 138.294,280.073 135.550,278.538 135.646 C 277.882 135.688,277.889 135.715,278.600 135.893 M282.501 141.800 C 282.505 142.680,282.587 142.993,282.683 142.495 C 282.779 141.998,282.775 141.278,282.675 140.895 C 282.575 140.513,282.496 140.920,282.501 141.800 M264.919 142.500 C 263.300 144.276,263.296 147.595,264.912 148.460 C 265.758 148.913,265.760 148.904,265.085 147.874 C 264.165 146.469,264.221 144.583,265.233 142.947 C 266.198 141.385,266.084 141.222,264.919 142.500 M281.000 148.588 C 279.594 150.008,277.917 152.498,278.936 151.653 C 279.284 151.364,279.675 150.793,279.805 150.384 C 279.935 149.975,280.392 149.530,280.821 149.393 C 281.506 149.176,282.686 147.662,282.332 147.453 C 282.260 147.410,281.660 147.921,281.000 148.588 M257.140 150.256 C 255.763 150.879,254.725 151.647,254.453 152.244 C 254.209 152.779,253.579 153.380,253.052 153.580 C 252.525 153.781,251.688 154.542,251.193 155.272 L 250.292 156.600 251.591 155.400 C 252.305 154.740,253.556 153.531,254.371 152.714 C 256.520 150.557,258.883 149.603,261.380 149.884 C 263.864 150.164,263.698 149.804,261.192 149.477 C 259.767 149.291,258.910 149.455,257.140 150.256 M265.498 149.689 C 265.335 150.113,264.929 150.276,264.324 150.158 C 263.417 149.981,263.418 149.985,264.368 150.401 C 265.421 150.862,266.210 150.431,265.918 149.555 C 265.796 149.187,265.676 149.225,265.498 149.689 M268.721 153.241 C 268.821 153.928,268.709 154.400,268.445 154.400 C 268.200 154.400,268.000 154.190,268.000 153.933 C 268.000 153.677,267.906 153.561,267.791 153.676 C 267.676 153.791,268.150 154.946,268.844 156.242 C 270.065 158.524,270.148 158.443,269.525 155.575 C 269.429 155.134,270.052 154.947,272.200 154.771 L 275.000 154.541 272.508 154.471 C 270.229 154.406,269.994 154.317,269.772 153.429 C 269.406 151.972,268.511 151.812,268.721 153.241 M275.881 153.437 C 275.486 153.967,275.329 154.400,275.532 154.400 C 276.051 154.400,276.904 153.304,276.738 152.850 C 276.662 152.643,276.277 152.907,275.881 153.437 M248.200 158.000 C 247.859 158.660,247.669 159.200,247.779 159.200 C 247.889 159.200,248.259 158.660,248.600 158.000 C 248.941 157.340,249.131 156.800,249.021 156.800 C 248.911 156.800,248.541 157.340,248.200 158.000 M268.895 159.863 C 267.901 160.979,267.818 161.200,268.391 161.200 C 268.823 161.200,270.202 159.269,269.950 159.016 C 269.862 158.929,269.388 159.310,268.895 159.863 M147.024 159.620 C 146.378 159.813,145.426 160.428,144.908 160.986 C 143.709 162.279,144.133 162.296,145.654 161.016 C 146.297 160.475,147.493 159.920,148.312 159.783 C 150.433 159.429,150.782 159.263,149.400 159.266 C 148.740 159.268,147.671 159.427,147.024 159.620 M213.800 159.484 C 214.240 159.589,215.304 160.333,216.165 161.137 L 217.730 162.600 216.837 161.299 C 215.844 159.853,214.820 159.177,213.726 159.246 C 213.101 159.286,213.111 159.319,213.800 159.484 M245.798 160.002 C 244.775 161.132,245.210 161.237,246.286 160.120 C 246.773 159.614,247.026 159.200,246.848 159.200 C 246.670 159.200,246.197 159.561,245.798 160.002 M140.701 163.500 C 139.766 164.325,138.867 165.206,138.704 165.457 C 138.541 165.709,137.776 166.671,137.004 167.595 C 136.232 168.520,135.606 169.484,135.614 169.738 C 135.622 169.992,135.847 169.830,136.114 169.377 C 137.014 167.853,141.450 163.136,142.600 162.481 C 143.040 162.230,143.176 162.019,142.901 162.012 C 142.627 162.005,141.637 162.675,140.701 163.500 M243.289 162.623 C 242.800 162.965,242.400 163.450,242.400 163.699 C 242.400 163.949,242.625 163.871,242.900 163.526 C 243.175 163.181,243.760 162.703,244.200 162.462 C 244.640 162.221,244.815 162.019,244.589 162.012 C 244.363 162.005,243.778 162.280,243.289 162.623 M218.342 163.631 C 219.294 164.518,219.241 165.369,218.126 167.135 C 217.402 168.282,217.846 168.898,218.628 167.830 C 220.002 165.950,219.523 162.800,217.863 162.800 C 217.635 162.800,217.851 163.174,218.342 163.631 M266.200 163.627 C 265.540 164.050,265.205 164.397,265.456 164.398 C 265.706 164.399,266.336 164.046,266.856 163.613 C 268.045 162.623,267.759 162.629,266.200 163.627 M239.634 166.440 C 239.219 167.122,238.322 168.019,237.640 168.434 C 236.958 168.849,236.400 169.369,236.400 169.590 C 236.400 170.227,238.387 168.488,240.555 165.955 C 240.910 165.540,241.017 165.200,240.794 165.200 C 240.571 165.200,240.049 165.758,239.634 166.440 M260.800 169.132 C 259.894 170.015,259.883 170.064,260.678 169.651 C 261.160 169.401,261.673 169.005,261.818 168.771 C 262.310 167.975,261.802 168.155,260.800 169.132 M215.453 170.414 C 214.382 171.286,213.760 172.000,214.072 172.000 C 214.383 172.000,215.341 171.280,216.200 170.400 C 218.168 168.385,217.939 168.389,215.453 170.414 M258.727 171.000 C 258.477 171.550,258.165 172.004,258.036 172.009 C 257.906 172.014,257.350 172.385,256.800 172.833 L 255.800 173.648 257.093 173.017 C 258.180 172.487,260.083 170.000,259.402 170.000 C 259.281 170.000,258.978 170.450,258.727 171.000 M234.100 172.000 C 233.715 172.440,233.085 173.160,232.700 173.600 C 232.315 174.040,232.176 174.400,232.391 174.400 C 232.606 174.400,233.098 173.905,233.485 173.300 C 233.872 172.695,234.461 171.981,234.794 171.713 C 235.128 171.445,235.265 171.220,235.100 171.213 C 234.935 171.206,234.485 171.560,234.100 172.000 M133.971 173.304 L 133.000 175.000 132.881 221.400 C 132.756 269.790,132.756 269.801,134.444 271.947 C 135.442 273.215,135.399 272.930,134.193 270.298 L 133.187 268.099 133.293 221.750 L 133.400 175.400 134.350 173.683 C 134.873 172.739,135.220 171.886,135.121 171.788 C 135.023 171.689,134.505 172.372,133.971 173.304 M169.300 172.300 C 177.385 172.360,190.615 172.360,198.700 172.300 C 206.785 172.239,200.170 172.190,184.000 172.190 C 167.830 172.190,161.215 172.239,169.300 172.300 M149.046 174.300 C 148.516 175.125,147.704 176.113,147.241 176.496 C 146.779 176.879,146.400 177.491,146.400 177.855 C 146.400 178.500,147.218 177.546,149.185 174.608 C 149.624 173.953,150.302 173.290,150.691 173.136 C 151.353 172.875,151.354 172.854,150.705 172.828 C 150.321 172.813,149.579 173.471,149.046 174.300 M254.901 175.040 C 254.406 175.604,254.211 175.996,254.467 175.911 C 254.898 175.767,256.280 173.991,255.949 174.007 C 255.867 174.011,255.395 174.476,254.901 175.040 M252.615 177.172 C 252.281 177.816,251.633 178.462,251.174 178.608 C 250.715 178.754,250.428 178.961,250.536 179.069 C 250.933 179.466,252.410 178.341,253.006 177.188 C 253.344 176.535,253.531 176.000,253.421 176.000 C 253.311 176.000,252.948 176.527,252.615 177.172 M228.900 177.196 C 228.185 177.632,227.600 178.171,227.600 178.394 C 227.600 178.617,227.931 178.485,228.335 178.100 C 228.739 177.715,229.414 177.186,229.835 176.924 C 230.256 176.661,230.510 176.437,230.400 176.425 C 230.290 176.413,229.615 176.760,228.900 177.196 M146.193 222.200 C 146.193 246.180,146.241 256.049,146.300 244.131 C 146.359 232.213,146.359 212.593,146.300 200.531 C 146.241 188.469,146.193 198.220,146.193 222.200 M224.757 181.382 C 224.309 182.143,223.595 182.875,223.171 183.009 C 222.746 183.144,222.196 183.647,221.948 184.127 C 221.517 184.960,221.531 184.969,222.248 184.328 C 224.599 182.227,226.522 180.000,225.987 180.000 C 225.759 180.000,225.206 180.622,224.757 181.382 M243.927 185.800 C 243.677 186.350,243.365 186.804,243.236 186.809 C 243.106 186.814,242.550 187.185,242.000 187.633 L 241.000 188.448 242.293 187.817 C 243.380 187.287,245.283 184.800,244.602 184.800 C 244.481 184.800,244.178 185.250,243.927 185.800 M219.300 186.800 C 218.915 187.240,218.285 187.960,217.900 188.400 C 217.515 188.840,217.376 189.200,217.591 189.200 C 217.806 189.200,218.298 188.705,218.685 188.100 C 219.072 187.495,219.661 186.781,219.994 186.513 C 220.328 186.245,220.465 186.020,220.300 186.013 C 220.135 186.006,219.685 186.360,219.300 186.800 M240.101 189.840 C 239.606 190.404,239.411 190.796,239.667 190.711 C 240.098 190.567,241.480 188.791,241.149 188.807 C 241.067 188.811,240.595 189.276,240.101 189.840 M237.800 192.000 C 237.459 192.660,237.038 193.200,236.866 193.200 C 236.694 193.200,236.204 193.479,235.776 193.819 C 235.086 194.371,235.142 194.370,236.293 193.813 C 237.362 193.295,239.290 190.800,238.621 190.800 C 238.511 190.800,238.141 191.340,237.800 192.000 M214.305 191.826 C 213.703 192.153,212.935 193.001,212.599 193.710 C 212.263 194.420,212.216 194.656,212.494 194.235 C 213.156 193.234,214.086 192.315,215.035 191.724 C 216.122 191.046,215.609 191.118,214.305 191.826 M249.746 194.868 C 249.276 195.095,248.682 195.758,248.427 196.341 L 247.962 197.400 248.881 196.310 C 249.386 195.710,250.250 195.047,250.800 194.835 C 251.350 194.624,251.530 194.451,251.200 194.452 C 250.870 194.453,250.216 194.640,249.746 194.868 M256.410 196.488 C 257.517 197.637,258.581 199.122,258.775 199.788 C 258.971 200.461,259.144 200.677,259.164 200.274 C 259.229 198.954,255.781 194.400,254.715 194.400 C 254.541 194.400,255.303 195.340,256.410 196.488 M234.114 195.880 C 233.627 196.386,233.374 196.800,233.552 196.800 C 233.942 196.800,235.398 195.245,235.164 195.077 C 235.074 195.013,234.601 195.374,234.114 195.880 M209.600 196.723 C 209.600 196.974,209.082 197.447,208.448 197.775 C 207.815 198.102,207.174 198.690,207.024 199.080 C 206.765 199.757,206.786 199.757,207.476 199.091 C 207.874 198.706,208.650 198.049,209.200 197.630 C 209.750 197.211,210.065 196.733,209.900 196.568 C 209.735 196.402,209.600 196.472,209.600 196.723 M246.715 198.966 C 246.081 199.429,246.020 201.903,245.883 232.633 C 245.802 250.875,245.612 266.340,245.462 267.000 C 245.311 267.660,245.457 267.390,245.788 266.400 C 246.301 264.860,246.389 259.944,246.394 232.329 C 246.399 203.127,246.462 199.996,247.048 199.410 C 247.858 198.599,247.631 198.296,246.715 198.966 M229.319 200.300 C 228.934 200.905,228.435 201.523,228.210 201.673 C 226.584 202.755,226.224 203.227,227.493 202.613 C 228.205 202.268,229.056 201.466,229.385 200.829 C 229.714 200.193,230.212 199.580,230.492 199.468 C 230.874 199.314,230.878 199.255,230.509 199.232 C 230.239 199.214,229.704 199.695,229.319 200.300 M204.400 201.600 C 203.960 202.040,203.600 202.562,203.600 202.760 C 203.600 202.959,202.970 203.493,202.200 203.947 C 201.430 204.401,200.800 204.959,200.800 205.187 C 200.800 205.712,202.837 203.965,205.098 201.500 C 205.988 200.530,205.383 200.617,204.400 201.600 M259.390 234.000 C 259.390 251.270,259.440 258.335,259.500 249.700 C 259.560 241.065,259.560 226.935,259.500 218.300 C 259.440 209.665,259.390 216.730,259.390 234.000 M225.314 204.680 C 224.827 205.186,224.574 205.600,224.752 205.600 C 225.142 205.600,226.598 204.045,226.364 203.877 C 226.274 203.813,225.801 204.174,225.314 204.680 M222.988 206.713 C 222.627 207.324,221.806 208.126,221.165 208.494 C 220.524 208.862,220.014 209.396,220.032 209.681 C 220.057 210.094,220.105 210.096,220.268 209.692 C 220.380 209.412,220.993 208.914,221.629 208.585 C 222.266 208.256,223.064 207.450,223.404 206.793 C 224.182 205.287,223.866 205.226,222.988 206.713 M198.262 207.531 C 197.898 207.934,197.600 208.452,197.600 208.683 C 197.600 208.914,197.073 209.321,196.429 209.588 C 195.310 210.052,194.546 211.079,194.991 211.524 C 195.106 211.639,195.200 211.517,195.200 211.253 C 195.200 210.989,195.830 210.401,196.600 209.947 C 197.370 209.493,198.000 208.928,198.000 208.692 C 198.000 208.456,198.298 207.934,198.662 207.531 C 199.026 207.129,199.234 206.800,199.124 206.800 C 199.014 206.800,198.626 207.129,198.262 207.531 M193.532 212.612 C 192.573 213.133,191.235 215.768,191.696 216.229 C 191.793 216.326,192.088 215.684,192.352 214.803 C 192.616 213.921,192.970 213.200,193.140 213.200 C 193.309 213.200,193.796 212.936,194.224 212.613 C 195.211 211.866,194.906 211.866,193.532 212.612 M216.112 213.985 C 212.461 217.997,204.603 225.702,203.856 226.004 C 203.085 226.315,203.076 226.352,203.763 226.375 C 204.564 226.401,214.630 216.723,215.007 215.564 C 215.120 215.214,215.651 214.694,216.185 214.408 C 217.009 213.967,217.866 212.815,217.509 212.628 C 217.449 212.597,216.821 213.207,216.112 213.985 M190.713 217.500 C 189.666 218.701,189.252 219.793,189.072 221.831 C 188.976 222.914,188.978 223.440,189.076 223.000 C 189.665 220.348,190.086 219.223,190.798 218.402 C 191.516 217.575,191.837 216.800,191.462 216.800 C 191.386 216.800,191.049 217.115,190.713 217.500 M201.331 227.340 C 200.709 227.858,199.930 228.384,199.600 228.509 C 199.119 228.692,199.138 228.743,199.694 228.768 C 200.075 228.786,200.975 228.265,201.694 227.612 C 203.243 226.202,202.957 225.988,201.331 227.340 M188.884 228.053 C 189.333 229.400,191.032 230.083,192.842 229.644 L 194.600 229.218 192.677 229.404 C 191.014 229.566,190.617 229.453,189.736 228.573 C 189.176 228.013,188.793 227.779,188.884 228.053 M146.413 266.740 C 146.406 267.036,146.908 267.756,147.528 268.340 C 148.149 268.923,148.864 269.760,149.116 270.200 C 149.369 270.640,149.581 270.778,149.588 270.507 C 149.595 270.236,149.148 269.516,148.596 268.907 C 148.044 268.298,147.330 267.440,147.009 267.000 C 146.641 266.496,146.421 266.399,146.413 266.740 M258.893 267.600 C 258.893 268.370,258.975 268.685,259.076 268.300 C 259.176 267.915,259.176 267.285,259.076 266.900 C 258.975 266.515,258.893 266.830,258.893 267.600 M243.505 269.629 C 243.123 269.852,242.604 270.432,242.353 270.917 C 241.973 271.652,242.123 271.598,243.246 270.600 C 243.989 269.940,244.672 269.355,244.765 269.300 C 244.857 269.245,244.768 269.205,244.567 269.212 C 244.365 269.219,243.887 269.407,243.505 269.629 M152.500 271.876 C 152.885 271.976,153.515 271.976,153.900 271.876 C 154.285 271.775,153.970 271.693,153.200 271.693 C 152.430 271.693,152.115 271.775,152.500 271.876 M176.131 272.300 C 187.752 272.359,206.652 272.359,218.131 272.300 C 229.609 272.241,220.100 272.193,197.000 272.193 C 173.900 272.193,164.509 272.241,176.131 272.300 M258.032 272.300 C 258.014 272.575,257.622 273.178,257.161 273.639 C 256.334 274.466,254.205 278.800,254.625 278.800 C 254.744 278.800,255.116 278.142,255.452 277.337 C 255.788 276.533,256.608 275.196,257.275 274.367 C 257.941 273.538,258.391 272.621,258.275 272.330 C 258.118 271.938,258.055 271.930,258.032 272.300 M135.200 273.346 C 135.200 273.822,136.348 276.400,136.559 276.400 C 136.669 276.400,136.479 275.725,136.138 274.900 C 135.496 273.351,135.200 272.861,135.200 273.346 M137.752 277.373 C 138.505 278.823,142.386 282.406,143.171 282.375 C 143.590 282.358,143.514 282.234,142.943 282.003 C 142.471 281.813,141.841 281.322,141.543 280.912 C 141.244 280.503,140.415 279.757,139.700 279.256 C 138.985 278.755,138.400 278.110,138.400 277.822 C 138.400 277.534,138.129 277.073,137.797 276.798 C 137.263 276.354,137.258 276.420,137.752 277.373 M250.600 281.431 C 249.720 281.957,249.153 282.390,249.340 282.393 C 249.979 282.406,252.400 281.109,252.400 280.754 C 252.400 280.325,252.541 280.272,250.600 281.431 M145.073 283.355 C 146.224 284.323,148.742 285.215,150.200 285.171 C 150.640 285.158,150.037 284.888,148.861 284.572 C 147.684 284.255,146.265 283.637,145.707 283.198 C 144.267 282.065,143.706 282.204,145.073 283.355 M246.800 283.190 C 246.800 283.791,244.592 284.793,243.120 284.860 C 241.821 284.919,241.819 284.923,242.962 285.093 C 244.270 285.287,247.042 284.189,247.364 283.350 C 247.480 283.047,247.401 282.800,247.187 282.800 C 246.974 282.800,246.800 282.975,246.800 283.190 M174.100 285.500 C 186.145 285.559,205.855 285.559,217.900 285.500 C 229.945 285.441,220.090 285.393,196.000 285.393 C 171.910 285.393,162.055 285.441,174.100 285.500 " stroke="none" fill="#54645c" fill-rule="evenodd"></path><path id="path5" d="M271.521 135.180 C 269.752 135.524,268.800 136.237,268.800 137.218 C 268.800 137.688,268.308 138.100,267.383 138.406 C 266.291 138.766,265.911 139.145,265.729 140.054 C 265.578 140.808,265.080 141.448,264.352 141.825 C 263.165 142.438,262.886 143.114,262.707 145.800 L 262.600 147.400 260.600 147.607 C 258.349 147.840,257.600 148.190,257.600 149.008 C 257.600 149.324,256.902 149.757,256.004 149.999 C 254.797 150.324,254.345 150.679,254.150 151.457 C 253.982 152.125,253.414 152.686,252.528 153.056 C 251.778 153.369,251.024 154.005,250.853 154.470 C 250.681 154.934,249.924 155.604,249.170 155.958 C 248.198 156.416,247.765 156.908,247.678 157.656 C 247.584 158.462,247.277 158.765,246.369 158.946 C 245.454 159.129,245.129 159.455,244.946 160.370 C 244.764 161.278,244.429 161.618,243.520 161.818 C 242.694 161.999,242.210 162.424,241.936 163.210 C 241.690 163.916,241.099 164.496,240.365 164.752 C 239.526 165.045,239.120 165.501,238.952 166.340 C 238.772 167.242,238.442 167.572,237.540 167.752 C 236.701 167.920,236.245 168.326,235.952 169.165 C 235.691 169.916,235.116 170.491,234.365 170.752 C 233.536 171.041,233.120 171.502,232.958 172.309 C 232.788 173.161,232.406 173.550,231.465 173.827 C 230.508 174.109,230.170 174.461,230.076 175.273 C 229.980 176.100,229.674 176.408,228.741 176.613 C 227.894 176.799,227.413 177.218,227.136 178.010 C 226.890 178.716,226.299 179.296,225.565 179.552 C 224.726 179.845,224.320 180.301,224.152 181.140 C 223.972 182.042,223.642 182.372,222.740 182.552 C 221.901 182.720,221.445 183.126,221.152 183.965 C 220.891 184.716,220.316 185.291,219.565 185.552 C 218.736 185.841,218.320 186.302,218.158 187.109 C 217.988 187.961,217.606 188.350,216.665 188.627 C 215.718 188.906,215.369 189.263,215.278 190.048 C 215.187 190.836,214.842 191.187,213.890 191.460 C 212.949 191.730,212.530 192.149,212.260 193.090 C 211.987 194.042,211.636 194.387,210.848 194.478 C 210.063 194.569,209.706 194.918,209.427 195.865 C 209.150 196.806,208.761 197.188,207.909 197.358 C 207.102 197.520,206.641 197.936,206.352 198.765 C 206.091 199.516,205.516 200.091,204.765 200.352 C 203.926 200.645,203.520 201.101,203.352 201.940 C 203.172 202.842,202.842 203.172,201.940 203.352 C 201.092 203.522,200.645 203.926,200.341 204.796 C 200.075 205.561,199.556 206.096,198.931 206.253 C 198.387 206.390,197.775 206.940,197.571 207.477 C 197.026 208.909,197.130 209.562,197.718 208.400 C 197.996 207.850,198.723 207.160,199.334 206.868 C 199.945 206.575,200.607 205.908,200.805 205.387 C 201.003 204.865,201.701 204.162,202.354 203.824 C 203.008 203.485,203.659 202.845,203.800 202.400 C 203.941 201.955,204.581 201.320,205.222 200.989 C 205.862 200.658,206.658 199.862,206.989 199.222 C 207.320 198.581,207.940 197.946,208.367 197.811 C 208.793 197.675,209.509 196.943,209.957 196.182 C 210.406 195.422,211.044 194.800,211.376 194.800 C 211.708 194.800,212.257 194.263,212.596 193.607 C 212.936 192.950,213.750 192.136,214.407 191.796 C 215.063 191.457,215.600 190.908,215.600 190.576 C 215.600 190.244,216.222 189.606,216.982 189.157 C 217.743 188.709,218.475 187.993,218.611 187.567 C 218.746 187.140,219.381 186.520,220.022 186.189 C 220.662 185.858,221.458 185.062,221.789 184.422 C 222.120 183.781,222.755 183.141,223.200 183.000 C 223.645 182.859,224.285 182.208,224.624 181.554 C 224.962 180.901,225.683 180.197,226.226 179.990 C 226.770 179.783,227.383 179.170,227.590 178.626 C 227.797 178.083,228.513 177.355,229.183 177.009 C 229.852 176.663,230.400 176.108,230.400 175.776 C 230.400 175.444,231.022 174.806,231.782 174.357 C 232.543 173.909,233.270 173.208,233.400 172.800 C 233.530 172.392,234.257 171.691,235.018 171.243 C 235.778 170.794,236.400 170.145,236.400 169.800 C 236.400 169.455,237.002 168.818,237.737 168.384 C 238.472 167.950,239.280 167.143,239.532 166.590 C 239.784 166.037,240.446 165.411,241.002 165.199 C 241.559 164.988,242.193 164.345,242.411 163.771 C 242.634 163.184,243.330 162.530,244.004 162.276 C 244.662 162.028,245.200 161.532,245.200 161.174 C 245.200 160.448,246.414 159.200,247.121 159.200 C 247.373 159.200,247.852 158.673,248.185 158.028 C 248.519 157.384,249.137 156.747,249.560 156.613 C 249.983 156.478,250.804 155.746,251.385 154.984 C 251.966 154.223,252.710 153.600,253.039 153.600 C 253.368 153.600,253.944 153.065,254.319 152.410 C 255.792 149.838,262.115 148.541,264.874 150.245 C 265.808 150.823,265.581 149.074,264.605 148.169 C 263.224 146.890,263.461 144.189,265.138 142.100 C 269.402 136.787,271.146 135.592,275.400 135.068 C 276.138 134.977,275.907 134.915,274.800 134.906 C 273.810 134.898,272.334 135.021,271.521 135.180 M278.200 135.572 C 280.230 135.918,281.464 136.704,281.993 137.989 C 282.641 139.565,283.051 143.652,282.716 145.200 C 282.549 145.970,282.315 147.101,282.195 147.714 C 282.074 148.336,281.584 149.007,281.084 149.234 C 280.593 149.458,279.890 150.166,279.522 150.806 C 279.155 151.447,278.392 152.087,277.827 152.229 C 277.262 152.371,276.800 152.715,276.800 152.994 C 276.800 154.014,275.451 154.570,272.459 154.783 C 270.009 154.957,269.429 155.119,269.547 155.600 C 270.184 158.188,270.071 159.565,269.149 160.489 C 268.627 161.011,267.971 161.942,267.691 162.557 C 267.411 163.173,266.646 163.878,265.991 164.126 C 265.272 164.397,264.800 164.863,264.800 165.301 C 264.800 165.707,264.182 166.392,263.400 166.853 C 262.630 167.307,262.000 167.937,262.000 168.253 C 262.000 168.569,261.378 169.194,260.618 169.643 C 259.857 170.091,259.121 170.817,258.982 171.257 C 258.843 171.696,258.187 172.385,257.524 172.788 C 256.862 173.190,255.981 174.078,255.566 174.760 C 255.151 175.442,254.557 176.000,254.245 176.000 C 253.934 176.000,253.311 176.624,252.861 177.387 C 252.399 178.169,251.597 178.886,251.021 179.030 C 250.369 179.194,250.000 179.565,250.000 180.057 C 250.000 180.513,249.429 181.164,248.600 181.653 C 247.830 182.107,247.200 182.734,247.200 183.045 C 247.200 183.357,246.642 183.951,245.960 184.366 C 245.278 184.781,244.390 185.662,243.988 186.324 C 243.585 186.987,242.896 187.643,242.457 187.782 C 242.017 187.921,241.291 188.657,240.843 189.418 C 240.394 190.178,239.756 190.800,239.424 190.800 C 239.092 190.800,238.543 191.337,238.204 191.993 C 237.864 192.650,237.050 193.464,236.393 193.804 C 235.737 194.143,235.200 194.658,235.200 194.948 C 235.200 195.664,233.892 196.800,233.069 196.800 C 232.663 196.800,232.400 197.120,232.400 197.613 C 232.400 198.117,231.874 198.738,231.018 199.243 C 230.257 199.691,229.521 200.417,229.382 200.857 C 229.243 201.296,228.585 201.986,227.920 202.390 C 227.255 202.795,226.502 203.544,226.248 204.055 C 225.993 204.566,225.366 205.193,224.855 205.448 C 224.344 205.702,223.595 206.455,223.190 207.120 C 222.786 207.785,222.096 208.443,221.657 208.582 C 221.217 208.721,220.491 209.457,220.043 210.218 C 219.565 211.026,218.910 211.600,218.463 211.600 C 217.948 211.600,217.627 211.963,217.476 212.718 C 217.348 213.360,216.816 214.070,216.226 214.386 C 215.662 214.688,215.200 215.104,215.200 215.310 C 215.200 216.043,204.988 226.034,204.000 226.267 C 203.450 226.397,202.531 226.938,201.958 227.471 C 201.385 228.003,200.395 228.594,199.758 228.785 C 198.660 229.113,198.687 229.133,200.273 229.166 C 201.664 229.194,202.078 229.014,202.734 228.093 C 203.200 227.438,204.354 226.687,205.561 226.253 C 206.682 225.850,207.600 225.353,207.600 225.149 C 207.600 224.945,209.220 223.158,211.200 221.178 C 213.180 219.198,214.800 217.415,214.800 217.216 C 214.800 217.017,215.151 216.743,215.580 216.606 C 216.008 216.470,216.484 215.963,216.636 215.480 C 216.789 214.996,228.792 202.720,243.310 188.200 C 270.821 160.685,270.955 160.534,270.728 157.247 L 270.600 155.400 273.442 155.200 C 276.010 155.019,276.436 154.862,277.842 153.576 C 281.601 150.141,282.402 149.126,282.668 147.463 C 282.833 146.431,283.283 145.535,283.866 145.076 C 285.070 144.129,285.064 142.622,283.851 141.031 C 283.329 140.347,282.773 139.024,282.615 138.091 C 282.247 135.910,281.225 135.185,278.611 135.250 L 276.600 135.300 278.200 135.572 M267.802 152.397 C 267.477 152.923,267.938 154.400,268.427 154.400 C 268.912 154.400,268.913 152.517,268.428 152.217 C 268.223 152.091,267.941 152.171,267.802 152.397 M146.400 159.084 C 145.505 159.183,144.640 159.643,144.000 160.360 C 143.450 160.977,142.153 161.789,141.119 162.166 C 140.084 162.543,139.139 163.164,139.018 163.545 C 138.897 163.926,138.082 164.916,137.207 165.745 C 136.234 166.666,135.430 167.902,135.137 168.926 C 134.873 169.847,134.195 170.988,133.629 171.462 L 132.600 172.324 132.494 221.462 C 132.390 269.982,132.451 272.800,133.620 272.800 C 134.330 272.800,135.200 274.122,135.200 275.200 C 135.200 275.964,135.679 276.850,136.643 277.872 C 137.436 278.712,138.441 279.898,138.874 280.506 C 139.796 281.799,141.560 282.800,142.916 282.800 C 143.549 282.800,144.027 283.140,144.331 283.808 C 144.954 285.175,146.318 285.612,149.726 285.536 C 151.307 285.501,151.970 285.408,151.200 285.330 C 148.470 285.053,146.245 284.341,145.099 283.377 C 144.461 282.839,143.625 282.400,143.242 282.400 C 142.444 282.400,138.000 278.411,138.000 277.694 C 138.000 277.432,137.560 276.930,137.022 276.577 C 136.456 276.207,135.772 275.119,135.400 273.999 C 135.046 272.933,134.518 271.864,134.228 271.623 C 132.816 270.451,132.768 268.657,132.885 221.400 L 133.000 175.000 134.300 172.644 C 135.015 171.348,135.600 170.060,135.600 169.782 C 135.600 168.387,141.346 162.505,143.200 162.001 C 143.970 161.792,144.820 161.266,145.090 160.832 C 146.060 159.270,147.531 159.205,181.731 159.202 L 214.862 159.200 216.078 160.500 C 216.747 161.215,217.836 162.371,218.498 163.070 C 220.255 164.925,219.847 166.530,216.802 169.730 L 214.451 172.200 183.126 172.417 C 149.885 172.647,150.467 172.610,149.211 174.543 C 148.762 175.234,147.946 176.412,147.397 177.159 C 146.675 178.144,146.418 178.970,146.464 180.159 C 146.519 181.557,146.551 181.614,146.686 180.549 C 146.772 179.862,147.284 178.885,147.822 178.380 C 148.360 177.874,148.800 177.244,148.800 176.979 C 148.800 176.713,149.514 175.761,150.386 174.862 L 151.972 173.228 183.286 173.114 C 217.350 172.990,216.261 173.066,217.224 170.743 C 217.491 170.097,218.112 169.487,218.636 169.355 C 219.655 169.099,219.837 168.707,220.188 166.000 C 220.462 163.884,219.779 162.258,218.542 162.079 C 217.991 161.999,217.578 161.520,217.337 160.680 C 217.061 159.716,216.680 159.341,215.785 159.149 C 214.530 158.880,148.788 158.818,146.400 159.084 M251.601 192.998 C 250.484 194.188,250.810 194.720,252.315 194.162 C 253.627 193.676,254.661 194.126,256.667 196.053 C 259.595 198.867,259.387 196.267,259.520 231.706 C 259.658 268.325,259.478 271.626,257.190 274.472 C 256.511 275.317,255.771 276.537,255.546 277.184 C 255.320 277.830,254.521 278.722,253.768 279.166 C 253.016 279.610,252.400 280.229,252.400 280.541 C 252.400 281.132,250.601 282.139,248.695 282.614 C 248.087 282.765,247.457 283.113,247.295 283.386 C 246.719 284.357,244.962 284.993,242.200 285.230 L 239.400 285.471 242.513 285.535 C 245.940 285.607,247.555 285.113,249.321 283.453 C 249.937 282.874,250.867 282.400,251.387 282.400 C 252.052 282.400,252.490 282.046,252.861 281.206 C 253.162 280.528,253.870 279.845,254.501 279.625 C 255.273 279.356,255.684 278.879,255.847 278.064 C 255.976 277.418,256.579 276.522,257.186 276.073 C 258.364 275.202,259.200 272.775,259.200 270.223 C 259.200 269.440,259.365 268.800,259.567 268.800 C 261.138 268.800,261.229 266.666,261.112 232.732 L 261.000 200.064 260.147 199.132 C 259.678 198.619,258.991 197.602,258.622 196.872 C 258.253 196.141,257.332 195.179,256.575 194.732 C 255.819 194.286,255.200 193.772,255.200 193.589 C 255.200 192.009,252.887 191.630,251.601 192.998 M248.014 195.174 C 247.786 195.599,247.599 196.184,247.597 196.474 C 247.596 196.763,247.056 197.307,246.397 197.681 L 245.200 198.363 245.197 231.481 C 245.193 268.768,245.191 268.800,243.583 268.800 C 242.722 268.800,242.389 269.057,242.071 269.968 C 241.815 270.703,241.318 271.202,240.732 271.314 C 239.883 271.475,239.897 271.496,240.886 271.546 C 241.599 271.581,242.118 271.326,242.398 270.804 C 242.632 270.366,243.330 269.747,243.948 269.427 C 245.866 268.435,246.001 265.896,246.001 230.743 C 246.000 203.175,246.074 199.257,246.599 199.056 C 246.928 198.929,247.587 198.025,248.063 197.046 C 248.538 196.066,249.304 195.083,249.764 194.860 C 250.550 194.478,250.535 194.453,249.514 194.427 C 248.830 194.410,248.275 194.687,248.014 195.174 M194.814 209.974 C 194.586 210.399,194.400 211.029,194.400 211.374 C 194.400 211.726,194.062 212.000,193.629 212.000 C 192.568 212.000,191.600 213.061,191.600 214.225 C 191.600 214.793,191.113 215.628,190.423 216.242 C 189.081 217.438,188.400 219.895,188.400 223.540 C 188.400 224.805,188.184 226.056,187.920 226.320 C 187.547 226.693,187.547 226.907,187.920 227.280 C 188.184 227.544,188.400 228.022,188.400 228.342 C 188.400 231.064,192.404 232.544,194.669 230.660 C 195.291 230.142,196.070 229.616,196.400 229.491 C 197.483 229.080,195.348 229.177,193.205 229.636 C 189.404 230.451,188.289 228.875,188.838 223.463 C 189.196 219.928,189.539 218.858,190.782 217.400 C 191.157 216.960,191.682 215.836,191.947 214.902 C 192.286 213.713,192.771 213.029,193.568 212.616 C 194.194 212.293,194.813 211.601,194.944 211.079 C 195.075 210.557,195.592 209.933,196.091 209.692 L 197.000 209.254 196.114 209.227 C 195.627 209.212,195.042 209.548,194.814 209.974 M146.464 264.314 C 146.398 266.079,147.005 267.369,148.699 269.063 C 149.194 269.558,149.600 270.223,149.600 270.539 C 149.600 271.167,150.430 271.600,151.635 271.600 C 152.240 271.600,152.018 271.219,150.602 269.823 C 149.611 268.846,148.800 267.779,148.800 267.452 C 148.800 267.125,148.364 266.515,147.830 266.095 C 147.242 265.633,146.795 264.795,146.694 263.966 C 146.541 262.710,146.523 262.738,146.464 264.314 M175.500 271.900 C 187.215 271.959,206.385 271.959,218.100 271.900 C 229.815 271.841,220.230 271.793,196.800 271.793 C 173.370 271.793,163.785 271.841,175.500 271.900 " stroke="none" fill="#39524a" fill-rule="evenodd"></path></g></svg>