<?xml version="1.0" encoding="UTF-8" standalone="no"?>
<svg
   xmlns:dc="http://purl.org/dc/elements/1.1/"
   xmlns:cc="http://creativecommons.org/ns#"
   xmlns:rdf="http://www.w3.org/1999/02/22-rdf-syntax-ns#"
   xmlns:svg="http://www.w3.org/2000/svg"
   xmlns="http://www.w3.org/2000/svg"
   xmlns:sodipodi="http://sodipodi.sourceforge.net/DTD/sodipodi-0.dtd"
   xmlns:inkscape="http://www.inkscape.org/namespaces/inkscape"
   version="1.1"
   x="0px"
   y="0px"
   viewBox="0 0 90.811996 89.667999"
   xml:space="preserve"
   id="svg2"
   inkscape:version="0.91 r13725"
   sodipodi:docname="posponer.svg"
   width="90.811996"
   height="89.667999"><metadata
     id="metadata32"><rdf:RDF><cc:Work
         rdf:about=""><dc:format>image/svg+xml</dc:format><dc:type
           rdf:resource="http://purl.org/dc/dcmitype/StillImage" /><dc:title></dc:title></cc:Work></rdf:RDF></metadata><defs
     id="defs30"><pattern
       patternUnits="userSpaceOnUse"
       width="55.084744"
       height="55.084748"
       patternTransform="translate(48.728806,71.504242)"
       id="pattern4171"><a
         id="a4168"
         transform="translate(-48.728806,-71.504242)"><path
           style="fill:#ffffff"
           d="M 103.81355,99.046616 A 27.542374,27.542374 0 0 1 76.271179,126.58899 27.542374,27.542374 0 0 1 48.728806,99.046616 27.542374,27.542374 0 0 1 76.271179,71.504242 27.542374,27.542374 0 0 1 103.81355,99.046616 Z"
           id="path3426"
           inkscape:connector-curvature="0" /></a></pattern></defs><sodipodi:namedview
     pagecolor="#ffffff"
     bordercolor="#666666"
     borderopacity="1"
     objecttolerance="10"
     gridtolerance="10"
     guidetolerance="10"
     inkscape:pageopacity="0"
     inkscape:pageshadow="2"
     inkscape:window-width="1321"
     inkscape:window-height="744"
     id="namedview28"
     showgrid="false"
     inkscape:zoom="1.888"
     inkscape:cx="-47.780162"
     inkscape:cy="34.057305"
     inkscape:window-x="45"
     inkscape:window-y="24"
     inkscape:window-maximized="1"
     inkscape:current-layer="svg2"
     fit-margin-top="0"
     fit-margin-left="0"
     fit-margin-right="0"
     fit-margin-bottom="0" /><g
     id="g4902"
     transform="translate(-3.23567,-6.889305)"><g
       id="g4894"><path
         inkscape:connector-curvature="0"
         d="m 87.17967,36.728305 -4.475,0 -4.824,3.383 7.867,0 c 0.373,0 0.742,0.047 1.093,0.132 2.162,0.504 3.77,2.461 3.77,4.793 l 0,43.093 c 2.051,-1.203 3.437,-3.446 3.437,-6.02 l 0,-38.42 c -10e-4,-3.847 -3.077,-6.961 -6.868,-6.961 z"
         id="path3386" /><path
         inkscape:connector-curvature="0"
         d="m 85.93967,43.005305 -76.638,0 c -0.801,0 -1.446,-0.649 -1.446,-1.446 0,-0.801 0.646,-1.452 1.446,-1.452 l 5.903,0 1.957,-1.414 2.72,-1.965 -9.714,0 c -3.829,0 -6.932,3.114 -6.932,6.952 l 0,1.351 0,44.57 c 0,3.843 3.103,6.956 6.932,6.956 l 70.861,0 c 3.827,0 6.933,-3.113 6.933,-6.956 l 0,-44.57 c -0.005,-1.119 -0.91,-2.026 -2.022,-2.026 z"
         id="path3388" /><g
         id="g3390"
         transform="translate(-0.89733,2.317305)"><path
           style="fill:none"
           inkscape:connector-curvature="0"
           d="m 49.752,26.299 c -5.534,-0.29 -10.249,3.943 -10.524,9.453 -0.036,0.745 0.016,1.472 0.137,2.177 l 19.797,0 c 0.062,-0.368 0.106,-0.741 0.126,-1.122 0.273,-5.515 -3.998,-10.219 -9.536,-10.508 z"
           id="path3392" /><path
           inkscape:connector-curvature="0"
           d="m 39.228,35.752 c 0.275,-5.509 4.991,-9.742 10.524,-9.453 5.538,0.289 9.808,4.992 9.536,10.507 -0.02,0.381 -0.064,0.754 -0.126,1.122 l 15.577,0 9.822,-7.292 -19.747,-26.064 -44.919,33.357 19.47,0 c -0.121,-0.705 -0.173,-1.432 -0.137,-2.177 z"
           id="path3394" /></g><polygon
         points="22.209,33.399 51.353,11.92 40.884,5.019 "
         id="polygon3396"
         transform="translate(-0.89733,2.317305)" /></g><g
       style="fill:#ffffff"
       transform="translate(26.822085,33.368644)"
       id="g4228"><path
         style="fill:#ffffff"
         inkscape:connector-curvature="0"
         id="path14"
         d="m 11.1,47.3 c -5.9,-5.9 -5.9,-15.5 0,-21.4 5.7,-5.7 14.7,-5.8 20.6,-0.7 l -2.2,2.2 c -0.7,0.7 -0.3,1.8 0.6,2 l 9.5,2.3 c 0.9,0.2 1.7,-0.6 1.4,-1.4 l -2.3,-9.5 c -0.2,-0.9 -1.3,-1.2 -2,-0.6 l -2,2 c -7.6,-6.8 -19.2,-6.6 -26.5,0.7 -7.5,7.5 -7.5,19.8 0,27.3 0.2,0.2 0.5,0.5 0.7,0.7 0.4,0.4 0.9,0.5 1.4,0.5 0.6,0 1.1,-0.2 1.5,-0.7 0.8,-0.8 0.7,-2.2 -0.1,-2.9 l -0.6,-0.5 z" /><path
         style="fill:#ffffff"
         inkscape:connector-curvature="0"
         id="path16"
         d="m 27.4,42.2 c 0.7,0 1.3,-0.3 1.7,-1 0.6,-1 0.3,-2.2 -0.6,-2.9 l -4.7,-3 0,-7.5 c 0,-1.1 -0.9,-2.1 -2.1,-2.1 -1.1,0 -2.1,0.9 -2.1,2.1 l 0,8.7 c 0,0.7 0.4,1.4 1,1.7 l 5.7,3.6 c 0.4,0.3 0.8,0.4 1.1,0.4 z" /><path
         style="fill:#ffffff"
         inkscape:connector-curvature="0"
         id="path18"
         d="M 17.8,51.1 17,50.9 c -1.1,-0.4 -2.3,0.2 -2.6,1.3 -0.4,1.1 0.2,2.3 1.3,2.6 0.3,0.1 0.7,0.2 1,0.3 0.2,0 0.4,0.1 0.5,0.1 0.9,0 1.7,-0.6 2,-1.5 0.3,-1.1 -0.3,-2.3 -1.4,-2.6 z" /><path
         style="fill:#ffffff"
         inkscape:connector-curvature="0"
         id="path20"
         d="M 27.2,53 C 27,51.9 25.9,51.2 24.8,51.4 L 24,51.5 c -1.1,0.2 -1.9,1.2 -1.7,2.3 0.2,1 1,1.8 2,1.8 0.1,0 0.2,0 0.3,0 0.3,0 0.7,-0.1 1,-0.2 1.1,-0.2 1.8,-1.3 1.6,-2.4 z" /><path
         style="fill:#ffffff"
         inkscape:connector-curvature="0"
         id="path22"
         d="m 31.1,48.4 -0.6,0.5 c -0.9,0.7 -1.2,1.9 -0.5,2.9 0.4,0.6 1,0.9 1.7,0.9 0.4,0 0.8,-0.1 1.2,-0.4 0.3,-0.2 0.6,-0.4 0.8,-0.6 0.9,-0.7 1,-2 0.3,-2.9 -0.7,-0.9 -2,-1.1 -2.9,-0.4 z" /></g></g></svg>