<svg id="Capa_1" data-name="Capa 1" xmlns="http://www.w3.org/2000/svg" viewBox="0 0 512 512"><defs><style>.cls-1{fill:#9a9b9a;}</style></defs><g id="_098---Selfies" data-name="098---Selfies"><path id="Shape" class="cls-1" d="M392.53,230h-25.6V214.27L396.6,202a34.16,34.16,0,1,0-25.22-63.49l-4.45,1.77V34.13A34.13,34.13,0,0,0,332.8,0H170.67a34.14,34.14,0,0,0-34.14,34.13V204.54a52.35,52.35,0,0,0-49.2,52.75,765.2,765.2,0,0,1-.43,78.41c-.93,17.07-2.08,38.35-1.32,48.51a68,68,0,0,0,15.27,42.18c8.74,12.49,7.2,10.93,14.26,21.68C129.3,469.64,128,472.75,128,486.4A25.6,25.6,0,0,0,153.6,512H256a25.6,25.6,0,0,0,25.6-25.6V468.92a8.49,8.49,0,0,1,4.27-7.38,131.12,131.12,0,0,0,43-35.3h3.9a34.14,34.14,0,0,0,33-25.71c.4,0,.77.12,1.17.12h8.79a34,34,0,0,0,25.82-56.2,33.72,33.72,0,0,0,8.36-51.11A34.06,34.06,0,0,0,392.53,230Zm0,17.07a17.07,17.07,0,1,1,0,34.13h-25.6a17.07,17.07,0,0,1,0-34.13ZM384,332.38H366.93a17.07,17.07,0,0,1,0-34.13H384a17.07,17.07,0,1,1,0,34.13Zm-6.33-178a17.09,17.09,0,0,1,12.53,31.8l-23.27,9.62V158.65ZM215.35,34.13a8.45,8.45,0,0,1-7.63-4.72l-6.18-12.34H301.93l-6.18,12.34a8.48,8.48,0,0,1-7.63,4.72ZM277.5,446.69a25.62,25.62,0,0,0-13,22.19V486.4a8.53,8.53,0,0,1-8.53,8.53H153.6a8.53,8.53,0,0,1-8.53-8.53v-8.53c0-18.32-11.86-32.68-20.11-46.08-15.16-24.59-20.48-24.09-22.36-48.87-1-13.31,1.9-51.89,2.28-66,.22-8.54-.24-39.8-.48-59.87a35.41,35.41,0,0,1,35.17-35.65c19.57,0,26.1,12.29,45.84,17.92A251.15,251.15,0,0,0,223,246.66a8.35,8.35,0,0,1,7.47,8.19v1.42c-.06,3-1.75,29-42.66,29a4,4,0,0,0-1.57.16c-6.53.54-36.38-5.54-42-16.78a8.55,8.55,0,1,0-15.27,7.68,31,31,0,0,0,7.6,9.43V392.11a34.14,34.14,0,0,0,34.14,34.13H306.06A147.27,147.27,0,0,1,277.5,446.69Zm11.95-301.47-20.32-8.69c3.77-3.83,7.46-7.91,11-12.34a43.08,43.08,0,0,1,9.28,21Zm-75.95,6.07c1.36-31.7,28.82-47.65,53-37.35a103.17,103.17,0,0,1-53,37.35Zm41.57-2.19,34.32,14.67c-7.47,53.34-63.9,54.9-74.5,4.82a101.15,101.15,0,0,0,40.2-19.49ZM307.2,279.89v44.38H290.13V290.13a8.53,8.53,0,0,0-17.06,0v34.14H230.4c0-42.31,0-33-.08-34.5a46.74,46.74,0,0,0,17.15-34.9,25.47,25.47,0,0,0-23.75-25.28,55.85,55.85,0,0,1,83.48,50.3ZM196.27,324.27V302a76.77,76.77,0,0,0,17.06-3.26v25.55Zm136.53,84.9H170.67a17.06,17.06,0,0,1-17.07-17.06V295.68a104.16,104.16,0,0,0,25.6,6.37v22.22a17.06,17.06,0,0,0,17.07,17.06H307.2a17.06,17.06,0,0,0,17.07-17.06V279.89a75.94,75.94,0,0,0-42.45-68.26,72.75,72.75,0,0,0,25.2-53.2v-.13a61.22,61.22,0,0,0-22.8-53.81c-36.28-26.29-88-2.09-88,49.11a74.64,74.64,0,0,0,25.11,57.86,71.57,71.57,0,0,0-20.27,14.24c-3.6-.8-7.31-1.71-11-2.76C176.28,219,169.59,210,153.6,206V34.13a17.06,17.06,0,0,1,17.07-17.06h11.79l10,20a25.48,25.48,0,0,0,22.9,14.15h72.77A25.47,25.47,0,0,0,311,37.05l10-20H332.8a17.06,17.06,0,0,1,17.07,17.06v200.6a33.78,33.78,0,0,0-5.28,55,33.82,33.82,0,0,0-.07,51.26,33.8,33.8,0,0,0,5,54.71,17,17,0,0,1-16.67,13.48Zm42.92-25.6h-8.79a17.07,17.07,0,0,1,0-34.13h8.79a17.07,17.07,0,1,1,0,34.13Z"/><path id="Shape-2" data-name="Shape" class="cls-1" d="M298.67,375.47H204.8a8.53,8.53,0,0,0,0,17.06h93.87a8.53,8.53,0,1,0,0-17.06Z"/></g></svg>