<svg height="388pt" viewBox="0 -10 388.144 388" width="388pt" xmlns="http://www.w3.org/2000/svg"><path d="m114.070312 184.070312c0 44.183594 35.820313 80 80 80 44.183594 0 80-35.816406 80-80 0-44.179687-35.816406-80-80-80-44.160156.050782-79.949218 35.839844-80 80zm40 8h-16v-16h16zm80-16h16v16h-16zm-16-9.167968v1.167968h-16v-1.167968c-.003906-3.769532-3.058593-6.824219-6.832031-6.832032h-2.335937c-3.167969.003907-5.917969 2.183594-6.644532 5.269532-.726562 3.082031.765626 6.261718 3.597657 7.675781l15.59375 7.800781c8.320312 4.140625 13.289062 12.925782 12.542969 22.1875-.742188 9.265625-7.046876 17.148438-15.921876 19.90625v9.160156h-16v-9.160156c-9.488281-2.960937-15.960937-11.730468-16-21.671875v-1.167969h16v1.167969c.007813 3.773438 3.0625 6.828125 6.832032 6.832031h2.335937c3.167969 0 5.921875-2.179687 6.648438-5.265624.726562-3.082032-.765625-6.261719-3.597657-7.675782l-15.59375-7.800781c-8.320312-4.140625-13.289062-12.925781-12.546874-22.191406.746093-9.261719 7.046874-17.144531 15.921874-19.90625v-9.160157h16v9.160157c9.492188 2.964843 15.964844 11.734375 16 21.671875zm0 0"/><path d="m194.070312 56.070312c26.683594.007813 52.691407 8.402344 74.335938 24h73.921875l33.34375-40-33.34375-39.9999995h-295.664063l-9.328124 15.9999995h68.734374v16h-78.070312l-9.335938 16h71.40625v16h-80.734374l-9.335938 16h119.734375c21.648437-15.597656 47.65625-23.992187 74.335937-24zm0 0"/><path d="m378.808594 304.070312 9.335937-16h-119.738281c-44.390625 32.003907-104.277344 32.003907-148.671875 0h-73.917969l-33.34375 40 33.328125 40h295.679688l9.328125-16h-68.738282v-16h78.074219l9.335938-16h-71.410157v-16zm0 0"/><path d="m82.070312 184.070312c0 61.859376 50.144532 112 112 112 61.859376 0 112-50.140624 112-112 0-61.855468-50.140624-112-112-112-61.828124.066407-111.933593 50.171876-112 112zm208 0c0 53.019532-42.980468 96-96 96-53.019531 0-96-42.980468-96-96 0-53.019531 42.980469-96 96-96 52.996094.058594 95.945313 43.007813 96 96zm0 0"/></svg>