<svg id="Layer_35" enable-background="new 0 0 64 64" height="512" viewBox="0 0 64 64" width="512" xmlns="http://www.w3.org/2000/svg"><path d="m61 33c-1.657 0-3 1.343-3 3v-12c0-1.105-.895-2-2-2s-2 .895-2 2v-2c0-1.105-.895-2-2-2s-2 .895-2 2v3.963c.639 1.899 1 3.925 1 6.037 0 5.918-2.722 11.21-6.977 14.698l.977 1.302v14h14v-12l2.2-2.933c.519-.692.8-1.535.8-2.4v-11.667zm-11 26h-2v-2h2zm0-4h-2v-2h2zm0-4h-2v-2h2z"/><path d="m19.977 17.302-.977-1.302v-14h-14v12l-2.2 2.933c-.519.692-.8 1.535-.8 2.4v11.667h1c1.657 0 3-1.343 3-3v12c0 1.105.895 2 2 2s2-.895 2-2v2c0 1.105.895 2 2 2s2-.895 2-2v-3.963c-.639-1.899-1-3.925-1-6.037 0-5.918 2.722-11.21 6.977-14.698zm-5.977-12.302h2v2h-2zm0 4h2v2h-2zm0 4h2v2h-2z"/><path d="m32 15c-9.374 0-17 7.626-17 17s7.626 17 17 17 17-7.626 17-17-7.626-17-17-17zm0 32c-8.271 0-15-6.729-15-15s6.729-15 15-15 15 6.729 15 15-6.729 15-15 15z"/><path d="m32 19c-7.168 0-13 5.832-13 13s5.832 13 13 13 13-5.832 13-13-5.832-13-13-13zm-7 14h-2v-2h2zm7-2c2.206 0 4 1.794 4 4v4h-3v2h-2v-2.142c-1.72-.447-3-2-3-3.858h2c0 1.103.897 2 2 2h2v-2c0-1.103-.897-2-2-2-2.206 0-4-1.794-4-4v-4h3v-2h2v2.142c1.72.447 3 2 3 3.858h-2c0-1.103-.897-2-2-2h-2v2c0 1.103.897 2 2 2zm9 2h-2v-2h2z"/><path d="m48.278 11.725c-.569-.458-1.162-.895-1.763-1.3l-1.118 1.658c.555.374 1.103.778 1.628 1.2z"/><path d="m25 11c1.531 0 2.783-1.157 2.964-2.64 5.269-.886 10.866.01 15.556 2.58l.961-1.754c-5.109-2.801-11.209-3.769-16.949-2.78-.532-.842-1.465-1.406-2.532-1.406-1.654 0-3 1.346-3 3s1.346 3 3 3z"/><path d="m15.722 52.275c.569.458 1.162.895 1.763 1.3l1.118-1.658c-.555-.374-1.103-.778-1.628-1.2z"/><path d="m39 53c-1.531 0-2.783 1.157-2.964 2.64-5.269.886-10.867-.009-15.556-2.579l-.961 1.754c3.803 2.083 8.118 3.185 12.481 3.185 1.502 0 3.003-.137 4.476-.392.533.834 1.462 1.392 2.524 1.392 1.654 0 3-1.346 3-3s-1.346-3-3-3z"/></svg>