<?xml version="1.0" standalone="no"?>
<!DOCTYPE svg PUBLIC "-//W3C//DTD SVG 20010904//EN"
 "http://www.w3.org/TR/2001/REC-SVG-20010904/DTD/svg10.dtd">
<svg version="1.0" xmlns="http://www.w3.org/2000/svg"
 width="512.000000pt" height="512.000000pt" viewBox="0 0 512.000000 512.000000"
 preserveAspectRatio="xMidYMid meet">

<g transform="translate(0.000000,512.000000) scale(0.100000,-0.100000)"
fill="#000000" stroke="none">
<path d="M1630 4466 c-65 -19 -145 -61 -192 -104 -34 -30 -329 -386 -905
-1091 -83 -101 -188 -228 -360 -437 -156 -190 -173 -216 -173 -269 0 -53 17
-79 173 -269 172 -209 277 -336 360 -437 576 -705 871 -1061 905 -1091 49 -44
128 -86 197 -104 76 -21 3036 -20 3112 0 90 24 145 57 219 130 73 73 114 143
133 227 14 61 14 3027 0 3088 -19 84 -60 154 -133 227 -74 73 -129 106 -219
130 -73 19 -3047 19 -3117 0z m3080 -328 c18 -13 43 -36 54 -51 l21 -28 0
-1494 0 -1494 -21 -28 c-11 -15 -36 -38 -54 -50 l-33 -23 -1484 0 c-1341 0
-1488 2 -1519 16 -24 11 -152 162 -451 527 -230 281 -429 526 -443 544 -14 17
-88 108 -165 202 -183 222 -245 300 -245 306 0 6 62 84 245 306 77 94 151 185
165 202 14 18 213 263 443 544 281 344 428 516 450 527 29 14 178 16 1518 16
l1486 0 33 -22z"/>
<path d="M2075 3360 l-110 -110 338 -338 c185 -185 337 -342 337 -347 0 -5
-152 -162 -337 -347 l-338 -338 113 -112 112 -113 343 343 342 342 343 -342
342 -343 112 113 113 112 -343 342 -342 343 342 342 343 343 -113 112 -112
113 -343 -343 -342 -342 -340 340 c-187 187 -342 340 -345 340 -3 0 -55 -50
-115 -110z"/>
</g>
</svg>
