<?xml version="1.0" standalone="no"?>
<!DOCTYPE svg PUBLIC "-//W3C//DTD SVG 20010904//EN"
 "http://www.w3.org/TR/2001/REC-SVG-20010904/DTD/svg10.dtd">
<svg version="1.0" xmlns="http://www.w3.org/2000/svg"
 width="512.000000pt" height="512.000000pt" viewBox="0 0 512.000000 512.000000"
 preserveAspectRatio="xMidYMid meet">

<g transform="translate(0.000000,512.000000) scale(0.100000,-0.100000)"
fill="#000000" stroke="none">
<path d="M1630 4466 c-65 -19 -145 -61 -192 -104 -34 -30 -329 -386 -905
-1091 -83 -101 -188 -228 -360 -437 -156 -190 -173 -216 -173 -269 0 -53 17
-79 173 -269 172 -209 277 -336 360 -437 576 -705 871 -1061 905 -1091 49 -44
128 -86 197 -104 76 -21 3036 -20 3112 0 90 24 145 57 219 130 73 73 114 143
133 227 14 61 14 3027 0 3088 -19 84 -60 154 -133 227 -74 73 -129 106 -219
130 -73 19 -3047 19 -3117 0z m1530 -1161 l285 285 227 -227 228 -228 -285
-285 -285 -285 285 -285 285 -285 -227 -227 -228 -228 -285 285 -285 285 -285
-285 -285 -285 -227 227 -228 228 285 285 285 285 -285 285 -285 285 227 227
228 228 285 -285 285 -285 285 285z"/>
</g>
</svg>
