<?xml version="1.0" encoding="utf-8"?>
<!-- Generator: Adobe Illustrator 23.0.3, SVG Export Plug-In . SVG Version: 6.00 Build 0)  -->
<svg version="1.1" id="Layer_1" xmlns="http://www.w3.org/2000/svg" xmlns:xlink="http://www.w3.org/1999/xlink" x="0px" y="0px"
	 viewBox="0 0 105.9 44.3" style="enable-background:new 0 0 105.9 44.3;" xml:space="preserve">
<style type="text/css">
	.st0{clip-path:url(#SVGID_2_);}
	.st1{clip-path:url(#SVGID_4_);fill:url(#SVGID_5_);}
	.st2{clip-path:url(#SVGID_7_);fill:#255C4F;}
</style>
<g>
	<defs>
		<path id="SVGID_1_" d="M0,32L0,32c32.8,16.1,71.4,16.4,104.5,0.7l1.4-0.7V0H0V32z"/>
	</defs>
	<clipPath id="SVGID_2_">
		<use xlink:href="#SVGID_1_"  style="overflow:visible;"/>
	</clipPath>
	<g class="st0">
		<g>
			<defs>
				<rect id="SVGID_3_" x="-16.4" y="-14.8" width="125.1" height="68.8"/>
			</defs>
			<clipPath id="SVGID_4_">
				<use xlink:href="#SVGID_3_"  style="overflow:visible;"/>
			</clipPath>
			
				<linearGradient id="SVGID_5_" gradientUnits="userSpaceOnUse" x1="-905.5366" y1="562.0025" x2="-905.4714" y2="562.0025" gradientTransform="matrix(1920.226 0 0 -1920.226 1738818.5 1079191.375)">
				<stop  offset="0" style="stop-color:#235B4E"/>
				<stop  offset="0.427" style="stop-color:#235B4E"/>
				<stop  offset="0.5994" style="stop-color:#21574A"/>
				<stop  offset="0.7844" style="stop-color:#1B4A40"/>
				<stop  offset="0.9746" style="stop-color:#12342E"/>
				<stop  offset="1" style="stop-color:#10312B"/>
			</linearGradient>
			<rect x="-16.4" y="-14.8" class="st1" width="125.1" height="68.8"/>
		</g>
		<g>
			<defs>
				<rect id="SVGID_6_" x="3.1" y="-14.8" width="105.6" height="68.8"/>
			</defs>
			<clipPath id="SVGID_7_">
				<use xlink:href="#SVGID_6_"  style="overflow:visible;"/>
			</clipPath>
			<path class="st2" d="M14.1,62.8c0.4-5.6,1.7-11.1,4-16.4c0.2-0.4,0.8-0.6,1.5-0.6c0.4,0,0.7,0.1,0.8,0.3v0.6
				c-1.8,4.4-3.1,9.5-3.7,15.2c-0.3,2.7,0.2,6,1.6,10.4c0.5,2.5,0.3,5.6,0.1,8.1c0,1.1,0.5,1.6,1,1.6c0.5,0,1-0.4,1.1-1.7
				c0.2-3.1,0.3-5.7,0.4-8l0-0.2c0.1-4.3,0.3-7.7,1.1-11.1c0.4-1.8,2.2-4.5,5.3-8c1.4-2.2,2.4-4.1,3-6.2c0.1-0.5,0.3-1,0.4-1.5
				c0.2-0.7,0.3-1.2,0.5-1.8l1.1-3.4c0.2-0.3,0.5-0.3,0.7-0.3c0.6,0,1.1,0.3,1.5,0.8c0.2,0.2,0.4,0.6,0.3,1l-3,9.9
				c-0.7,1.8-2.1,3.4-3.7,5.1l-0.1,0.1c-0.8,0.9-1.6,1.8-2.3,2.7c-1.3,1.6-1.4,2.8-1.7,4.7c-0.5,3.4-0.9,8.2-1.3,15.2l-2,10
				c-0.5,3.2-0.4,6.9,0.4,11.2c0.1,1.5-0.1,2-0.2,2.1l-0.2,0.1c-0.2,0-0.7-0.1-1.8-1.1c-2.9-3.4-2.7-14.9-2.6-24.2
				c-0.2-2.9-0.8-5.3-1.4-7.5C14.5,67.3,13.9,65,14.1,62.8 M24.3,47.7c-0.1,0.6-0.2,1.1-0.5,1.7l-1.3,3c-0.1,0.7,0,0.9,0,1l0.1,0
				l0.3-0.1c2.7-2.5,4.3-5.6,4.9-9.4c0-0.3,0-0.4-0.1-0.4l-0.3-0.1c-0.2,0-0.4,0-0.7,0.1c-0.8,0.2-1.5,0.7-2,1.5
				c-0.2,0.4-0.3,0.5-0.3,0.9L24.3,47.7 M36.6,74.3c-0.3-0.3-0.4-0.8-0.4-1.4c0.3-4.9,1.4-9.6,3.5-14.2c0.3-0.7,0.3-1,0.3-1.1
				l-0.1,0c-0.5,0-1,0.4-1.4,1c-1.6,2.4-2.9,7-3.8,14c-1,9.9-1,13.7-0.9,17.7c0,0.7,0.1,1.3,0.4,1.6l0.3,0.1c0.3,0,0.8-0.4,1.1-1.9
				l0.9-6c0.2-1.6,0.7-3.1,1.4-4.6c2.8-5.4,4.2-9.1,5.2-14.1l0.1-0.3c0.1-0.4,0.2-0.8,0.2-1.2c0.3-1.9,0.6-3.7,1.8-5.4
				c1.1-1.6,2.8-3,5.1-4.9l0.3-0.3c0.5-0.4,1.1-0.9,1.6-1.6c1.4-1.7,2.6-3.9,3.7-6.5c0.2-0.8,0.1-1.6-0.3-2.1
				c-0.2-0.2-0.3-0.3-0.6-0.4c-0.4,0-1,0.6-1.5,1.6c-2.4,5-5.2,8.7-8.5,11c-1.7,1.3-2.4,2.8-3.3,5.6c-0.4,1.2-0.6,2.4-0.9,3.7
				c-1,5-1.8,7.8-2.5,8.8c-0.2,0.7-0.7,1.1-1.1,1.1H37l-0.1,0L36.6,74.3z M48.1,44c-0.6,2.6-1.5,4.8-2.9,6.6
				c-0.2,0.4-0.2,0.6-0.2,0.7l0.1,0.1l0.5-0.3c2.1-1.8,3.5-4.2,4.5-7.4l0-0.3c-0.1-0.1-0.4-0.3-0.8-0.3C48.9,43.1,48.2,43.3,48.1,44
				 M28.1,74.8c-0.3-0.3-0.4-0.9-0.4-1.6c0.4-4.9,1.3-9.3,2.3-13.3c0.1-0.7,0-1-0.1-1.1c-0.1,0-0.4,0.2-1.1,0.9
				c-0.9,1.2-1.6,2.6-2,4.3c-0.6,3-1.1,6.2-1.3,10.5c-0.7,7.7-0.6,14.2,0.1,19.4c0.2,1.4,0.7,1.9,0.9,1.9c0.3,0,0.9-0.7,1-2.2
				c0.2-1.9,0.4-4.3,0.6-8.1c0.2-1.8,0.5-3.4,1.2-4.8c2.1-4.9,3.3-10.5,4.4-16l0-0.1c0.2-1.2,0.5-2.5,0.8-3.7l0-0.1
				c0.4-2.6,1.6-4.6,3.5-6.2c2.8-2.5,5-6.3,6.7-11.8c0.2-0.6,0.3-1,0.2-1.6c-0.1-0.8-0.4-1.2-0.7-1.2c-0.2,0-0.8,0.4-1.1,1.8
				c-2.5,6.1-4.8,9.9-7.6,12.7c-1.8,2-2.8,3.9-3.9,7.9l-1.7,10.3c-0.1,0.5-0.1,0.9-0.4,1.3c-0.4,0.8-0.8,1-1.1,1h-0.1l-0.1,0
				L28.1,74.8z M35.2,50.1c-0.3,0.4-0.4,0.7-0.5,1.1c-0.1,0.4,0,0.5,0,0.6l0.2,0.1h0c0.2,0,0.4-0.1,0.6-0.3l0.1,0c2.3-2,4-5.3,5-9.7
				c0.1-0.3,0-0.5-0.1-0.7c-0.1-0.1-0.3-0.2-0.6-0.2c-0.5,0-1.2,0.3-1.6,0.8c-0.3,0.4-0.4,0.7-0.6,1.3l-0.5,2.6
				C36.8,46.9,36.2,48.4,35.2,50.1 M46.5,74.4c0.7-2.1,1.7-5.2,3.5-9.3c1.6-3.7,4.8-6.7,9.4-8.8c2.6-1.3,4.8-3.5,6.8-6.9
				c0.2-0.4,0.3-0.5,0.2-0.9c-0.1-0.7-0.7-1.4-1.1-1.4c-0.3,0.1-0.4,0.3-0.5,0.5c-0.8,1.4-1.4,2.3-2.1,3.2c-1.9,2-4.5,4-8,6
				c-2.3,1.2-4.1,3.3-5.5,6.5c-0.3,0.7-0.8,1.2-1.2,1.2h-0.1l-0.1,0l-0.2-0.2c-0.3-0.3-0.3-0.7-0.2-1.4c0.2-1.4,0.8-3,1.7-4.7
				c0.3-0.5,0.4-0.7,0.3-1c0-0.4-0.1-0.5-0.1-0.5c0,0-0.3,0-0.9,0.6c-2.6,2.8-4.1,8.7-4.7,19c0,0.7-0.1,1.1,0.1,1.5
				c0.1,0.2,0.2,0.6,0.6,0.6c0.2,0,0.5-0.1,0.7-0.4c0.4-0.4,0.6-0.9,0.8-1.5c0.2-0.6,0.4-1.3,0.7-1.9L46.5,74.4 M60.7,45.7
				c-0.2,0-0.8,0.1-1.1,0.5c-1.1,2-2,3.5-3.6,4.9c-0.4,0.3-0.4,0.5-0.3,0.6l0.2,0.1l0.5-0.1c2.2-1.1,3.7-2.8,5.4-5.3l0-0.2
				C61.6,46,61.2,45.8,60.7,45.7 M70.3,56.2c0.8-0.3,1.3-0.5,1.8-0.8c1.2-0.7,2.2-1.7,3-2.9c0.3-0.5,0.3-1,0.1-1.4
				c-0.1-0.2-0.3-0.3-0.5-0.3c-0.2,0-0.4,0.1-0.6,0.2c-1.1,1-2.1,1.9-3.1,2.7c-0.7,0.5-1.6,1.1-2.9,1.7c-1.6,0.6-2.9,1-3.9,1.5
				c-0.7,0.3-1.2,0.6-1.7,1.1c-1.1,0.9-2,2.1-2.9,3.4l-0.1,0.1l-0.1,0.1l-0.4,0.2l-0.1,0c-0.2,0-0.4-0.1-0.6-0.3l0-0.1l0-0.1
				l0.1-0.5l1.1-2l0-0.2h-0.1c-1,0-1.8,0.5-2.1,1c-2.6,5.3-4.2,8.9-4.7,11c-0.1,0.4-0.1,0.8,0.1,1c0.1,0.2,0.3,0.2,0.5,0.2
				c0.3,0,0.6-0.1,0.8-0.4c1.6-1.8,3-3.7,4.4-5.5l0.3-0.4c1.7-2.3,3.3-4.5,5.3-6.3c0.8-0.8,1.6-1.3,2.7-1.8c0.8-0.4,1.9-0.8,3.1-1.2
				L70.3,56.2 M31.5,97.4c-0.7,0.6-0.9,1.4-0.3,2.1c2.4,1.9,4.9,2.9,7.5,3c1.9,0,3.9-0.5,6-1.6c8.9-7.2,18-14.5,27.2-21.7
				c0.5-0.4,0.8-0.7,0.9-1.2c0.2-0.5,0.2-1.1,0.1-1.3l-0.2-0.1c-0.2,0-0.4,0.1-0.6,0.3c-8.7,6.9-18,14.2-27.4,21.4
				c-2.1,1.5-4.1,2.3-6.1,2.3c-1.2,0-2.3-0.3-3.4-0.9c-1-0.7-0.8-1.4-0.6-1.7c0.2-0.4,0.7-0.8,1.3-1.1l0.4-0.3l35.2-25.3
				c0.9-0.5,1.2-1.5,1.1-2c-0.1-0.2-0.1-0.2-0.2-0.2c-0.1,0-0.3,0-0.6,0.3c-11.8,8-22.8,15.8-33.8,23.9
				C36.2,94.4,34.3,95.7,31.5,97.4 M71.1,75c0.8-0.8,1-1.5,0.9-1.7l-0.2-0.1l-0.4,0.2L39.9,97.2c-0.5,0.4-0.6,0.7-0.5,0.9
				c0,0.1,0.2,0.2,0.4,0.2c0.2,0,0.5-0.1,0.8-0.2c1.1-0.5,2.4-1.3,4-2.4L71.1,75z M49.3,99.2c-0.2,0.2-0.1,0.3-0.1,0.4
				c0.1,0.2,0.4,0.4,0.7,0.4c0.4,0,0.7-0.1,1.1-0.3c0.8-0.5,1.7-1.2,2.8-2c6.7-5.6,13.2-11.1,19.2-16.5c0.6-0.5,0.6-1,0.6-1.2
				l-0.2-0.1c-0.1,0-0.4,0.1-0.6,0.2L52.3,97L49.3,99.2z M68.1,53.2c1.2-0.6,2.3-1.4,3.3-2.4l0.1-0.4c0-0.1-0.2-0.1-0.4-0.1
				c-0.3,0-0.7,0.1-1.1,0.2c-0.7,0.2-1.1,0.5-1.6,1c-0.4,0.5-0.7,0.9-0.9,1.4c-0.1,0.2-0.1,0.3-0.1,0.4l0.2,0.1L68.1,53.2
				 M48.5,104.3c0.8,0,1.6-0.1,2.5-0.3c1.2-0.4,2.4-1.3,4.1-2.9c5.8-5,11.3-10.1,17.5-15.8l1.2-1.2c0.4-0.4,0.5-0.5,0.6-0.8
				c0.1-0.3,0.1-0.5,0-0.6l-0.2,0c-0.2,0-0.3,0-0.5,0.2c-2.7,2.3-5.1,4.5-7.8,6.8L65.5,90c-3.5,3.1-7.4,6.7-12.5,10.8
				c-1.6,1.2-3.1,1.8-4.7,1.7c-0.4,0-0.9-0.1-1.4-0.2l-0.3-0.1c-0.3-0.1-0.5-0.1-0.6-0.1l-0.5,0.1c-0.3,0.2-0.5,0.4-0.5,0.6
				c0,0.2,0.1,0.4,0.3,0.6C46.3,104,47.3,104.3,48.5,104.3 M76.2,84.9c0.1-0.2,0.2-0.4,0.1-0.5l-0.4,0C74.8,85,74,86,73.2,86.8
				l-0.3,0.3c-0.3,0.3-0.6,0.6-0.8,0.9c-4.2,4.2-9.2,9-13.9,12.9c-0.2,0.2-0.3,0.3-0.4,0.4l0.3,0.1c0.8,0,2-0.7,3.6-2.1
				C66.9,94.4,71.7,89.7,76.2,84.9 M55.8,105.1c1.1,0,2.4-0.3,3.8-1c2-1,3.4-2.2,4.9-3.7c5.1-4.8,9-8.7,12-11.8l0.1-0.1
				c0.4-0.4,0.6-0.6,0.8-1c0.3-0.7,0.4-1.2,0.3-1.5l-0.2,0c-0.1,0-0.3,0.1-0.5,0.3c-5.1,5.2-10.4,10.3-15.9,15.2
				c-1.9,1.4-3.8,2.1-5.9,2.2c-0.5,0-0.9,0.4-0.9,0.7c0,0.2,0,0.3,0.3,0.4C55,105,55.4,105.1,55.8,105.1 M63.6,103.5
				c1.8,0,3.4-0.7,5-2.2l7.3-8.2c0.1-0.2,0.1-0.4,0-0.6l-0.3-0.3l-0.4,0.2l-1.8,2c-3.5,3.8-6.7,7.4-9.2,7.8c-0.6,0.1-1,0.7-1,1
				C63.2,103.4,63.3,103.5,63.6,103.5L63.6,103.5z M154.9,16L154.9,16c-0.4-0.2-0.7-0.2-1.1-0.2c-0.4,0-0.8,0.1-1.1,0.3
				c-0.2,0.1-0.4,0.1-0.6,0.1c-0.3,0-0.6-0.1-0.8-0.3c-0.9-1-1.7-1.7-2.7-2.1c-0.5-0.1-0.9-0.2-1.4-0.2c-1,0-1.9,0.3-2.9,1
				c-0.4,0.4-0.5,0.8-0.3,1.1c0.1,0.3,0.5,0.5,1.1,0.6c0.4,0,0.7,0,1.1,0c0.9,0,1.8,0.1,2.9,0.4c2.6,0.7,3.9,2.4,3.8,5.2V22
				c0,0.5,0.1,1.7,1,1.7c0.4,0,0.8-0.2,1.3-0.7c1.3-1.2,1.9-2.5,1.8-3.7C156.9,18.2,156.2,17.1,154.9,16 M158.2,18.3
				c0.8,1.3,0.8,2.4,0.4,3.5c-1.8,3.5-4.2,5.1-7.8,5.1h-0.2c-0.9,0-1.6-0.3-1.7-0.6c-0.2-0.3,0.3-0.8,0.5-1c1.8-1.4,2.4-3.2,1.8-4.8
				c-0.6-1.7-2.5-2.9-4.9-2.9c-0.5,0-1,0-1.5,0.1c-1.1,0-2.1-0.3-2.9-0.8c-1.5-1.2-2.8-1.8-4.1-1.8c-0.6,0-1.2,0.1-1.9,0.4l-0.1,0
				c-0.6,0.6-0.6,1.3,0.1,2c0.5,0.5,1,0.7,1.7,0.8c1.6,0.5,2.8,0.9,3.3,1.4c0.1,0.2,0.2,0.4,0.2,0.5c0,0.1-0.2,0.2-0.8,0.3
				c-0.4,0.1-0.7,0.1-1.1,0.1c-0.4,0-0.7-0.1-1.2-0.2c-2-0.8-3.9-2-6.1-3.8c-0.6-0.6-0.7-1-0.1-1.6c1.8-1.6,3.5-2.3,5.4-2.2
				c0.7,0,1.4,0.1,2.1,0.3c1.1,0.3,2.1,0.4,3,0.4c0.7,0,1.5-0.1,2.1-0.3l4.3-1.3c0.7-0.3,1.3-0.4,1.9-0.4c0.7,0,1.2,0.2,1.7,0.6
				l0.3,0.3c0,0-0.2,0.1-0.5,0.3c-0.4,0.4-0.6,0.7-0.4,1c0.1,0.5,0.8,0.6,1.3,0.6c0.3,0,0.7-0.1,1,0c0.6,0,1,0.1,1.3,0.5
				C156.5,15.8,157.5,17,158.2,18.3 M150.6,9c0.3-0.2,0.5-0.5,0.5-0.7c0-0.5-0.3-1-1-1.6c-0.5-0.6-1.3-1.1-2.4-1.9l-0.9-0.6
				c-1.5-1.1-3.6-2.8-4-6.1l0-0.2v-0.5c-1.1,0.8-1.4,1.9-1,3.7c0.3,1,0.6,1.4,1.2,2.1l0.4,0.5c0.9,1.1,1.5,2.2,1.8,3.5
				c0.3,1.3,0.7,2.2,1.1,2.6c0.3,0.3,0.6,0.5,0.9,0.5l0.3,0C148.8,9.9,149.8,9.4,150.6,9 M143,5.1c-0.3-0.1-0.8,0.1-1.1,0.8
				c-1,2-0.4,3.7,1.9,4.8c0.3,0.1,0.5,0.2,0.7,0.1c0.7,0.1,1.2-0.7,0.4-0.9c-2.2-1-2.8-1.9-1.4-4.4C143.5,5.3,143.3,5.1,143,5.1
				 M139.7,0.3c0.1,0,0.1-0.2,0.1-0.5c-0.2-1.8-0.4-4-1.1-5.3c-0.1-0.4-0.2-0.4-0.3-0.4l-0.2,0.1c-1,0.9-1.5,2-1.5,3.4
				c0.1,0.4,0.4,0.6,0.6,0.5c0.3-0.1,0.2-1.2,0.7-1.1c0.9,0.2,0.8,1.4,0.9,2.2C139.2-0.3,139.4,0.3,139.7,0.3 M140,3.9
				c0.4,0,0.8-0.3,0.9-0.6c0.1-0.2,0-0.4-0.2-0.6L140,2.3c-1.5-1.1-3.1-2.2-4.3-3.2c-1.7-2.1-2.2-4.4-1.6-7.5v0l-0.1,0
				c-1.1,0.8-1.7,2.6-1.5,4.4c0.2,1.8,1.4,5.2,7.2,7.9L140,3.9 M132.8,4.2c-0.6-0.5-1.2-0.9-1.1-1.3c0.1-0.2,0.3-0.4,1.6,0.2
				c0.9,0.4,4.8,2.8,5.7,3c0.4,0.2,0.5-0.3,0.5-0.3c0-0.1-0.1-0.3-0.5-0.6c-1.1-0.8-6.9-3.8-8.3-5.1c-0.2-0.2-0.4-0.2-0.6-0.3
				c-0.1,0-0.3,0-0.5,0.3c-0.7,1.4-0.2,2.7,1.5,4.1c3.5,2.5,6.2,3.9,8.2,4.4h0.1l0.2,0c0,0,0-0.1-0.1-0.4c-0.3-0.4-1.2-1-2.3-1.5
				C135.8,6.2,134.4,5.4,132.8,4.2 M140.8,11.9c1.6,0.2,0.5-0.7,0.2-0.9c-0.5-0.3-1.3-0.7-2-1c-1.6-0.6-4.2-2-5.9-2.7
				c-1.5-0.6-2.4-0.6-3-0.5c-1,0.1-1.6,0.6-1.7,1.1c-0.4,1.9,0.9,3.3,4.4,4.1h0.1c0.8,0,1.1-0.2,1.1-0.2c0,0,0-0.1-0.2-0.3l-3.5-1.5
				c-1.2-0.6-0.6-1.8-0.3-1.9c0.2-0.1,0.6,0,0.9,0.1c1.6,0.2,7.2,3,8.1,3.4C139.5,11.8,140.2,11.9,140.8,11.9 M129.9-3.2
				c0.7,0.5,1,0.8,1,0.3c0-0.5-0.3-0.9-0.8-1.5c-0.4-0.3-0.8-1-1.1-1.9l-0.6-2c-0.1-0.3-0.3-0.4-0.5-0.4l-0.5,0.2
				c-1,0.6-1.3,1.8-1.5,2.6c-0.3,1.9,0.1,4,1,5.2c0.1,0.2,0.3,0.3,0.3,0.3l0.2-0.1c0.5-0.2,0.9-0.6,0.5-1.2
				c-0.5-0.6-1.2-2.5-0.7-3.5C127.9-6.3,128.9-4,129.9-3.2 M124.5-0.7c0.1-0.1,0.4-0.4,0.3-0.6c0-0.1-0.1-0.3-0.4-0.3h-0.1
				c-0.7,0-5.8,2-8.9,3.5L115,2.1l-0.4,0.2c-0.4,0-0.5-0.1-0.7-0.3l-0.1-0.2c0-0.3,0.6-0.6,0.8-0.7l0.1-0.1c2.9-1.9,5.7-2.7,9.4-3.6
				l0.1-0.1l0-0.3l0-0.1v0L124-3.3l-0.4-0.1C121-3,118-2.5,114.7-0.5c-0.6,0.2-1.3,0.3-1.9,0.3c-0.6,0-1.1-0.1-1.7-0.3H111l-0.1,0.1
				c0.3,1.6,1,2.9,2.1,4.1l0,0c0.2,0.2,0.4,0.4,0.6,0.4l0.5-0.2c1.6-0.7,3-1.4,4.3-2.1c0.4-0.2,0.7-0.4,1.1-0.6
				C121.3,0.5,122.8-0.3,124.5-0.7 M128.2,15.1c-0.2,0-0.5,0-0.7-0.4c-0.1-0.6,0.4-2,0.6-2.4l-0.1-0.1c-1.1,0.9-1.8,2.1-1.7,3.3
				c0.2,0.8,0.8,1.2,1.5,1.3c0.3,0,0.6-0.1,0.9-0.3c0.7-0.5,1.3-1.4,1.6-2.6c0-0.2,0-0.4-0.1-0.6l-0.3-0.2l-0.3,0.2
				C129.3,14.1,128.6,15.2,128.2,15.1 M123.5,12.7c-0.7-0.1-1.3-0.8-1.4-1c-0.2-0.4-0.1-0.9,0.2-1.3c0.7-0.8,1.6-1.5,2.6-2.1
				l0.1-0.1c0.7-0.5,1.4-1,2.1-1.5l0.1-0.1l-0.1,0l-0.2,0.1c-2.2,0.9-4.9,2.2-6.2,4c-0.3,0.5-0.7,1.4-0.2,2.1c1.1,1.2,2.1,1.8,3,1.8
				c0.4,0,0.8-0.1,1.1-0.4c1.1-1,1.5-2.3,1.8-3.5c0.1-0.3,0.1-0.6,0-0.7l-0.2,0l-0.4,0.2C125.3,10.8,124.2,12.7,123.5,12.7
				 M127.1,4.2c-0.8,0-3.4,1.3-5.4,2.3l-0.1,0l-0.5,0.3c-0.9,0.4-1.9,1-2.6,1l-0.4-0.1c-0.4-0.3-0.7-0.9-0.8-1
				c-0.2-0.7,0.3-1.1,0.8-1.4l0.1-0.1c2.3-1.8,5.2-3.2,7.2-3.9c0.3-0.1,0.5-0.2,0.5-0.3L126,0.7l0-0.1v0l0,0l-0.2,0v0
				c-4.9,1.3-8.4,3.2-10.2,5.6c-0.7,1.1-0.2,2.4,0.6,3.1c0.4,0.3,0.7,0.5,1.1,0.5c0.3,0,0.7-0.1,1.2-0.3c0.9-0.4,8.6-4.1,8.9-5V4.3
				L127.1,4.2z M52.8-1.4c-0.1-0.1-0.2-0.2-0.5-0.2c-0.3,0-0.6,0.1-1,0.3c-9.1,6.2-21.8,17.4-30.7,35.8c-1,3.1-2.9,5.7-5.7,7.8
				c-0.5,0.3-0.6,0.6-0.6,0.7c0,0,0.1,0.3,1.1,0.5c0.6,0.1,1.2,0.1,1.8,0.1c6.2,0.1,11.1-2.3,14.8-7.2C43,20.3,52.4,9.8,61,4.1
				c0.7-0.6,0.8-1.5,0.7-1.8l-0.2-0.1c-0.2,0-0.3,0.1-0.6,0.3c-9.1,7-19.6,15.6-28.3,29.4c-2.3,3.1-4.7,5.4-7.2,7
				c-1,0.6-1.8,0.9-2.3,0.9c-0.3,0-0.6-0.1-0.8-0.3c-0.3-0.3-0.3-0.8-0.2-1.5C30,20.9,39.8,8.3,52.2-0.5C52.8-0.9,52.8-1.3,52.8-1.4
				 M27.2,36C39.8,16.4,49.4,7.7,57.1,1.8c0.9-0.5,1-0.8,1-0.9c0-0.1-0.3-0.2-0.8-0.2c-0.4,0-0.9,0.1-1.4,0.3
				c-12.6,9-22.7,20.2-30.1,33.3c-0.5,0.9-0.6,1.7-0.4,2c0.1,0.1,0.2,0.2,0.4,0.2C26.2,36.6,26.8,36.3,27.2,36 M39.6,35.8
				c-0.3,0-0.6-0.2-0.8-0.4c-0.3-0.4-0.2-1,0.2-1.8c7.2-10.4,14.6-17.3,21.6-23.4c0.6-0.4,1.1-1.9,0.9-2.5l-0.2-0.1
				c-0.1,0-0.3,0.1-0.5,0.3c-11.7,8.4-20,17.5-25.5,27.8c-0.2,0.8-0.1,1.5,0.4,2c0.4,0.6,1.2,0.9,2.1,0.9c0.9,0,1.9-0.3,2.8-0.8
				c1.7-1.4,4.4-4.4,7.5-8l0.2-0.2c4.3-4.9,9.3-10.5,13.8-14.1c0.5-0.6,0.5-1.9,0.2-2.5L62.2,13L62,13.2
				C55.2,19.1,47.5,26,41.6,34.5C41,35.4,40.2,35.8,39.6,35.8 M63.6,18.3C56.5,23.7,51,28.7,46.8,35.7c-0.5,1.5-0.4,2.7,0.2,3.5
				c0.6,0.8,1.6,1.2,3,1.2c0.7,0,1.4-0.1,2.2-0.2c1.7-0.7,3.3-1.9,4.9-3.5L67,26.3c0.3-0.4,0.2-1.1,0-1.6l-0.4-0.3l-0.4,0.2
				c-1.3,1.3-2.7,2.7-4,4.1c-3,3.1-6.2,6.3-9.5,9.1c-0.5,0.4-1.1,0.6-1.7,0.6c-0.9,0-1.8-0.5-2.1-1.2c-0.4-0.7-0.2-1.5,0.3-2.3
				c4.6-6.1,9.5-10.7,14.5-15.2c0.3-0.4,0.3-1.1,0.1-1.4l-0.2-0.1L63.6,18.3z M66.2,20.5c-5.4,4.2-10.1,8.9-14.1,13.9
				C52,34.6,51.9,34.8,52,35l0.3,0.2l0.3-0.1c4.8-4,9.5-8.5,13.8-13.3c0.1-0.2,0.1-0.7-0.1-1.1L66.2,20.5z M67.8,28.3
				c-5.3,4.7-8.9,8.5-9.7,10.5c-0.5,1.8-0.5,3.1,0.1,3.9c0.5,0.6,1.4,1,2.7,1c0.9,0,2-0.1,3.3-0.4c1.5-0.5,4.5-3.2,8.9-7.9
				c0.2-0.4,0.2-0.9,0-1.3c-0.1-0.3-0.3-0.4-0.4-0.4l-0.6,0.5c-2.5,2.4-5.2,5-7.9,6.7c-0.7,0.3-1.3,0.5-1.9,0.5c-0.9,0-1.6-0.4-2-1
				c-0.4-0.6-0.3-1.3,0.1-2.1c2.2-3.2,5-6.2,8.3-8.8c0.3-0.3,0.4-0.7,0.3-1.1c-0.1-0.2-0.3-0.4-0.6-0.4C68.3,28.1,68,28.2,67.8,28.3
				 M71.4,31.9c0.4-0.4,0.5-1.2,0.4-1.6c-3.6,2.2-6.6,5-9.4,8.8l0.1,0.3l0.4,0.2l0.6-0.2L71.4,31.9 M72.1,48.3
				c0.6,0,1.1-0.1,1.6-0.3c2.2-1.1,4.3-2.9,6.2-5.4c0.1-0.3,0.1-0.6,0-0.9c-0.1-0.2-0.3-0.3-0.5-0.3l-0.3,0.1
				c-1.8,2-3.4,3.5-4.9,4.5c-0.5,0.3-0.9,0.4-1.4,0.4c-0.9,0-1.7-0.4-2.2-1.1c-0.4-0.6-0.5-1.4-0.2-2.1c0.4-1,1.9-2.7,5-5.6
				c0.1-0.2,0.1-0.5-0.1-0.7c-0.1-0.2-0.3-0.4-0.5-0.4l-0.3,0.1c-2.7,2.3-4.9,4.7-6.6,7.2c-0.4,0.9-0.3,1.9,0.2,2.7
				C68.9,47.5,70.5,48.2,72.1,48.3 M74.4,43.4c1.2-1.1,2.1-2,3.4-3.4c0.4-0.4,0.7-0.7,0.7-1c0-0.3-0.3-0.7-0.8-0.7
				c-0.2,0-0.4,0.1-0.6,0.2c-1.6,1.1-2.9,2.3-4.1,3.8c-0.3,0.4-0.4,0.8-0.3,1.1c0.1,0.2,0.4,0.4,0.8,0.4
				C73.7,43.7,74,43.7,74.4,43.4 M77.7,48c-0.6,1.2-0.5,2.1,0.5,2.8l3.2,2.6l0.4,0.1c0.3,0,0.5-0.1,0.5-0.3c0.2-0.3,0.2-0.6,0-0.9
				c-0.2-0.4-0.7-0.9-1.2-1.3L81,51c-0.8-0.7-1.6-1.4-1.6-2.2c0-0.4,0.2-0.8,0.6-1.2l2.4-2.7c0.2-0.3,0.2-0.7,0-0.9
				c-0.1-0.2-0.3-0.3-0.5-0.3l-0.4,0.1L77.7,48 M84.9,46.2l0-0.5c-0.1-0.2-0.4-0.3-0.6-0.3l-0.4,0.2l-1.9,3.3
				c-0.1,0.2-0.1,0.4,0,0.6l0.4,0.2l0.4-0.2L84.9,46.2z M82-5.3c-4.5,1.1-10.2,3.9-14.7,6.3c-3.1,2.1-4.2,4.3-3.3,6.7
				c0.4,0.6,0.8,0.8,1.4,0.9c0.5,0,1-0.2,1.7-0.6c4.5-3.3,8.6-5.6,12.4-7.2c0.6-0.2,0.8-0.8,0.8-1.1L80-0.6
				c-3.2,1.2-7.4,2.9-11.6,6.1c-0.5,0.3-1,0.4-1.4,0.4c-0.6,0-1.1-0.3-1.3-0.8c-0.2-0.5-0.1-1.2,0.4-1.6c3.8-3,8.9-5.1,14.2-7.2
				c1-0.6,1.5-1.3,1.7-1.6L82-5.3z M79,3c-5.9,2.8-10.2,5.6-13.4,8.7c-0.9,1.4-0.5,4.5,1.2,6.2c0.3,0.2,0.7,0.4,1.1,0.4
				c0.9,0,2.1-0.7,2.8-1.1l0.5-0.3c1.7-0.9,3.3-2,5.2-3.4c0.8-0.8,1.2-1.9,1.1-2.3l-0.1,0l-0.2,0.1l-7.2,4c-0.4,0.2-0.8,0.4-1.2,0.3
				c-0.6,0-1.2-0.3-1.5-0.9c-0.5-0.9-0.4-2.1,0.1-2.9c0.7-1.3,3.9-3.1,7.1-4.9c1.7-0.9,3.1-1.7,4.1-2.4c0.5-0.4,0.7-1,0.5-1.3L79,3
				 M70.7,13c3-1.6,5.2-3.2,7-4.7c0.2-0.2,0.3-0.6,0.3-0.8c0,0-7.8,3.8-8.7,5.3c-0.1,0.1,0.4,0.3,0.9,0.3L70.7,13 M77.5,23.8
				c0.4-0.3,0.4-0.9,0.2-1.3c-0.1-0.2-0.2-0.4-0.4-0.4l-3.5,2.1c-0.4,0.3-0.7,0.4-1.1,0.4c-0.5,0-1-0.3-1.3-0.9
				c-0.3-0.7-0.3-1.7,0.4-2.4c0.9-1.1,2.7-2.6,4.5-3.9c0.3-0.5,0.4-1,0.2-1.3l-0.2-0.1L76.1,16l-5.9,4.2c-1.5,1-1.9,2.3-1.4,4
				c0.5,1.2,1.2,2.1,2,2.7c0.3,0.2,0.7,0.4,1.1,0.4c0.4,0,0.9-0.2,1.4-0.5L77.5,23.8 M74.3,22.3l2.5-2l0-0.6l-0.4-0.3l-2.9,1.6
				c-0.2,0.2-0.3,0.5-0.2,0.8c0.1,0.3,0.4,0.5,0.7,0.5L74.3,22.3z M83,31.6c-0.1-0.3-0.3-0.6-0.5-0.6l-0.4,0.2l-2.4,1.7
				c-0.3,0.2-0.6,0.3-1,0.3c-0.7,0-1.4-0.5-1.8-1.2c-0.5-0.8-0.5-1.7,0-2.3l2.2-2.3c0.3-0.3,0.3-0.9,0.2-1.3
				c-0.1-0.2-0.2-0.3-0.4-0.3c-1.9,0.9-3.1,2.2-4.3,3.5c-1.3,1.9-0.5,3.2,0.7,5l0.6,0.9c0.6,0.6,1.2,0.9,1.8,0.9
				c0.3,0,0.6-0.1,0.9-0.3l4.4-3.2C83.1,32.4,83,31.9,83,31.6 M81.2,29c-0.1-0.2-0.4-0.4-0.6-0.4l-0.3,0.1l-1.5,1.1
				c-0.3,0.2-0.3,0.6-0.2,0.8c0.1,0.1,0.2,0.4,0.5,0.4l0.4-0.1l1.5-1.1C81.2,29.5,81.3,29.2,81.2,29 M88.8,37.5l-2,2.1
				c-0.5,0.3-0.9,0.5-1.3,0.5c-0.7,0-1.3-0.4-1.7-1.1c-0.5-0.8-0.6-1.8-0.2-2.5l1.5-2c0.3-0.4,0.2-1,0-1.4c-0.1-0.2-0.3-0.4-0.5-0.4
				l-0.3,0.2c-0.9,0.8-2,2.1-3.4,4.1c-0.5,0.8-0.4,2,0.3,3.2c0.9,1.6,2.6,2.9,3.8,2.9c0.5,0,0.9-0.2,1.3-0.5l3.3-3.7
				c0.3-0.5,0.2-1,0.1-1.2c-0.1-0.2-0.3-0.3-0.5-0.3L88.8,37.5z M85.6,38.3l1.8-1.7c0.1-0.2,0.1-0.5-0.1-0.7
				c-0.1-0.2-0.3-0.3-0.5-0.3l-0.2,0.1l-1.7,1.7c-0.1,0.2-0.1,0.4-0.1,0.6c0.1,0.2,0.3,0.4,0.6,0.4L85.6,38.3z M79.4,81.3
				c0.9-8,2.4-13.8,4.6-17.6c0.4-0.7,0.3-2.2,0-2.9c-2.7,4-4.3,8.5-5.2,14.6c-0.3,1.5-0.8,1.8-1.2,1.8c-0.6,0-0.9-0.8-1.1-1.3
				c-1-5,0.2-11.1,3.8-19.1c0.2-0.4,0.2-0.9-0.1-1.3c-0.1-0.2-0.4-0.3-0.5-0.3l-0.3,0.2c-4.6,7.1-5.9,21.6-2.2,26.2
				c0.4,0.5,1,0.8,1.4,0.8C79.2,82.4,79.4,81.7,79.4,81.3 M82.4,57.1c-2.4,3.8-3.8,8.3-4.4,13.7l0.3,0.3l0.1-0.2
				c0.7-4.5,2.2-8.5,4.4-11.8c0.2-0.5,0.1-1.5-0.2-2L82.5,57L82.4,57.1z M104.7-9.2c1.7-0.6,3.2-1.3,4.3-2.6
				c0.9-1.1,1.3-2.3,1.1-3.6c-0.2-1.2-1.1-2.3-2.4-3c-1.2-0.6-2.3-0.6-3.6-0.7c-14.6-0.2-28.6,3.3-41.6,10.6c-2.5,1.7-5.1,2.4-8,2.4
				c-0.3,0-0.6,0-0.9,0c-0.8,0-1.4,0.2-1.5,0.5c-0.1,0.2,0.1,0.7,0.5,1.3c2.7,2.1,5.6,3.1,8.8,3.2C63.2-1,65-1.3,67-1.9
				c0.4-0.1,0.5-0.2,0.4-0.5l-0.5-2.4c-0.1-0.3-0.3-0.5-0.4-0.5c-0.1,0-0.3,0.1-0.3,0.4L65-3.1c-0.7,0.6-1.4,0.9-2.5,0.9
				c-1.7-0.1-2.6-0.4-2.9-1c-0.2-0.4-0.1-0.9,0.3-1.6L60-4.8c12.2-8.1,25-11.7,39.1-12.7c1.1-0.1,2.1-0.2,3.2-0.2
				c1.6,0,2.8,0.3,3.8,0.7c1.1,0.6,1.8,0.8,1.9,1.8c0.1,1-0.4,1.9-1.3,2.7L98-8.4c-3.3,1.3-5.5,3.4-6.8,6.5
				c-1.7,4.5-6.7,18.1-2.1,24.1c1.8,2.8,3.8,4.7,6.2,5.7h0.1h0c0.4,0,0.7-0.2,0.9-0.6c0.3-0.5,0.3-1.3-0.3-1.9
				c-7.8-6.2-6.8-10.7-5.1-18.4l0.2-0.9c1.7-7.8,4.3-10.6,8.4-12.9c1.1-0.6,2.1-1.2,3.2-1.7C103.3-8.6,103.9-8.9,104.7-9.2
				 M171.8,10.4c0.6-1.7,0.1-2.6-0.4-3.5c-2.6-3.1-4.9-5-6.7-6h-0.1L164.1,1l0,0.3l0.8,0.7c0.4,0.4,0.5,0.7,0.5,1
				c-0.1,0.2-0.2,0.5-0.4,0.6l-0.1,0l-0.3,0.1c0,0.1,0.2,0.3,0.4,0.5c2.4,2.9,4.9,6.5,3.5,11.4c-0.6,2.3-1.5,4.7-3.2,4.7l-4.5,0.1
				c-0.4,0.1-0.7,0.5-0.6,0.9c0,0.4,0.3,1,0.9,1.1h5.6c1.3-0.2,2.3-1.2,2.9-3.1L171.8,10.4z M158.1,15c0,0.1,0,0.3,0.3,0.5
				c1.2,0.9,2.4,1.4,3.4,1.4c1.2,0,2.4-0.6,3.5-1.7c0.2-0.4,0.2-0.7,0.1-0.9l-0.3-0.2l-0.3,0.1c-0.8,0.9-2.1,1.3-3.5,1.3
				c-0.9,0-1.8-0.2-2.9-0.5L158.1,15 M166.1,10c-0.7-1.9-2.2-3.9-3.4-5.4c-0.9-1.4-1.1-2.1-0.8-3.7c0.2-1.4-0.4-2.2-2-2.8
				c-0.6,0-1.2,0.4-1.4,1c-0.1,0.3-0.1,0.8,0.4,1.1c0.5,0.3,1,0.7,1.4,1.1c0.4,0.5,0.6,0.9,0.6,1.5c0,0.2,0,0.5,0,0.7
				c0,0.4,0,0.6-0.1,1c-0.2,0.4-0.1,0.6,0.1,0.9c0.7,0.9,1.6,1.8,2.7,2.8c0.7,1,0.9,1.6,0.6,2.1c-0.1,0.2-0.4,0.6-0.9,0.7
				c-1.9-0.1-4.2-0.9-7.1-2.4l-0.3-0.1l0.2,0.4c3.2,2.5,5.8,3.7,8.1,3.8c0.3,0,0.7,0,1-0.1c0.5-0.2,0.9-0.4,1-0.7
				C166.5,11.3,166.5,10.7,166.1,10 M159.5,2.4c-0.1-0.3-0.3-0.5-0.5-0.5c-0.3-0.1-0.6,0.2-0.8,0.5c-0.6,0.8-0.8,1.5-0.7,2.3
				c0.2,0.9,0.6,1.5,1.2,2l0.1,0.1c-0.4-1.5-0.2-2.5,0.6-3.3C159.6,3.1,159.6,2.8,159.5,2.4 M116.5-5.9c2.6-0.4,3.6-2,3.2-4.9
				c-0.3-3.9-2.7-4.5-5.3-4.6c-0.3,0-0.5,0-0.8,0h-0.1c-0.3,0.1-0.5,0.2-0.4,0.3c0,0.2,0.4,0.4,1,0.5l0.4,0c2.2,0,3.7,2,3.8,3.9
				c0.1,1.8-1,3.1-2.7,3.3c-4,1-7.2,2.3-9.3,3.7c-4.2,2-6.2,6.2-6.1,12.4l0.1,0.6l0.2-0.1c0.9-0.7,1.4-2.3,1.5-4.8
				C103.5-1.8,108.8-4.2,116.5-5.9 M115.4-12.3c-0.5-0.2-1-0.2-1.5-0.2c-1.3,0-2.1,0.5-2.4,1c-0.2,0.3-0.2,0.7-0.1,1
				c0.3,0.5,1.2,0.9,2.4,0.9c0.5,0,1-0.1,1.5-0.1c0.2-0.1,0.4-0.2,0.4-0.2l-0.3-0.1c-1.5-0.1-2-0.7-1.9-1.2c0-0.5,0.5-1,1.9-1
				L115.4-12.3 M104.9-5c0.9-2.1,7-2,6.2-2.4c-2-1-6.8,0.3-8.3,2.2L102.6-5c0,0.1,0.4,0.3,1.1,0.3C104.2-4.7,104.6-4.8,104.9-5
				 M103.6,6.9c-1.4,2.9-2.6,5.1-4.3,6.1c-0.1,0.1-0.2,0.4-0.2,0.8c0,0.4,0.2,0.8,0.4,1.1l3.6,2.7l0.1,0l0.2,0
				c0.5,0,0.9-0.2,1.1-0.6c0.2-0.3,0.1-0.7-0.1-1c-0.3-0.3-0.6-0.7-1-1l-0.3-0.3c-0.7-0.9-0.6-1.6-0.5-2.3c1.3-5.3,3.8-7.8,6.9-10.6
				c0.1-0.1,0-0.6-0.5-0.3C106.7,2.6,104.8,4.6,103.6,6.9 M113.8,9.7c-0.6,1.4-1.2,3.5-1.6,7.5c-0.2,1.2-0.8,1.5-1.3,1.4
				c-0.5,0-1.2-0.3-2-1.1c-1.3-2.2-0.6-5.7,2.6-11.3c0.2-0.4,0.2-0.7,0.1-0.8l-0.1,0c-0.1,0-0.2,0-0.4,0.3c-2.7,3.3-4.2,7-4.6,11.3
				c0,1.1,0.4,1.9,1.5,2.6c1.1,0.7,2.4,1.3,3.8,1.6c0.7,0,1.2-0.1,1.4-0.4c0.2-0.2,0.2-0.4,0.2-0.7c-0.2-4,0.3-7.4,0.9-10.3
				c0.1-0.2,0.1-0.4,0-0.5l-0.2,0L113.8,9.7z M109.8,15.5c0.2,1.1,0.8,0.4,0.9,0.3c0.6-3.7,1.3-6.2,2.3-8.8l0.1-0.4l-0.1,0.1
				c-0.3-0.3-2.4,4.5-3.1,7.8C109.7,14.9,109.7,15.2,109.8,15.5 M105.2,13.2c1.2-3.5,2.6-6.4,4.4-9.1c-0.8-0.3-4.2,4.9-5.3,8.4
				C104.1,12.9,104.7,14.1,105.2,13.2 M121.1,20.2c-0.1,1.2-0.7,1.6-1.3,1.6c-0.7,0-1.5-0.6-2.2-1.6c-0.9-2.7-1.2-5.1-0.9-7.7
				c0.1-0.4-0.1-0.8-0.3-1l-0.4-0.2c-0.2,0-0.5,0.3-0.6,1l-0.1,0.7c-0.2,3.5-0.5,7.6,1.3,9.6c0.8,0.9,2.1,1.3,3.7,1.4
				c0.4,0,0.8,0,1.3-0.1c0.4-0.1,0.7-0.2,0.9-0.5c0.9-1.6-0.7-6.2-1.4-7.6c-0.2-0.4-0.4-0.5-0.5-0.5c-0.2,0.2-0.2,0.3-0.2,0.7
				L121.1,20.2 M118.5,18.3c0,0.4,0.4,0.7,0.8,0.7l0.3-0.1c0.1-0.1,0.1-0.3,0-0.6c-0.3-1.6-0.5-2.7-0.5-4.4c0-0.3-0.3-0.4-0.4-0.4
				c-0.1,0-0.2,0-0.2,0.3C118.3,15.4,118.3,16.9,118.5,18.3 M120.6,5.8c1.3-0.7,3.8-2.1,5.1-2.5C126,3.2,126,3,126,2.8
				c0-0.1-0.1-0.2-0.3-0.1c-1.3,0.3-4.2,1.7-5.4,2.1c-0.3,0.1-0.5,0.5-0.4,0.8l0.2,0.2C120.2,6,120.4,5.9,120.6,5.8 M130.7,23.8
				c0.4-0.4,0.3-0.9-0.1-1.5c-1-1.1-1.7-2.2-2.4-3.4c-0.2-0.2-0.4-0.3-0.6-0.3l-0.2,0.1c-0.1,0.1-0.1,0.3-0.1,0.5
				c0.2,0.9,0.6,1.7,1.1,2.4c0.2,0.3,0.3,0.6,0.1,0.9c-0.1,0.3-0.4,0.4-0.7,0.4c-0.4,0-0.7-0.2-1-0.6c-1-1.7-1.3-2.8-1.6-4.5
				c-0.2-1-0.8-1.4-1.3-1.4l-0.4,0.1c-0.1,0.1-0.1,0.3-0.1,0.6l1.2,4.9c0.7,2.3,3,2.5,3.6,2.5C129.3,24.5,130.2,24.2,130.7,23.8
				 M144.2,18.8c-5.5,4.4-6.6,9.1-3.2,14.3c0.3,0.3,0.7,0.4,0.9,0.4l0.2-0.1c0.1-0.1,0.1-0.3,0-0.6c-2.6-5.3-1.2-9.8,4-13.4
				c0.1-0.1,0.3-0.3,0.2-0.5c-0.1-0.2-0.4-0.3-0.8-0.3C145,18.5,144.6,18.6,144.2,18.8 M148.4,20.8c-5.6,4.3-7.3,8.6-5,13.2
				c2.8,3.4,6.1,6.2,8.9,8.6l0.1,0.1c6.2,5.2,11,9.3,7.4,16.6c-0.2,0.4-0.3,0.7-0.2,0.8l0.3-0.2c4.8-5.4,3.8-11-2.9-17.3l-10.1-9.1
				c-1.4-1.8-1.8-3.6-1.4-5.3c0.4-1.7,1.8-3.3,4-4.9c0.5-0.6,0.7-1.3,0.5-1.9c-0.2-0.4-0.6-0.7-1-0.7
				C148.9,20.6,148.7,20.6,148.4,20.8 M144.5,57.9c-0.6,0-1.2,0-1.9,0c-4.5,0.8-7.6,3.5-8.5,7.3c-0.8,3.5,0.6,7.1,3.6,9.2
				c0.3,0.2,0.6,0.3,0.9,0.3c0.7,0,1.3-0.3,1.5-0.7c0.2-0.4-0.1-0.9-0.7-1.4c-2.6-2.1-3.7-4.7-3.1-7.1c0.6-2.6,3.1-4.9,6.3-5.6
				c2.1-0.2,4.2-0.3,6-0.3c6.3-0.2,10.8-0.3,10.7-6.7c0-0.7-0.4-1.1-0.6-1.1c-0.2,0.2-0.4,0.4-0.4,1.1c-1.1,4.9-3.1,5.9-5.8,5.8
				c-0.9,0-1.8-0.1-2.9-0.3l-0.4-0.1C147.7,58.1,146.2,58,144.5,57.9 M155.8,33.9c-3.8-2.1-6.6-3.9-8-5.9c-0.2-0.2-0.5-0.3-0.7-0.3
				l-0.2,0.1c-0.2,0.2-0.1,0.8,0.1,1.4c0.6,1.8,4.3,4.3,7.5,6.3c6.8,4,10.8,10.3,10.6,16.5c-0.2,4.7-2.8,8.5-7.4,10.8
				c-1.3,0.9-4,1.2-9.2,1.1c-1.5,0-3.1-0.1-5.1-0.2c-1.6,0.1-2.9,0.8-3.4,2.1c-0.5,1.4,0,3,1.3,4.2c0.3,0.3,0.7,0.4,1,0.4l0.3-0.1
				c0.1-0.1,0-0.4-0.3-0.9c-0.7-1.2-0.6-1.9-0.4-2.4c0.3-0.5,0.9-0.9,1.7-0.9l11.2,0c6.5-0.6,11.4-5,12.6-11.5
				C168.7,47.9,165.7,38.8,155.8,33.9 M151.8,84.7c0.6,0,1.1-0.3,1.4-0.9c0-0.1,0-0.1-0.2-0.1c-0.5,0-1.2,0.1-1.9,0.5
				c-0.1,0.3,0,0.3,0.1,0.4C151.4,84.6,151.6,84.6,151.8,84.7 M148.1,84.1h0.3c1,0,1.8-0.3,2.4-0.8c0.2-0.2,0.2-0.4,0.2-0.4
				c0,0,0-0.1-0.3-0.2h-0.4c-0.9,0-1.7,0.2-2.4,0.7c-0.2,0.2-0.2,0.4-0.2,0.5L148.1,84.1z M147.3,81.2c-1.2,0-2.2,0.4-3,1.2
				c-0.2,0.2-0.2,0.3-0.2,0.4l0.2,0.1c0.3,0.1,0.7,0.1,1,0.1c1.1,0,1.9-0.4,2.4-1.3l0.1-0.3L147.3,81.2 M145.9,74.8
				c0.8,0,1.2-0.4,1.4-1.2c0.4-1.7-0.2-3.1-1.8-4.3l-0.1,0c-0.4-0.3-0.7-0.5-1-0.6l-0.2,0c-0.2,0-0.3,0.1-0.3,0.1
				c-0.1,0.2-0.1,0.5,0,0.8c0.5,1.1,0.3,2.2-0.6,3c-0.3,0.3-0.2,0.5,0.1,0.8c0.3,0.3,0.7,0.6,1.1,0.9c0.3,0.3,0.8,0.5,1.3,0.5H145.9
				z M153.9,82.2c1.7-0.3,2.5-1.3,2.2-3.3c-0.2-1,0-1.9,0.6-2.5c0.2-0.2,0.2-0.9,0-1.5c-0.1-0.3-0.3-0.4-0.3-0.5
				c-1.1,1.3-1.4,2.8-1.5,4.2c0,1.6-0.4,2.7-1.3,3.4l0,0.1C153.6,82.2,153.7,82.2,153.9,82.2 M151.3,81.3c0.5,0,0.9-0.2,1.3-0.6
				c0.7-0.7,1.1-1.9,1-3.1c-0.2-0.8,0-1.6,0.6-2.4c0.7-1.2,1-2.2,0.8-2.9c-0.1-0.4-0.4-0.8-0.9-1.1c-0.3-0.1-0.5-0.2-0.7-0.2
				l-0.1,0.2c0.2,0.8,0.2,1.7-0.6,2.7c-0.7,0.9-0.8,1.9-0.4,2.8c0.3,1.6-0.2,2.9-1.7,3.8c-0.3,0.2-0.3,0.3-0.3,0.3s0,0.2,0.6,0.4
				L151.3,81.3 M147.4,69.1c2.3,2.1,2.4,4.3,0.6,6.6c-0.3,0.3-0.5,0.6-0.5,0.8c0,0.2,0.1,0.4,0.4,0.5c0.8,1,0.4,1.7,0,2.2l-0.2,0.2
				c0,0,0.2,0.1,0.7,0.2c1.1-0.1,1.9-0.8,2.7-2c0.3-0.8,0.3-1.6-0.1-2.4c-0.4-0.9-0.3-1.7,0.3-2.6c0.6-1.1,0.6-2.1,0.2-2.9
				c-0.5-0.8-1.7-1.4-3-1.4c-0.4,0-0.7,0-1.1,0.1l-0.3,0.2C147.1,68.7,147.1,68.8,147.4,69.1 M136.2,81.3c0.6,0.8,1.5,1.4,2.5,1.9
				c0.3,0.2,0.6,0.3,0.9,0.3c0.4,0,0.8-0.1,1.3-0.3c0.6-0.5,1.3-1,1.9-1.4c2.1-1.5,4.2-3,3.2-4.4c-1.1-1.6-2.4-2.4-3.7-2.4
				c-0.3,0-0.7,0-1.1,0.1c-1.3,0.6-1.9,1.5-1.8,2.7c0.1,0.4,0.2,0.4,0.3,0.4l0.4-0.1l1.3-0.6c0.2-0.1,0.4-0.1,0.6-0.1
				c0.4,0,0.7,0.2,0.8,0.5c0.2,0.4,0.1,0.8-0.3,1.2l-1.9,1.6c-0.4,0.3-0.7,0.4-1.1,0.4c-0.5,0-1-0.3-1.4-0.9c-1-1.1-2.7-2.2-5.2-3.5
				c-1.4-0.8-1.7-1.9-1.1-3.2l1.1-1.8c0.1-0.4,0.1-0.9-0.2-1.2c-0.2-0.3-0.4-0.4-0.7-0.4c-0.2,0-0.4,0.1-0.6,0.2
				c-2.2,1.8-2.6,4.1-1.4,6.8c1,1,2,1.8,3.2,2.4C134.5,79.8,135.5,80.5,136.2,81.3 M130.6,83.8c0.7,0,0.8,0.3,0.8,0.4
				c0,0.1,0,0.5-1,0.8c-1.6,0.4-3,1-4.1,1.8l-0.2,0.5c0.1,0.2,0.4,0.3,0.7,0.3l0.3-0.1l3.2-1.4L135,85c0.2-0.1,0.6-0.4,0.6-0.8
				c0-0.5-0.5-1.1-1.3-1.5c-0.7-0.2-1.4-0.3-2.1-0.3c-2.2,0-4.6,0.7-7.4,2.4c-0.3,0.2-0.5,0.4-0.4,0.6c0.1,0.3,0.4,0.4,0.9,0.2
				c2-1,3.6-1.6,4.9-1.7C130.3,83.8,130.5,83.8,130.6,83.8 M127.8,77.5c-1.1-0.7-2-0.9-2.9-0.8c-0.6,0.1-1.2,0.4-1.7,0.9
				c-0.2,0.2-0.2,0.4-0.2,0.6l0.4,0.2l0.1,0c0.8-0.3,1.5-0.4,2.2-0.4c0.7,0,1.3,0.2,1.5,0.6c0.2,0.4,0.2,0.9-0.1,1.6
				c-0.9,1-2.2,1.8-4.3,2.6l0,0l-0.2,0.4c0.1,0.2,0.4,0.4,0.9,0.4h0h0.2l0.1,0c1.6-0.4,5-1.2,5.8-2.9c0.3-0.5,0.3-1.1,0-1.7
				C129.1,78.6,128.6,78,127.8,77.5 M124.9,79.3c-1.8,0.6-3.1,1.2-4.2,1.9c-0.3,0.2-0.4,0.4-0.4,0.7c0,0.2,0.2,0.3,0.4,0.3h0.1
				l0.1,0c1.7-0.5,3.2-1.1,4.4-1.9c0.2-0.2,0.3-0.5,0.2-0.7C125.5,79.5,125.4,79.3,124.9,79.3L124.9,79.3 M124.1,91.1
				c0.8,0,1.4-0.4,1.6-0.9c0.3-0.6,0.2-1.4-0.4-2.4c-2.2-2.9-4.9-4.6-8.3-5.3c-0.7,0-0.8,0.4-0.8,0.5c-0.1,0.3,0.1,0.6,0.5,0.8
				c2.8,0.8,4.9,2.1,6.4,3.8c0.3,0.4,0.6,0.9,0.4,1.3c-0.1,0.1-0.2,0.3-0.6,0.3l-0.4,0c-2.7-0.8-4.6-1.2-6-1.2c-0.3,0-0.6,0-0.9,0.1
				c-0.6,0.1-0.8,0.5-0.8,0.7c0,0.3,0.3,0.5,0.8,0.6c2.5,0.2,4.5,0.6,6.5,1.4c0.6,0.1,1.2,0.2,1.8,0.2H124.1 M119.7,86.4
				c-0.3-0.3-1.6-0.7-2.7-0.7c-1,0-1.4,0.2-1.4,0.3l0,0.1l0.2,0.4c0.4,0.4,1.7,0.8,3,0.9c0.6,0,1.1-0.1,1.2-0.3
				C120,86.9,119.9,86.7,119.7,86.4 M124.3,75.1l-0.1,0.2l0.2,0l0.4,0c3.1-1.2,4.5-2.9,4.4-5.4c0-0.2-0.1-0.3-0.5-0.3
				c-1.3,0.1-2.3,0.7-3.3,1.8l-0.1,0.2l0.3,0c0.4,0,0.8,0.1,1,0.5c0.2,0.3,0.1,0.6-0.3,1.1L124.3,75.1z M130.1,61.5
				c-0.9,0.5-1.6,1-1.5,2.8c0,1.2-0.7,2.4-1.5,2.4c-0.1,0-0.4-0.1-0.6-0.4c-0.7,0.3-1.1,0.8-1.3,1.2c-0.2,0.6-0.1,1.1,0.1,1.4
				c0.1,0.2,0.3,0.2,0.5,0.2c0.7,0,1.6-0.5,2.4-1.3c1.4-1.5,2.1-3.7,2-6.1L130.1,61.5 M122.7,70.1c-0.4,0.5-0.6,1-0.5,1.2
				c-0.3,3.2-1.2,5.4-2.9,7.1c-0.3,0.3-0.6,0.4-0.8,0.4h-0.1l-0.3-0.2c-0.2-0.2-0.3-0.4-0.3-0.8l0.1-2.2c0-0.2-0.1-0.3-0.4-0.3
				c-0.3,0-0.6,0.2-0.8,0.4c-0.6,1.1-0.9,2.5-0.7,4.2c0.1,0.3,0.4,1.3,1.5,1.3c0.3,0,0.6-0.1,1-0.2c3.6-2.4,4.8-7.1,5.6-11.3v-0.3
				l-0.1-0.1l-0.1,0C123.4,69.4,123,69.7,122.7,70.1 M111.2,91.1c3.1-2.7,3.5-7.7,3.5-12.3c0-0.5-0.1-0.8-0.4-0.8
				c-0.4,0-1,0.7-1.1,1.8c-0.1,3.1-0.4,6.3-2.1,9c-0.4,0.3-0.6,0.4-0.9,0.4c-0.5,0-0.7-0.4-0.7-1.2l-0.1-2.8
				c-0.1-0.3-0.1-0.4-0.2-0.5l-0.2,0c-0.1,0.1-0.4,0.4-0.9,1.3l0,0c-0.3,1.6-0.3,3.8,0.5,4.8c0.3,0.4,0.7,0.6,1.2,0.6
				C110.2,91.5,110.6,91.4,111.2,91.1L111.2,91.1z M110.9,86c0.1,0,0.3-0.1,0.5-0.3c0.5-0.6,0.9-1.7,0.6-3.2
				c-0.1-0.2-0.1-0.5-0.4-0.5c-0.2,0-0.5,0.2-0.7,0.6l-0.4,2.3c0,0.7,0.2,1,0.2,1.1L110.9,86 M119.2,76c0.2,0,0.5-0.2,0.7-0.5
				c0.4-0.5,0.5-1.2,0.3-1.8l-0.4-0.3c-0.1,0-0.2,0-0.4,0.3c-0.4,0.4-0.6,1.2-0.6,1.6C118.9,75.4,119,76,119.2,76 M101.5-3.3
				c-2.5,0-4.4,0.5-5.7,3.4c-0.2,0.7-0.2,1.3,0.2,1.7c0.3,0.4,0.7,0.6,1.2,0.6c0.4,0,0.8-0.1,1.1-0.4l0-0.4h0
				c-0.7,0-0.9-0.1-1.2-0.5c-0.1-0.2-0.3-0.6,0-1.3c1.1-2.4,2.8-2.4,4.2-2.3c0.9,0,1.1-0.5,1.1-0.5c0-0.1-0.1-0.2-0.5-0.3H101.5
				 M98.9,0.5c0.3,0,0.6-0.2,0.8-0.4c0.6-0.7,0.5-1,0.5-1c0,0-0.1-0.1-0.3-0.2c-1,0.1-1.3,0.7-1.3,1.2C98.6,0.2,98.7,0.5,98.9,0.5
				 M97.7,4.3c-2.5,0.1-3.9,1.3-4.3,3.9c-0.4,2-0.2,3.2,0.7,3.8c0.2,0.2,0.5,0.3,0.9,0.3c1.4,0,3.1-0.8,3.1-1.2
				c0.1-0.2,0.1-0.4,0-0.4c-0.1-0.1-0.3-0.3-0.7-0.2c-0.5,0.2-0.9,0.3-1.3,0.3c-0.5,0-1.1,0.1-1.4-1.3c0-2.8,0.8-4.1,3.1-4.2
				c0.1,0,0.4-0.3,0.4-0.6C98.2,4.5,98,4.3,97.7,4.3 M96.7,8.9c0.1,0,0.5-0.1,1.2-0.6c0.2-0.3,0.4-0.6,0.3-0.8
				c-0.1-0.2-0.3-0.3-0.7-0.5c-0.6,0-0.8,0.1-0.9,0.1c-0.2,0.2-0.4,0.5-0.3,1.4C96.4,8.9,96.6,8.9,96.7,8.9 M96.2,22.8
				c0.1,0,0.3,0,0.4-0.5c0.3-1.2-0.4-1.3-1.9-3.1c-0.6-0.9-0.8-2.3-0.6-2.8c0.1-0.4,0.7-0.8,1.2-0.9l2.1-0.4
				c0.2-0.2,0.3-0.4,0.2-0.7c-0.1-0.3-0.6-0.7-1.3-0.7l-0.4,0c-1.6,0.1-2.7,0.5-3.3,1.2c-0.5,0.6-0.7,1.5-0.6,2.7
				c0.4,2,1.7,3.7,3.8,5.2L96.2,22.8 M97.1,18.4c0.4-0.2,0.7-0.5,0.7-0.7c0-0.3-0.2-0.5-0.6-0.7c-0.4-0.1-0.7-0.2-0.9-0.2
				c-0.2,0-0.8,0-0.9,1.1c0,0.2,0.1,0.5,0.9,0.5C96.6,18.4,96.8,18.4,97.1,18.4 M91.2-7.5c-0.9,0-1.4-0.2-1.6-0.7
				C89.4-8.5,89.5-9,90-9.6c2.1-2.4,5.1-3.6,9.2-3.5c0.8,0,1.7,0.1,2.5,0.1c1.1,0,2-0.7,2.1-1.1c0-0.1-0.2-0.2-0.5-0.2
				c-0.8-0.1-1.6-0.1-2.3-0.1c-4.6-0.1-10,0.8-14.8,7.7c-0.1,0.2-0.1,0.4,0,0.6c0.1,0.1,0.3,0.3,1,0.3c2-0.2,3.4-0.8,4.4-1.6
				L91.2-7.5L91.2-7.5 M94.8-10.6c-0.7,0-1.3,0.1-1.7,0.2c-0.5,0.3-0.5,0.5-0.5,0.5c0,0,0,0.1,0.3,0.3c0.3,0.1,0.7,0.2,1.1,0.2
				c0.6,0,1.2-0.1,2-0.4c0.5-0.2,0.6-0.5,0.6-0.6c0-0.1-0.1-0.1-0.3-0.2C95.9-10.5,95.4-10.6,94.8-10.6 M81.7-9.2
				c-0.3,0-0.6-0.2-0.8-0.4c-0.3-0.4-0.2-1,0.1-1.7c-2,0.5-3.1,1.8-3.4,4c0,0.2,0,0.4,0.1,0.5c0.1,0.1,0.3,0.2,0.6,0.2
				c0.2,0,0.5,0,0.9-0.1c3.6-1,6.6-3,9.3-6.2l0.1-0.1c-0.2,0-0.4,0-0.6,0c-1.6,0.3-3.2,1.4-4.9,3.2C82.6-9.4,82.1-9.2,81.7-9.2
				 M98.2,93.7c-0.3,0-0.5,0.1-0.7,0.3L93.7,99c-0.3,0.4-0.6,0.5-1,0.5c-0.3,0-0.7-0.2-1-0.5l-0.3-0.3c-0.1,0-0.4,0.2-0.5,0.6
				c-0.2,0.8-0.1,1.4,0.3,1.8c0.2,0.3,0.6,0.4,1,0.4c0.7,0,1.5-0.4,2.1-1.1l4.4-5.9c0.1-0.2,0.1-0.5,0-0.7
				C98.7,93.8,98.5,93.7,98.2,93.7 M84.5,103.5c3.2-1.7,4.9-4.4,6.7-7.2l0.1-0.1c0.8-1.2,1.6-2.5,2.7-3.8c0.2-0.3,0.2-0.5,0.2-0.6
				h-0.1c-0.3,0-0.6,0.1-0.9,0.2c-1.2,0.4-2.2,1.4-3.1,3l-3.5,5c-0.4,0.4-0.9,0.7-1.3,0.6c-0.4,0-0.8-0.2-1-0.6
				c-0.4-0.6-0.4-1.5,0-2.5l0.7-1.3c0.6-1,1.1-2,1.6-2.9c0.9-1.5,1.2-2.7,0.9-3.9c-0.2-0.6-0.4-0.7-0.4-0.7c0,0-0.1,0.1-0.4,0.6
				L83,97.2c-0.7,1.9-1,3.6-0.6,5.1c0.2,1.2,0.8,1.4,1.2,1.4C83.9,103.7,84.2,103.6,84.5,103.5 M89,92.6l-0.3,0.1l-2.6,4
				c-0.2,0.2-0.3,0.5-0.2,0.8c0.1,0.2,0.4,0.3,0.6,0.3l0.2-0.1l2.7-4.6l-0.1-0.5L89,92.6z M95.4,94l-0.1-0.5l-0.3-0.1l-0.3,0.1
				l-2.2,3.3c-0.1,0.2-0.3,0.5-0.1,0.7c0.1,0.2,0.3,0.3,0.5,0.4l0.2,0L95.4,94z M78.4,99.9c3-1.8,4.3-6.1,5.3-10v-0.2l-0.3-0.1
				l-0.3,0c-0.5,0.2-1,0.4-1.5,2.2c-0.3,1.8-0.8,3.2-1.5,4.2c-0.2,0.4-0.7,0.6-1,0.6h-0.1l-0.1,0l-0.3-0.2c-0.3-0.3-0.3-0.9,0-1.6
				l1.8-4.5c0.5-1.3,0.4-2.3-0.2-3.2l-0.5-0.3c-0.2,0.2-0.3,0.4-0.2,0.7c-0.1,1-0.3,1.8-0.7,2.7c-1.1,2.5-1.8,5.4-2.2,8.9
				c0,0.4,0,0.6,0.1,0.7c0.1,0.1,0.3,0.2,0.5,0.2S78,100,78.4,99.9 M85.5,65.5c-0.1,0-0.2,0-0.3,0.3c-2.8,5-4.9,16.9-3,20.2
				c0.4,0.8,0.9,1.1,1.4,1.1c0.3,0,0.8-0.2,1.3-0.5c1.6-1.3,3-4.4,4.5-7.7l0-0.1c0.6-1.4,1.4-3.1,2.2-4.6c0.6-1.2,0.7-2.2,0.5-3
				c-0.2-0.7-0.3-0.8-0.4-0.8c0,0-0.1,0-0.3,0.3c-0.9,1.6-1.7,3.5-2.5,5.3l0,0.1c-1.1,2.3-2.1,4.7-3.3,6.6c-0.3,0.5-0.9,0.8-1.4,0.8
				c-0.2,0-1.2-0.1-1.2-1.7c-0.2-5,0.8-9.5,3.3-14.3c0.2-0.4,0.1-0.9-0.2-1.4C86,65.7,85.7,65.5,85.5,65.5 M85.4,79.4
				c0.1,0,0.3-0.1,0.4-0.3c0.9-3.3,2.3-6.3,4.4-9.6c0.2-0.3,0.2-0.7,0.1-0.9c-0.1-0.1-0.2-0.2-0.4-0.2c-0.2,0-0.3,0-0.6,0.1
				c-2.7,2.4-4.2,5.8-4.4,10.3C85,79.2,85.2,79.4,85.4,79.4 M91.9,90.2c4.4-4,7.9-8.4,10.6-13.6c0.2-0.5,0.2-1.1,0-1.5l-0.4-0.2
				c-0.3,0-0.7,0.2-1,0.7c-0.9,1.1-1.7,2.5-2.6,3.9l-0.3,0.4c-1.5,2.4-3.1,5.1-5.2,7.1c-0.3,0.4-0.8,0.6-1.2,0.6
				c-0.3,0-0.6-0.1-0.8-0.4c-0.3-0.4-0.3-1-0.1-1.8c0.6-2.2,1.5-4.1,2.5-6.2l0.2-0.3c0.7-1.6,1.5-3.2,2.1-5c0.1-0.3-0.1-0.6-0.1-0.7
				c-0.2-0.3-0.6-0.4-1-0.5c-0.2,0-0.5,0.1-0.7,0.3c-3.6,5.8-5.2,11-4.9,15.5c0.3,1.6,1.4,1.7,1.8,1.7
				C91.2,90.5,91.5,90.4,91.9,90.2 M101,72.4c-3.1,1.9-5.5,5.4-7.1,10.3c-0.1,0.6,0,0.8,0,0.9l0.2,0.1l0.4-0.3c2-4,4.1-7.3,6.9-10.6
				l0.2-0.4l-0.3-0.1L101,72.4z M99.2,91.6c0.7,0,1.5-0.4,2.3-1.1c3.9-5.2,7.7-9.6,11.3-13.6c0.2-0.3,0.4-0.5,0.3-0.7l-0.4-0.3
				c-0.2,0-0.4,0.1-0.6,0.3c-3,3.1-6.9,7.2-10.5,12.3c-0.4,0.4-0.8,0.6-1.3,0.6c-0.5,0-0.8-0.2-1.1-0.6c-0.3-0.5-0.3-1.3,0.1-2.2
				c2-3.3,4.2-6.3,6.7-9.2l0.1-0.3l-0.3-0.2c-0.1,0-0.4,0-0.8,0.3c-3.5,3.8-7.2,7.7-7.4,12.2C97.5,90.7,98.1,91.5,99.2,91.6
				 M110.1,74.6l-8.7,10.9c-0.3,0.4-0.3,0.6-0.3,0.7l0.1,0.1l0.5-0.2l8.7-10.3c0.3-0.5,0.3-1,0.1-1.2l-0.2-0.1L110.1,74.6z M75.4-6
				c0.3-0.3,0.3-0.6,0.2-1.1c-0.2-1.2,0.1-1.8,0.4-2.3l0,0h0C75-8.9,74.4-8.1,74.1-7c-0.1,0.9-0.9,1.4-1.7,1.4c-0.4,0-0.8-0.2-1-0.4
				C71.2-6.2,71-6.6,71-7.3h0c-1.1,0.4-1.7,1.1-1.9,1.9c-0.1,0.6,0.1,1.3,0.6,1.8c0.1,0.1,0.3,0.2,0.5,0.2C71.4-3.3,73.7-4.7,75.4-6
				 M86.5,0.3c-1.2,0-2-0.6-2.1-1.4c0-1,1.2-2,4.4-2c0.6-0.1,0.9-0.5,0.9-0.8l-0.3-0.1C88.8-4,88.2-4,87.7-4c-0.5,0-1-0.1-1.4-0.1
				c-0.6-0.1-1-0.4-1.1-0.7l-0.1,0.1c-1.6,1.3-1.6,1.7-1.6,1.8v0.1l0,0.1l-0.2,0.3c-1,1.6-1.3,3-0.9,3.8c0.3,0.5,0.8,0.7,1.6,0.8
				c1.2,0,2.6-0.5,3.6-1.5c0.1-0.2,0.2-0.3,0.2-0.4l-0.2,0C87.3,0.3,86.9,0.3,86.5,0.3 M86.7,4.4c0.2-0.2,0.1-0.4,0.1-0.5l-0.3-0.3
				c-1,0.5-1.8,0.8-2.7,0.8c-0.5,0-1-0.1-1.5-0.3c-0.1-0.1-0.5-0.3-0.7-0.3c-0.1,0.1-0.2,0.3-0.2,0.7c0,1.7-0.2,3.9-1.5,6.5
				c-0.4,1.1-0.5,1.9-0.1,2.4C80,13.8,80.4,14,81,14c1.3,0,3.2-0.9,4.5-3.1c0.2-0.5,0.2-0.8,0.2-1.1c-0.7,0.6-1.3,0.8-1.8,0.8
				c-0.8,0-1.5-0.7-1.6-1.6c-0.2-1.1,0.5-2.7,2.9-3.4L86.7,4.4z M93.4,42.2L93,42.4c-1.9,2.4-3.4,4.8-4.6,7.3
				c-0.2,0.5-0.6,0.8-1,0.8h-0.1l-0.1,0L87,50.3c-0.2-0.3-0.2-0.7,0-1.2c1.3-3.6,2.9-6.6,5-9.4c0.3-0.4,0.2-0.9,0.1-1.2l-0.2-0.2
				c-4.8,6.8-7.2,12.3-7.4,16.8c0,0.7,0.3,1.3,0.7,1.3c0.2,0,0.5-0.2,0.9-0.6c0.7-1.1,1.7-2.7,2.9-4.6l0.2-0.3
				c1.5-2.4,3.2-5.2,4.5-6.9c0.3-0.7,0.2-1.2,0-1.5L93.4,42.2z M98.3,51.4c-0.2,0-0.4,0.1-0.6,0.4c-1.5,3.2-3.3,7-5.8,10.7
				c-0.4,0.6-1.1,1-1.7,1c-0.6,0-1.1-0.3-1.5-0.8c-0.6-0.8-0.6-2.1,0-3.3c1.7-4,3.9-7.9,7-12.3c0.2-0.5,0.3-1.1,0.1-1.4
				c-0.1-0.2-0.3-0.3-0.5-0.3c-0.2,0-0.4,0.1-0.6,0.3c-3.5,4.8-5.9,8.8-7.4,12.2c-1.1,2.6-1.1,5.2,0.1,6.9c0.6,0.9,1.5,1.4,2.4,1.5
				c1,0,2-0.6,2.8-1.7c2.4-3.8,4.3-7.8,6-11.3c0.2-0.6,0.3-1.2,0-1.5C98.6,51.5,98.5,51.4,98.3,51.4 M91.3,59.5
				c0.2,0,0.3-0.1,0.4-0.2l5-8.7c0.3-0.6,0.1-1.6-0.2-2.1c-0.1-0.2-0.2-0.2-0.3-0.2c0,0-0.2,0.1-0.3,0.4l-5.3,9.2
				c-0.3,0.4-0.3,0.8-0.1,1.1C90.7,59.3,91,59.5,91.3,59.5 M97.2,71.8c1.3,0,2.5-0.7,3.5-2l7.6-11.4c0.3-0.3,0.4-0.6,0.3-1
				c-0.1-0.3-0.5-0.6-0.9-0.6c-0.3,0-0.6,0.1-0.8,0.4c-0.9,1.2-1.8,2.7-2.7,4.2l-0.4,0.6c-1.4,2.3-2.9,4.7-4.4,6.5
				c-0.5,0.7-1.3,1.1-2.1,1.1c-0.7,0-1.2-0.3-1.5-0.9c-0.3-0.4-0.6-1.4,0.2-2.9c2.5-4.5,4.3-8.2,5.6-11.4c0.2-0.3,0.2-0.5,0-0.8
				c-0.2-0.3-0.5-0.5-0.8-0.5c-0.4,0-0.8,0.3-1,0.9c-1.1,3.1-2.8,6.5-5.3,10.9c-1,1.8-1.1,3.7-0.3,5.1C94.8,71.1,96,71.8,97.2,71.8
				 M104.9,55.9c0.4-0.6,0.3-0.9,0.2-1.2c-0.1-0.2-0.2-0.5-0.1-0.8l-0.1-0.5l-0.2,0c-0.2,0-0.3,0.1-0.4,0.3l-6,10.8
				c-0.6,1.1-0.3,1.6-0.3,1.6l0.3,0.2c0.3,0,0.7-0.2,1-0.6L104.9,55.9 M103.7,74.4c0.5,0.7,1.3,0.8,1.9,0.8c1.1,0,2.3-0.5,2.9-1.1
				c4.2-4.3,7.7-8.6,10.4-12.9c0.2-0.4,0.3-0.7,0.1-1c-0.1-0.2-0.4-0.4-0.7-0.4c-0.3,0-0.6,0.1-0.8,0.3c-3.1,4.4-6.3,8.4-9.9,12.1
				c-0.5,0.5-1,0.6-1.3,0.6c-0.5,0-1-0.3-1.2-0.8c-0.3-0.6-0.3-1.3,0.1-1.9c1.9-3.9,4.1-7.6,6.9-11.3c0.2-0.3,0.3-0.4,0.2-0.5
				c0-0.1-0.2-0.2-0.6-0.2c-0.4,0-1,0.1-1.3,0.6l-0.5,0.7c-2.4,3.5-5.2,7.5-6.6,11.6C103.1,72.5,103.2,73.6,103.7,74.4 M116.5,58.1
				c0.1-0.3,0-0.5-0.1-0.7H116c-2.6,3.2-5.2,6.8-7.8,10.8c-0.2,0.4-0.2,0.7-0.2,0.8l0.2,0.1c0.1,0,0.2,0,0.4-0.2
				C112.4,65.4,115.1,61.8,116.5,58.1 M114.1,74.4c6-1.8,10.8-8.8,14.7-14.4l0.6-0.8c0.2-0.3,0.2-0.6,0-0.9
				c-0.2-0.3-0.5-0.5-0.9-0.5c-0.2,0-0.4,0-0.7,0.4c-3.3,4.6-6.4,8.4-9.5,12c-0.4,0.3-0.7,0.4-0.9,0.4l-0.1,0l-0.1,0l-0.3-0.2
				l-0.1-0.1c-0.1-0.3,0-0.7,0.3-1.2c1.8-2.6,4.1-5.5,6.1-8.1c0.2-0.2,0.2-0.4,0.1-0.5l-0.3-0.1c-0.2,0-0.6,0.1-0.9,0.4
				c-4.4,4.7-7.3,8.6-9.2,12.2c-0.4,0.8-0.3,1.1-0.2,1.3c0.1,0.1,0.4,0.2,0.8,0.2L114.1,74.4z M100.8,30.2c-0.5-0.7-1.1-1.5-0.8-3.2
				c0-1,0.1-1.9,0.1-2.9c0-1,0.1-2,0.1-3l0.1-2c0-0.5-0.1-0.9-0.3-1.1l-0.5-0.2c-0.3,0-0.5,0.3-0.6,0.9l-0.6,9
				c-0.1,1.8,0.7,3.5,2.7,5.3c0.2,0.1,0.4,0.1,0.5,0.1h0.1c0.1-0.1,0.2-0.4,0-1.7C101.3,30.9,101.1,30.6,100.8,30.2L100.8,30.2z
				 M107.9,22c-0.4,0.2-0.4,0.4-0.4,0.6c0.5,2.3,1,5.4,0.9,9.1c-0.2,1.5-0.9,1.7-1.3,1.7c-0.8,0-1.7-0.9-2.7-2.4
				c-1.1-2.8-1.1-7.1-0.8-11c0-0.4-0.1-0.7-0.3-0.9l-0.4-0.2c-0.3,0-0.6,0.4-0.6,1.1c-0.2,3.3-0.4,7.4,0.6,11.9
				c0.8,2.5,3,3.8,4.6,3.9c1.3,0,2.2-0.8,2.6-2.2c0.2-4-0.2-7.7-1.5-11.2C108.3,22.2,108.1,22,107.9,22 M105.6,30.3
				c0.1,0.4,0.3,0.5,0.4,0.5c0.1,0,0.3,0,0.4-0.4l-0.4-9.6c-0.1-0.4-0.4-0.7-0.5-0.7c-0.1,0-0.2,0.2-0.3,0.6
				C104.7,24.7,104.9,27.8,105.6,30.3 M118.2,35.7c-2.4,0-3.9-1.5-4.4-4.4l-1.2-7.1c-0.2-0.8-0.6-1-0.9-1.1l-0.4,0.2
				c-0.2,0.2-0.3,0.5-0.3,0.9l1.4,9.3c0.2,2.2,2.1,3.5,5.8,4l0.2,0c1.8,0,3-0.4,3.7-1.3c0.2-0.7,0.1-1.1-0.2-1.8
				c-0.5-1.5-0.9-2.6-1.4-3.8c-0.7-1.7-1.3-3.3-1.8-4.9c-0.2-0.4-0.5-0.7-0.8-0.7l-0.3,0.2c-0.1,0.2-0.2,0.4-0.1,0.6l2,7.1
				c0.4,1.1,0.4,1.8,0.1,2.3C119.3,35.5,118.8,35.7,118.2,35.7 M114.7,23.7c-0.1,0-0.2,0-0.3,0.5c0.2,2.4,0.5,5.2,1.1,7.7
				c0.2,0.6,0.6,0.9,0.9,0.9l0.3-0.2c0.1-0.1,0.1-0.3,0.1-0.6c-0.7-2.5-1.1-5.5-1.4-7.7C115.4,24,115,23.7,114.7,23.7 M128.6,36
				c0.7-0.3,1-0.7,1.2-1.2c0.2-0.6,0-1.3-0.5-2.3c-1.5-2.4-2.7-4.8-3.8-7.2c-0.1-0.3-0.3-0.5-0.5-0.5c-0.3,0.2-0.3,0.5-0.2,0.8
				c0.7,2.2,1.8,4.5,3,6.7c0.4,0.7,0.4,1.3,0.1,1.9c-0.3,0.4-0.8,0.7-1.3,0.7c-0.6,0-1.3-0.4-1.8-1c-1.2-2-2.4-4.5-3.6-7.5
				c-0.1-0.2-0.2-0.3-0.3-0.4c-0.2,0.1-0.3,0.4-0.2,1l2.7,7.5c0.8,1.4,1.8,2.1,3.1,2.1C127.1,36.5,127.8,36.3,128.6,36 M123.6,26
				c0-0.2-0.2-0.4-0.4-0.4c-0.3,0.2-0.4,0.4-0.4,0.8c0.3,1.9,1.2,3.9,2.7,6.1c0.2,0.2,0.4,0.4,0.6,0.4l0.2-0.1
				c0.1-0.2,0.1-0.5,0-0.7C125,29.8,124.2,27.9,123.6,26 M128,25.7c-0.3,0.2-0.3,0.4-0.3,0.6c0.6,2,1.7,3.8,3.1,5.3l0.3,0.1l0.3-0.1
				c0.1-0.1,0-0.4-0.1-0.6c-1.2-1.7-2.2-3.3-3-4.9C128.2,25.8,128.1,25.7,128,25.7 M134.9,33c0.3-0.6,0.2-1.1-0.4-1.9
				c-1.3-1.4-2.6-3-3.9-4.8c-0.1-0.3-0.3-0.4-0.5-0.4l-0.2,0.1c-0.1,0.2-0.1,0.6,0.2,1.1c0.6,1.1,1.5,2.3,2.7,3.7
				c0.3,0.4,0.6,0.9,0.5,1.3c-0.1,0.3-0.2,0.5-0.5,0.7l-1.2,0.9l-0.1,0.4c0.1,0.2,0.5,0.4,0.9,0.5C133.4,34.4,134.2,33.9,134.9,33
				 M135.5,36c-0.2-0.3-0.6-0.5-0.9-0.5c-0.4,0-0.7,0.1-0.8,0.4c-0.1,0.2-0.1,0.6,0.2,0.9l0,0.1c1.7,3,2.4,4.2,2.2,7.1
				c-0.1,1.5-0.6,3.1-1.3,4.8l0,0.1c-0.3,0.9-0.7,2-1.1,3.3c-0.4,1-0.9,1.2-1.2,1.2c-0.3,0-0.5-0.1-0.7-0.4
				c-0.3-0.3-0.3-0.8-0.2-1.2c0.3-1.3,0.7-2.6,1-3.7c0.5-1.7,1-3.2,1-4.7c-0.1-3-0.7-4.5-2.3-6c-0.2-0.3-0.5-0.4-0.8-0.4
				c-0.3,0-0.6,0.1-0.7,0.4c-0.2,0.3-0.2,0.6,0,0.9c2.8,3.7,2.6,8.1-0.6,15c-0.3,0.9-0.3,1.6,0,2.1c0.3,0.7,1.1,1.3,2.4,1.7
				c0.6,0.1,1.1,0.2,1.5,0.3c1,0,1.1-0.5,1.1-0.6c0-1.8,0.3-3.2,0.7-4.1c0.4-1,0.8-2,1.2-2.7c0.7-1.4,1.3-2.7,1.7-4.3
				C138.4,42.1,138.2,39.6,135.5,36 M129.2,49.1c0.8-3.7,1.2-7.1-1-10.7c-0.3-0.4-0.6-0.6-1-0.6c-0.3,0-0.5,0.1-0.7,0.4
				c-0.2,0.3-0.2,0.8,0,1.2c2.4,4.7,1.7,9.8-2,15.8c-0.5,0.6-1.1,1-1.7,0.9c-0.5,0-1-0.3-1.4-0.7c-0.4-0.5-0.6-1.3-0.4-2.1
				c1.4-5,1.3-9.1,0-12.9c-0.2-0.4-0.7-0.5-1-0.5c-0.3,0-0.6,0.1-0.8,0.3c-0.1,0.2-0.1,0.5,0,0.7c1.1,4.2,1,7.9-0.2,11.9
				c-0.1,0.3-0.2,0.6-0.3,0.9c-0.3,0.8-0.6,1.6-0.4,2.5c0.3,1.6,1.8,2.8,3.7,2.8c1.1,0,2.2-0.4,3-1.1
				C127.2,54.9,128.6,52.1,129.2,49.1 M122.8,38.3c-0.2,0.2-0.2,0.5-0.1,0.8c1.6,2.4,1.7,6.4,0.2,12.3c-0.2,0.7,0,1,0,1l0.2,0.1
				c0.2,0,0.4-0.1,0.5-0.3c2.3-4.8,2.5-9.1,0.6-13.6c-0.2-0.4-0.5-0.6-0.9-0.6C123.2,38,123,38.2,122.8,38.3 M115.5,39.6
				c-0.2,0.2-0.3,0.4-0.3,0.7c0.9,4.6,0.6,8.5-0.7,11.7c-0.7,0.9-1.4,1.5-2.2,1.4c-0.5,0-1-0.3-1.4-0.7c-0.6-0.8-0.5-1.9-0.3-2.8
				c0-0.3,0.1-0.6,0.1-0.9c0.3-4.2,0.1-7.8-0.6-10.7c-0.1-0.5-0.5-0.6-0.7-0.6c-0.3,0-0.6,0.1-0.8,0.3c-0.2,0.2-0.3,0.4-0.3,0.8
				c0.5,4,0.3,8.5-0.6,13.5c0.3,2.9,2.4,4,4.2,4c2,0,4.4-1.2,5-3.8c1.1-4.8,1.1-8.9,0-12.4c-0.1-0.5-0.6-0.8-1-0.8
				C115.9,39.4,115.7,39.5,115.5,39.6 M112.3,38.9c0.3,3.7,0.3,7.3-0.2,10.6c0.1,0.7,0.5,0.9,0.9,0.9c0.3,0,0.7-0.2,0.8-0.6
				c0.4-3.6,0.2-7.3-0.5-10.8c-0.1-0.4-0.4-0.6-0.6-0.6l-0.3,0.1L112.3,38.9z M101.8,35.2l-0.4,0.2c-2.8,5.4-3.7,9.4-2.7,12.6
				c1.1,2.3,2.7,3.8,4.3,3.8c0.8,0,1.6-0.3,2.2-1c2.1-3.7,2.1-8.2,2-12.3c0-0.3-0.1-0.5-0.2-0.7c-0.1-0.2-0.4-0.3-0.6-0.3
				c-0.4,0-0.8,0.2-0.9,0.8c0,2.7,0,5.7-0.9,9c-0.3,0.8-1,1.3-1.8,1.3c-0.9,0-1.8-0.7-2-1.8c-0.2-3,0.2-5.9,1.5-9.5
				c0.2-0.8,0.1-1.7-0.2-2.1L101.8,35.2z M103.1,45.2c0.7-2.5,1-4.9,1.1-8.2c0-0.3-0.2-0.5-0.3-0.5c-0.1,0-0.4,0.2-0.5,0.8
				c-0.2,2.5-0.6,4.9-1.1,7.4c0,0.3,0.2,0.7,0.3,0.7L103.1,45.2z M96.5,31c0,0-0.1,0-0.4,0.3c-2.5,3-2.9,6.2-1.2,9.7
				c0.4,0.5,0.8,0.7,1.1,0.7c0.2,0,0.4-0.1,0.6-0.2c1.6-1.9,2.7-4.1,3.1-6.4c0.3-0.8,0-1.1-0.5-1.3c-0.4-0.3-0.8-0.4-1-0.4
				c-0.2,0-0.6,0-0.8,0.3c0,0-1,2.3-0.4,2.3c0.1,0.1,0.4-0.2,0.6-0.5c0.1-0.2,0.7,0.3,0.6,0.6c-0.1,0.7-0.7,2.4-1.6,2.5
				c-0.2,0.1-0.4,0.1-0.6,0.1c-0.2,0-0.8-0.1-1-0.9c0-1.3,0.4-2.2,0.7-3.1l0.1-0.1c0.4-0.9,0.7-1.7,0.7-2.8
				C96.6,31.2,96.5,31,96.5,31 M92.5,29.4c-0.7,0.3-1.3,1-1.9,1.8c-0.7,0.9-1.4,1.8-2.5,1.9c-0.2,0-0.3,0.1-0.3,0.1l0.2,0.5l1.7,2.1
				c0.4,0.2,0.7,0.3,1,0.3c0.4,0,0.7-0.2,1-0.6c0.3-0.5,0.3-0.6-0.1-0.8c-1.3-1.3-0.2-2.5,0.7-3.5c0.4-0.5,0.8-0.9,1-1.3
				c0.1-0.2,0.2-0.3,0.1-0.4c-0.1-0.1-0.2-0.2-0.4-0.2L92.5,29.4 M87.5,29.2c-0.5,0-1-0.3-1.3-0.8c-0.3-0.5-0.3-1.1,0-1.5l2.1-2.1
				c0.2-0.3,0-0.6,0-0.6c-0.1-0.3-0.4-0.5-0.7-0.5l-0.4,0.1c-1.3,1.1-2.5,2.1-4.3,2.2c-0.5,0-0.6,0-0.6,0.1c0,0.1-0.1,0.2,0,0.8
				c0.4,1.3,1.3,2.1,2.2,2.9c0.6,0.6,1.1,1.1,1.7,1.8c0.3,0.2,0.6,0.4,0.9,0.4c0.3,0,0.7-0.1,1.1-0.4c1.2-0.9,2.2-1.9,3.1-3.1
				c0.1-0.2,0.1-0.4,0.1-0.7c-0.1-0.2-0.3-0.4-0.6-0.4l-0.4,0.1l-2.1,1.6C88,29.1,87.8,29.2,87.5,29.2 M83,21.2
				c-0.5,0-1-0.3-1.2-0.9c-0.3-0.7-0.3-1.8,0.5-2.6l2-1.6c0.4-0.3,0.5-0.8,0.3-1.6l-0.1-0.2c-1.4,1-2.6,1.8-4,2.5l-0.4,0.1l-0.1,0
				c-0.2,0.1-0.6,0.2-0.7,0.3c-0.1,0.2-0.2,0.4-0.1,0.8c0.2,2,0.7,3.7,1.3,5c0.6,0.9,1.2,1.3,1.9,1.3c0.9,0,2-0.6,3.4-2
				c0.3-0.4,0.5-1-0.5-1.9c-0.3-0.3-0.4-0.3-0.4-0.3c-0.1,0-0.2,0.1-0.4,0.3C83.9,20.9,83.5,21.2,83,21.2"/>
		</g>
	</g>
</g>
</svg>
