<?xml version="1.0" encoding="utf-8"?>
<!-- Generator: Adobe Illustrator 26.0.3, SVG Export Plug-In . SVG Version: 6.00 Build 0)  -->
<svg version="1.1" xmlns="http://www.w3.org/2000/svg" xmlns:xlink="http://www.w3.org/1999/xlink" x="0px" y="0px"
	 viewBox="0 0 105.9 44.3" style="enable-background:new 0 0 105.9 44.3;" xml:space="preserve">
<style type="text/css">
	.st0{opacity:0.79;clip-path:url(#SVGID_00000062156568449738649450000000698817647086433187_);}
	.st1{fill:#3EAEE2;}
	.st2{fill:#2FB354;}
	.st3{fill:#275987;}
	.st4{fill:#78C47E;}
</style>
<g id="Capa_2">
</g>
<g id="Layer_1">
	<g>
		<defs>
			<path id="SVGID_1_" d="M0,31.7L0,31.7c32.8,16.5,71.4,16.7,104.5,0.7l1.4-0.7V0H0V31.7z"/>
		</defs>
		<use xlink:href="#SVGID_1_"  style="overflow:visible;fill:#3377BD;"/>
		<clipPath id="SVGID_00000024721117665851421280000012983482842467843209_">
			<use xlink:href="#SVGID_1_"  style="overflow:visible;"/>
		</clipPath>
		<g style="opacity:0.79;clip-path:url(#SVGID_00000024721117665851421280000012983482842467843209_);">
			<path class="st1" d="M94.1,20.7c1.4,0.3,2.7,0.7,4,1c1.5,0.4,3.1,0.9,4.6,1c4.2,0.3,8.5,0.6,12.7,0.7c2.3,0,4.7-0.4,7-0.6
				c0.6-0.1,0.9,0.1,0.9,0.8c0.1,3.5-0.5,6.9-1.8,10.2c-0.7,1.8-1.6,3.4-2.4,5.2c-0.2,0.5-0.6,0.8-1.2,0.9
				c-5.2,0.9-10.4,0.8-15.5,0.7c-2.5-0.1-4.9-0.6-7.4-1c-0.6-0.1-0.8-0.4-0.8-1c-0.1-4.5-0.3-9-0.3-13.5
				C93.7,23.6,93.9,22.2,94.1,20.7z"/>
			<path class="st2" d="M113,18.7c-5.2,0.3-10.4-0.4-15.5-1.6c-0.5-0.1-1-0.3-1.5-0.4c-1.2-0.4-1.3-0.6-1.1-1.8
				c1.4-6.8,3.7-13.3,7.5-19.1c0.9-1.4,1.1-1.5,2.6-0.7c3.7,1.9,7,4.3,9.8,7.3c4,4.3,6.8,9.3,8,15.2c0.2,0.8,0,1.1-0.8,1.1
				c-0.2,0-0.4,0.1-0.7,0.1C118.5,18.7,115.7,18.7,113,18.7z"/>
			<path class="st3" d="M65.7,31.8c3.6,2,7.2,4.2,10.8,6c4.1,2.1,8.4,3.5,12.8,4.6c0.6,0.1,0.8,0.5,0.9,1c0.8,3.7,1.6,7.5,2.4,11.2
				c0.2,0.9-0.4,1-0.9,1c-2.1,0-4.1,0.2-6.2,0c-2.7-0.3-5.4-0.9-8-1.5c-3.2-0.8-6-2.3-8.9-3.9c-2.4-1.3-4.4-3-6.4-4.9
				c-0.2-0.2-0.5-0.7-0.4-1C62.8,40,64.1,35.8,65.7,31.8z"/>
			<path class="st3" d="M89.5,38.2c-0.4-0.1-0.8,0-1.1-0.1c-2.2-0.7-4.4-1.3-6.4-2.2c-3.6-1.5-7.2-3.1-10.2-5.7
				c-1.1-0.9-2.3-1.7-3.4-2.5c-0.5-0.4-0.6-0.8-0.3-1.4c1.4-2.4,2.6-4.9,4.1-7.2c1.4-2.2,3.1-4.2,4.6-6.4c0.6-0.8,1.1-0.7,1.8-0.2
				c3.3,2.5,6.7,4.8,10.5,6.3c0.7,0.3,0.6,0.7,0.5,1.3c-0.5,5.9-0.6,11.8-0.2,17.7C89.6,37.8,89.6,37.9,89.5,38.2z"/>
			<path class="st1" d="M65.3-1.3c3.1,3.7,6,7.1,8.9,10.6c-0.8,1-1.9,2.1-2.7,3.3c-2.1,3-4.1,6.1-6.2,9.2c-0.2,0.3-0.4,0.7-0.7,0.9
				c-0.9,0.7-1.2,0.7-2-0.2c-2.3-3-4.6-6-7-9c-0.5-0.7-0.6-1.3-0.2-2.2c1.3-2.6,2.6-5.2,4.6-7.4C61.8,2.1,63.6,0.4,65.3-1.3z"/>
			<path class="st4" d="M69.3-3.9c8.3-4.7,17-6,26.3-4.2C89.2-3.9,83,0.6,77.5,6C74.3,3,71.7-0.2,69.3-3.9z"/>
			<path class="st4" d="M94.5,43.7c3.6,0.2,6.9,0.6,10.2,0.7c3.3,0.1,6.6,0,10,0c-0.2,0.3-0.3,0.5-0.4,0.6c-4.5,4.6-9.9,7.6-16,9.4
				c-1.3,0.4-1.3,0.3-1.6-1C96,50.3,95.3,47.1,94.5,43.7z"/>
			<path class="st3" d="M90.5,14.6c-3.3-1.7-6.8-3.2-9.6-5.8C82,6.8,92.7-1.4,97.4-4c-1.3,2.9-2.7,5.9-3.9,9
				C92.3,8.1,91.5,11.3,90.5,14.6z"/>
			<path class="st2" d="M53.7,17.9c1.1,1.5,2,3,3,4.3c1.5,1.8,3.1,3.6,4.7,5.3c0.4,0.5,0.6,0.9,0.4,1.5c-1.2,3.4-2.3,6.9-3.5,10.3
				c-0.1,0.2-0.2,0.3-0.3,0.5C54.4,36.5,51.5,22.4,53.7,17.9z"/>
		</g>
	</g>
</g>
</svg>
