<?xml version="1.0" encoding="iso-8859-1"?>
<!-- Generator: Adobe Illustrator 19.0.0, SVG Export Plug-In . SVG Version: 6.00 Build 0)  -->
<svg version="1.1" id="Layer_1" xmlns="http://www.w3.org/2000/svg" xmlns:xlink="http://www.w3.org/1999/xlink" x="0px" y="0px"
	 viewBox="0 0 512 512" style="enable-background:new 0 0 512 512;" xml:space="preserve">
<path style="fill:#5A6B96;" d="M459.593,420.229H52.407c-23.231,0-42.064-18.832-42.064-42.064V363.34h491.313v14.825
	C501.657,401.397,482.824,420.229,459.593,420.229z"/>
<path style="fill:#EFEFEF;" d="M426.925,58.366H85.075c-16.994,0-30.772,13.777-30.772,30.772V363.34h403.394V89.138
	C457.697,72.143,443.92,58.366,426.925,58.366z"/>
<rect x="293.348" y="337.334" transform="matrix(0.7071 0.7071 -0.7071 0.7071 372.6272 -178.3886)" style="fill:#FFFFFF;" width="216.6" height="46.545"/>
<path style="fill:#FBC640;" d="M285.556,198.778h-65.526c-3.327,0-6.025,2.698-6.025,6.025v50.011c0,3.327,2.698,6.025,6.025,6.025
	h65.526c3.327,0,6.025-2.698,6.025-6.025v-50.011C291.581,201.476,288.884,198.778,285.556,198.778z"/>
<g>
	<path style="fill:#231F20;" d="M512,363.34c0-5.712-4.632-10.343-10.343-10.343H468.04V89.138
		c0-22.671-18.444-41.115-41.115-41.115H85.075c-22.671,0-41.115,18.444-41.115,41.115v263.859H10.343
		C4.631,352.997,0,357.628,0,363.34v14.825c0,28.897,23.51,52.407,52.407,52.407h371.675l30.376,30.376
		c2.02,2.019,4.667,3.03,7.314,3.03c2.647,0,5.294-1.011,7.314-3.03l32.913-32.912c1.939-1.939,3.03-4.571,3.03-7.314
		c0-2.743-1.09-5.373-3.03-7.314l-1.973-1.971c7.468-9.058,11.974-20.642,11.974-33.271L512,363.34L512,363.34z M64.646,89.138
		c0-11.265,9.164-20.428,20.428-20.428h341.851c11.265,0,20.428,9.163,20.428,20.428v263.859h-5.765l-81.815-81.814h48.689
		c5.712,0,10.343-4.632,10.343-10.343c0-5.712-4.632-10.343-10.343-10.343h-48.709c8.631-23.939,8.996-50.21,1.089-74.346h6.867
		c5.712,0,10.343-4.632,10.343-10.343c0-5.712-4.632-10.343-10.343-10.343h-16.027c-4.922-8.654-11.062-16.8-18.435-24.173
		c-0.571-0.571-1.149-1.13-1.729-1.686h76.945c5.712,0,10.343-4.632,10.343-10.343c0-5.712-4.632-10.343-10.343-10.343H303.994
		c-0.706,0-1.395,0.071-2.061,0.207c-30.831-14.728-66.965-14.799-97.846-0.207h-59.175c-5.713,0-10.343,4.632-10.343,10.343
		c0,5.712,4.631,10.343,10.343,10.343h29.158c-0.58,0.556-1.158,1.115-1.729,1.686c-7.307,7.307-13.494,15.434-18.484,24.173
		h-28.701c-5.713,0-10.343,4.632-10.343,10.343c0,5.712,4.631,10.343,10.343,10.343h19.513c-2.729,8.318-4.489,16.984-5.237,25.859
		h-38.583c-5.713,0-10.343,4.632-10.343,10.343c0,5.712,4.631,10.343,10.343,10.343h38.689c0.843,8.884,2.713,17.548,5.545,25.859
		h-19.927c-5.713,0-10.343,4.632-10.343,10.343s4.631,10.343,10.343,10.343h29.412c4.862,8.276,10.807,15.989,17.773,22.955
		c0.993,0.993,2.004,1.955,3.023,2.903h-50.208c-5.713,0-10.343,4.632-10.343,10.343s4.631,10.343,10.343,10.343h81.595
		c14.621,6.45,30.331,9.681,46.043,9.681c18.272,0,36.541-4.364,53.098-13.085l40.615,40.615H64.646V89.138z M186.968,277.568
		c-17.583-17.582-27.265-40.959-27.265-65.825s9.682-48.243,27.265-65.826c18.149-18.149,41.987-27.222,65.826-27.222
		s47.678,9.073,65.826,27.222c36.296,36.296,36.296,95.354,0,131.649C282.323,313.866,223.265,313.864,186.968,277.568z
		 M52.407,409.885c-17.491,0-31.72-14.229-31.72-31.72v-4.482h346.506l36.202,36.202H52.407z M461.771,439.006L323.583,300.817
		c3.343-2.66,6.573-5.53,9.665-8.62c3.092-3.091,5.959-6.322,8.619-9.665l138.19,138.19L461.771,439.006z M462.275,373.683h29.038
		v4.482c0,6.921-2.24,13.32-6.018,18.539L462.275,373.683z"/>
	<path style="fill:#231F20;" d="M285.556,188.435h-48.278v-10.343c0-8.555,6.96-15.515,15.515-15.515
		c4.268,0,8.247,1.698,11.202,4.78c3.953,4.122,10.5,4.259,14.625,0.307c4.123-3.953,4.26-10.501,0.307-14.625
		c-6.894-7.19-16.175-11.149-26.134-11.149c-19.962,0-36.202,16.24-36.202,36.202v10.714c-7.379,1.585-12.929,8.153-12.929,15.998
		v50.011c0,9.026,7.343,16.369,16.368,16.369h65.526c9.026,0,16.368-7.344,16.368-16.368v-50.01
		C301.925,195.778,294.582,188.435,285.556,188.435z M281.238,250.495h-56.889v-41.374h56.889V250.495z"/>
	<path style="fill:#231F20;" d="M100.848,129.604h0.298c5.713,0,10.343-4.632,10.343-10.343c0-5.712-4.631-10.343-10.343-10.343
		h-0.298c-5.713,0-10.343,4.632-10.343,10.343C90.505,124.972,95.136,129.604,100.848,129.604z"/>
</g>
<g>
</g>
<g>
</g>
<g>
</g>
<g>
</g>
<g>
</g>
<g>
</g>
<g>
</g>
<g>
</g>
<g>
</g>
<g>
</g>
<g>
</g>
<g>
</g>
<g>
</g>
<g>
</g>
<g>
</g>
</svg>
