<?xml version="1.0" standalone="no"?>
<!DOCTYPE svg PUBLIC "-//W3C//DTD SVG 20010904//EN"
 "http://www.w3.org/TR/2001/REC-SVG-20010904/DTD/svg10.dtd">
<svg version="1.0" xmlns="http://www.w3.org/2000/svg"
 width="350.000000pt" height="140.000000pt" viewBox="0 0 350.000000 140.000000"
 preserveAspectRatio="xMidYMid meet">

<g transform="translate(0.000000,140.000000) scale(0.100000,-0.100000)"
fill="#000000" stroke="none">
<path d="M1606 1383 c-11 -36 -34 -158 -31 -161 2 -2 87 31 190 74 173 72 184
79 163 91 -16 8 -70 12 -170 13 -131 0 -147 -2 -152 -17z"/>
<path d="M1670 695 c0 -212 3 -385 7 -385 6 0 358 98 633 176 85 24 182 52
215 61 33 9 66 19 74 23 8 5 -30 30 -105 70 -181 96 -214 114 -284 152 -36 20
-94 51 -130 70 -36 20 -141 76 -233 127 -93 50 -171 91 -173 91 -2 0 -4 -173
-4 -385z"/>
<path d="M0 740 c0 -27 2 -50 5 -50 6 0 45 77 45 90 0 5 -11 10 -25 10 -23 0
-25 -3 -25 -50z"/>
<path d="M1355 435 c-33 -14 -106 -44 -163 -67 -56 -22 -101 -42 -100 -43 2
-1 62 -44 133 -95 72 -51 165 -120 208 -153 43 -32 81 -57 83 -54 3 3 -4 47
-15 99 -39 175 -71 325 -71 332 0 10 -12 7 -75 -19z"/>
<path d="M220 349 c0 -5 5 -7 10 -4 6 3 10 8 10 11 0 2 -4 4 -10 4 -5 0 -10
-5 -10 -11z"/>
<path d="M2175 170 c4 -6 11 -8 16 -5 14 9 11 15 -7 15 -8 0 -12 -5 -9 -10z"/>
<path d="M2901 174 c2 -5 21 -39 42 -76 37 -65 41 -68 75 -68 21 0 69 -3 107
-6 79 -7 86 -13 -70 71 -49 26 -105 57 -124 68 -19 11 -32 16 -30 11z"/>
<path d="M0 54 c0 -8 5 -12 10 -9 6 4 8 11 5 16 -9 14 -15 11 -15 -7z"/>
</g>
</svg>
